<svg xmlns="http://www.w3.org/2000/svg" width="35.418" height="32.265" viewBox="0 1.577 35.418 32.265" enable-background="new 0 1.577 35.418 32.265"><path d="M20.948 9.89c-.857.07-1.847.137-2.837.27-1.515.195-3.03.46-4.283 1.053-2.44.994-4.088 3.105-4.088 6.21 0 3.897 2.505 5.874 5.668 5.874 1.057 0 1.913-.13 2.703-.328 1.256-.397 2.31-1.124 3.563-2.442.728.99.923 1.453 2.177 2.51.33.133.658.133.922-.066.79-.658 2.174-1.848 2.9-2.508.33-.268.264-.66.067-.992-.73-.924-1.45-1.718-1.45-3.498V10.03c0-2.513.194-4.822-1.647-6.537-1.52-1.39-3.892-1.916-5.735-1.916h-.792c-3.362.197-6.92 1.647-7.714 5.81-.13.526.267.727.53.794l3.69.465c.397-.07.594-.398.66-.73.332-1.45 1.517-2.176 2.835-2.31h.265c.79 0 1.646.333 2.11.988.522.795.46 1.853.46 2.775l-.004.523zm-.725 7.86c-.46.924-1.252 1.518-2.11 1.717-.13 0-.327.068-.526.068-1.45 0-2.31-1.123-2.31-2.775 0-2.11 1.254-3.104 2.836-3.565.858-.197 1.847-.265 2.836-.265v.793c-.002 1.52.06 2.707-.727 4.026zm15.195 9.168v.215c-.035 1.29-.716 3.768-2.328 5.13-.322.25-.645.108-.503-.253.47-1.145 1.54-3.803 1.04-4.412-.355-.465-1.826-.43-3.08-.322-.57.072-1.074.105-1.468.184-.357.033-.432-.287-.072-.537.467-.322.97-.572 1.54-.756 2.04-.607 4.407-.25 4.73.146.07.1.14.316.14.605zm-3.402 2.51c-.466.357-.965.682-1.468.973-3.76 2.263-8.63 3.442-12.856 3.442-6.807 0-12.895-2.512-17.514-6.71-.396-.323-.073-.788.393-.538C5.55 29.5 11.71 31.26 18.085 31.26c4.014 0 8.342-.754 12.463-2.37.285-.105.607-.253.895-.356.645-.292 1.22.43.574.894z"/></svg>