<svg xmlns="http://www.w3.org/2000/svg" width="394.4" height="394.4" viewBox="0 0 394.4 394.4"><path d="M197.2 0C88.292 0 0 88.292 0 197.2c0 108.91 88.292 197.2 197.2 197.2 108.91 0 197.2-88.29 197.2-197.2C394.4 88.293 306.11 0 197.2 0zm0 362.005c-91.018 0-164.805-73.787-164.805-164.805 0-91.02 73.787-164.805 164.805-164.805 91.02 0 164.806 73.787 164.806 164.805S288.22 362.005 197.2 362.005zm74.433-169.932c6.316-8.915 10.084-20.074 10.084-32.198 0-29.172-21.76-52.822-48.592-52.822h-7.746V66.205c0-2.326-1.904-4.223-4.224-4.223H207.06c-2.326 0-4.224 1.904-4.224 4.223v40.848H180.3V66.205c0-2.326-1.903-4.223-4.223-4.223h-14.083c-2.326 0-4.223 1.904-4.223 4.223v40.848h-46.484c-2.333 0-4.223 1.89-4.223 4.223v14.226c0 2.176 1.625 4.06 3.794 4.257 15.872 1.454 24.378 12.103 24.378 25.186v87.333c0 11.77-6.073 21.112-19.346 22.392-1.886.184-3.45 1.522-3.803 3.387l-2.692 14.36c-.483 2.563 1.488 4.938 4.1 4.938h44.262v40.848c0 2.326 1.904 4.223 4.224 4.223h14.084c2.325 0 4.223-1.903 4.223-4.224v-40.848h22.536v40.848c0 2.326 1.904 4.223 4.223 4.223h14.082c2.326 0 4.224-1.903 4.224-4.224v-40.848h19.014c26.84 0 48.592-23.33 48.592-52.115.026-17.97-8.438-33.8-21.325-43.17zm-91.338-51.218h34.51c12.84 0 23.24 10.404 23.24 23.243 0 12.838-10.4 23.242-23.24 23.242h-34.51v-46.485zm45.777 114.098h-45.777V208.47h45.777c12.84 0 23.242 10.403 23.242 23.24s-10.402 23.243-23.242 23.243z"/></svg>