<svg xmlns="http://www.w3.org/2000/svg" xmlns:xlink="http://www.w3.org/1999/xlink" width="600" height="600" viewBox="450 0 600 600" enable-background="new 450 0 600 600"><g transform="matrix(1.25 0 0 -1.25 0 47.5)"><defs><path id="a" d="M300-502h600V98H300z"/></defs><clipPath id="b"><use xlink:href="#a" overflow="visible"/></clipPath><g clip-path="url(#b)"><path fill="#FFCC4D" d="M814.737-202c0-118.598-96.14-214.737-214.737-214.737-118.585 0-214.737 96.14-214.737 214.737 0 118.585 96.152 214.737 214.737 214.737 118.598 0 214.737-96.152 214.737-214.737"/><path fill="#664500" d="M549.473-183.053c0-24.43-14.134-44.21-31.58-44.21-17.443 0-31.578 19.78-31.578 44.21 0 24.417 14.135 44.21 31.58 44.21 17.444 0 31.578-19.793 31.578-44.21"/><path fill="#664500" d="M713.684-183.053c0-24.43-14.135-44.21-31.58-44.21-17.444 0-31.578 19.78-31.578 44.21 0 24.417 14.134 44.21 31.58 44.21 17.443 0 31.578-19.793 31.578-44.21"/><path fill="#664500" d="M688.42-303.052H511.58c-6.974 0-12.632 5.646-12.632 12.63 0 6.986 5.66 12.632 12.63 12.632h176.843c6.986 0 12.632-5.646 12.632-12.63 0-6.986-5.646-12.632-12.63-12.632"/></g></g></svg>