<svg xmlns="http://www.w3.org/2000/svg" xmlns:xlink="http://www.w3.org/1999/xlink" width="600" height="600" viewBox="450 0 600 600" enable-background="new 450 0 600 600"><g transform="matrix(1.25 0 0 -1.25 0 47.5)"><defs><path id="a" d="M300-502h600V98H300z"/></defs><clipPath id="b"><use xlink:href="#a" overflow="visible"/></clipPath><g clip-path="url(#b)"><path fill="#FFCC4D" d="M814.737-202c0-118.598-96.14-214.737-214.737-214.737S385.263-320.597 385.263-202c0 118.598 96.14 214.737 214.737 214.737S814.737-83.403 814.737-202"/><path fill="#292F33" d="M388.297-113.802c3.032-3.02 18.152-12.1 21.184-21.158 3.032-9.057 9.096-60.43 27.26-75.55 18.745-15.575 89.394-9.777 102.935-3.03 30.278 15.094 33.99 57.232 39.348 78.58 3.02 12.088 21.183 12.088 21.183 12.088s18.177 0 21.196-12.076c5.355-21.36 9.095-63.5 39.347-78.58 13.553-6.76 84.2-12.557 102.972 3.018 18.127 15.12 24.19 66.493 27.22 75.562 3.007 9.057 18.153 18.126 21.185 21.145 3.044 3.02 3.044 15.107 0 18.14-6.05 6.037-77.483 11.418-154.396 3.018-15.347-1.68-21.183-6.05-57.523-6.05-36.316 0-42.177 4.37-57.512 6.038-76.888 8.412-148.345 3.032-154.396-3.007-3.022-3.03-3.022-15.12-.003-18.138"/><path fill="#664500" d="M717.916-273.102c-2.248 2.034-5.608 2.16-8.02.366-.493-.366-49.542-36.63-109.896-36.63-60.202 0-109.415 36.265-109.895 36.63-2.413 1.794-5.773 1.642-8.02-.366-2.237-2.02-2.742-5.356-1.19-7.933 1.63-2.716 40.637-66.227 119.104-66.227S717.484-283.75 719.1-281.035c1.555 2.59 1.062 5.912-1.186 7.933"/></g></g></svg>