<svg xmlns="http://www.w3.org/2000/svg" width="17.25" height="17.25" viewBox="741.375 291.375 17.25 17.25" enable-background="new 741.375 291.375 17.25 17.25"><g><path fill="#FFCC4D" d="M758.625 300c0 4.764-3.86 8.625-8.625 8.625s-8.625-3.86-8.625-8.625c0-4.764 3.86-8.625 8.625-8.625s8.625 3.86 8.625 8.625"/><path fill="#292F33" d="M741.496 296.457c.123.12.73.486.85.85s.365 2.427 1.095 3.034c.754.626 3.592.393 4.136.123 1.216-.606 1.365-2.3 1.58-3.156.122-.486.85-.486.85-.486s.73 0 .852.486c.215.857.365 2.55 1.58 3.156.545.27 3.382.504 4.137-.12.727-.61.97-2.67 1.093-3.036.12-.364.73-.728.85-.85.123-.12.123-.606 0-.73-.243-.24-3.112-.458-6.202-.12-.616.067-.85.244-2.31.244-1.457 0-1.693-.177-2.31-.243-3.087-.338-5.957-.12-6.2.12-.12.124-.12.61 0 .73"/><path fill="#664500" d="M754.736 302.855c-.09-.083-.225-.088-.322-.015-.02.015-1.99 1.47-4.414 1.47-2.417 0-4.395-1.456-4.414-1.47-.096-.073-.23-.065-.322.015-.09.08-.11.215-.048.32.065.107 1.633 2.66 4.784 2.66 3.15 0 4.72-2.553 4.784-2.66.062-.105.042-.24-.048-.32"/></g></svg>