<svg xmlns="http://www.w3.org/2000/svg" width="600" height="599.948" viewBox="450 0.026 600 599.948" enable-background="new 450 0.026 600 599.948"><path d="M750 .026c-165.377 0-300 134.57-300 299.998 0 165.376 134.623 299.95 300 299.95 165.427 0 300-134.57 300-299.95C1050 134.597 915.427.026 750 .026zm12.994 439.78v47.486h-28.79V441.66c-26.444-.505-53.45-8.756-69.397-20.16l10.95-30.532c15.945 10.498 39.74 19.584 65.337 19.584 32.387 0 51.444-18.686 51.385-44.787.06-25.093-14.85-40.636-48.686-54.347-46.55-18.293-75.34-39.74-75.34-79.49 0-37.898 26.886-66.637 68.49-73.538v-45.692h28.778v44.394c26.945.856 45.653 8.2 59.353 15.947l-11.403 30.148c-9.6-5.45-28.296-15.996-57.54-15.996-35.196 0-45.492 21.043-45.492 39.74 0 23.3 13.952 35.147 53.732 52.04 47.042 19.25 70.786 42.55 70.786 83.196.025 36.477-25.11 70.323-72.164 77.638z"/></svg>