<svg xmlns="http://www.w3.org/2000/svg" width="35.318" height="34.443" viewBox="0 0.437 35.318 34.443" enable-background="new 0 0.437 35.318 34.443"><path d="M23.71 34.69c-.172.06-.345.136-.52.167-.68.12-1.113-.23-1.117-.922-.01-1.287-.01-2.572.012-3.86.022-1.478-.012-2.94-1.14-4.16.67-.12 1.267-.205 1.85-.34 3.862-.886 5.868-3.322 6.124-7.365.13-2.058-.236-3.945-1.605-5.566-.1-.114-.104-.373-.058-.54.364-1.34.26-2.648-.166-3.958-.103-.327-.277-.43-.6-.407-1.135.062-2.174.46-3.09 1.072-.883.593-1.705.722-2.754.48-2.31-.52-4.636-.368-6.94.166-.26.063-.612-.02-.85-.16-1.083-.635-2.165-1.25-3.413-1.497-.965-.187-1.05-.14-1.305.794-.322 1.176-.354 2.353-.025 3.536.047.172-.002.448-.117.575-2.557 2.854-1.63 8.244.092 10.31 1.34 1.604 3.12 2.325 5.097 2.7.345.064.688.113 1.032.174-.296.77-.562 1.495-.862 2.21-.06.14-.246.255-.4.313-1.937.752-3.603.2-4.712-1.56-.593-.938-1.354-1.64-2.488-1.843-.036-.007-.072-.025-.105-.02-.306.08-.607.163-.91.245.17.238.29.558.52.7.96.608 1.586 1.476 2 2.5.648 1.603 1.908 2.317 3.546 2.458.8.064 1.605.01 2.48.01 0 .996.036 2.133-.015 3.265-.025.61-.64.854-1.372.604-1.947-.666-3.752-1.62-5.312-2.963-5.63-4.85-7.8-10.98-5.93-18.155C2.523 6.503 7.384 2.115 14.652.74 24.71-1.164 34.236 6.16 35.234 16.37c.788 8.048-3.95 15.58-11.523 18.32zm-9.48-8.84l-.018.038.056.01c.014 0 .026.025-.04-.048zm-4.55 3.18c.155.098.306.22.476.274.062.02.177-.12.38-.27-.282-.108-.448-.202-.623-.226-.068-.008-.156.145-.234.223zm1.432.247c.022.104.23.236.354.233.12-.002.235-.16.354-.25-.108-.1-.216-.194-.548-.493-.07.208-.19.376-.16.51zm1.758-.423c-.147.035-.272.172-.408.266.08.1.158.193.285.35l.414-.38c-.1-.086-.216-.254-.29-.236zm-4.358-.594c.08.155.21.29.38.51.115-.19.24-.333.22-.362-.11-.143-.258-.26-.404-.367-.01-.007-.213.187-.196.22z"/></svg>