<svg xmlns="http://www.w3.org/2000/svg" width="166.251" height="166.298" viewBox="0 0 166.251 166.298"><path d="M4.828.793C6.82.005 9.006.115 11.096.033c48.48.055 96.963 0 145.444.027 5.382-.664 10.253 4.234 9.616 9.602.11 48.938.042 97.89.042 146.842.622 5.424-4.234 10.28-9.658 9.755-48.938.013-97.89.013-146.828 0-5.424.524-10.28-4.332-9.658-9.77 0-48.938-.083-97.89.042-146.828-.304-3.597 1.62-7.083 4.732-8.87m32.764 82.285c-.25 12.093 8.08 23.632 19.536 27.396 10.792 3.625 24.06.913 31.242-8.33 5.244-6.475 6.435-15.11 5.866-23.175-9.242-.083-18.485-.055-27.713-.042-.014 3.293 0 6.573.014 9.866 5.534.152 11.068.083 16.603.193-1.398 4.788-4.58 9.243-9.41 10.972-9.324 4.11-21.223-1.26-24.156-11.04-3.542-9.368 2.255-20.672 11.83-23.398 5.935-2.09 12.05.262 17.128 3.348 2.574-2.408 4.98-4.98 7.347-7.582-5.77-4.83-13.186-7.79-20.81-7.14-14.957.18-28.046 13.987-27.478 28.93zm74.63-12.452c-.026 2.753-.055 5.52-.068 8.274-2.767.026-5.52.04-8.274.054V87.2c2.753.014 5.52.028 8.274.056.028 2.753.028 5.507.055 8.274 2.74 0 5.492-.014 8.246 0 .015-2.767.027-5.52.056-8.288l8.273-.042v-8.246c-2.753-.014-5.52-.028-8.273-.055-.015-2.755-.04-5.522-.056-8.275h-8.233z"/></svg>