<svg xmlns="http://www.w3.org/2000/svg" width="328.976" height="209.203" viewBox="585.65 195.638 328.976 209.203" enable-background="new 585.65 195.638 328.976 209.203"><path d="M733.424 248.546c-18.326-11.137-40.396-19.625-61.82-12.086-34.554 9.838-55.477 50.635-42.693 84.44 10.587 35.304 53.53 54.68 87.185 39.848 17.427-6.24 28.912-22.318 33.955-39.6h-59.92v-35.605h100.017c2.047 29.11-2.247 60.27-21.172 83.64-25.916 33.357-73.805 43.145-112.753 30.062-41.346-13.584-71.408-55.23-70.506-98.873-2.05-53.93 45.19-103.763 99.168-104.413 27.515-2.347 54.28 8.34 75.1 25.768l-26.56 26.818zM855.005 254.887h29.76v29.86h29.86v29.76h-29.86v29.862h-29.76v-29.862h-29.86v-29.76h29.86v-29.86z"/></svg>