<svg xmlns="http://www.w3.org/2000/svg" width="411.391" height="435.504" viewBox="12.057 0 411.391 435.504" enable-background="new 12.057 0 411.391 435.504"><path d="M403.497 101.917c-4.105-5.073-8.877-9.705-14.166-13.84.708 13.118-.507 27.093-3.667 41.885-8.627 40.413-29.256 74.754-59.656 99.304-30.375 24.533-68.305 37.502-109.687 37.502h-60.344l-19.533 91.512c-3.836 17.96-19.943 30.99-38.303 30.99H70.938l-4.898 22.484c-1.258 5.79.17 11.838 3.887 16.453 3.715 4.613 9.324 7.297 15.25 7.297h66.498c9.24 0 17.225-6.46 19.152-15.494L193.667 313h76.188c36.854 0 70.526-11.465 97.384-33.152 26.868-21.697 45.128-52.186 52.806-88.162 7.777-36.377 2.206-66.58-16.55-89.77zM117.292 354.192l22.84-107.01h76.188c36.853 0 70.527-11.465 97.384-33.153 26.866-21.698 45.13-52.187 52.81-88.162 7.772-36.378 2.206-66.58-16.554-89.77C331.952 13.833 301.17 0 269.633 0H103.64c-9.21 0-17.175 6.417-19.136 15.414l-72 330.524c-1.26 5.79.17 11.838 3.888 16.453 3.713 4.614 9.32 7.296 15.248 7.296h66.5c9.24.002 17.22-6.457 19.152-15.494zm60.943-278.9h52.23c12.286 0 23.274 5.148 30.145 14.128 7.298 9.54 9.43 22.73 5.853 36.188-.047.17-.088.342-.13.516-6.57 27.73-33.893 50.29-60.898 50.29h-50.05l22.85-101.123z"/></svg>