<svg xmlns="http://www.w3.org/2000/svg" width="600" height="599.482" viewBox="450 0.247 600 599.482" enable-background="new 450 0.247 600 599.482"><g><path d="M538.944 421.913c-49.046 0-88.944 39.85-88.944 88.945 0 48.923 39.898 88.87 88.944 88.87 49.047 0 88.945-39.923 88.945-88.87 0-49.095-39.9-88.945-88.946-88.945zM459.247 196.063c-5.08 0-9.247 4.167-9.247 9.296v112.888c0 5.08 4.167 9.222 9.247 9.222 144.97 0 262.987 117.97 262.987 262.987 0 5.055 4.093 9.247 9.247 9.247H844.84c5.154 0 9.297-4.192 9.297-9.247l-.444-2.885c-1.627-216.11-178.012-391.51-394.443-391.51zM1049.482 587.572C1047.88 263.382 783.66.247 459.247.247c-5.08 0-9.247 4.167-9.247 9.296V125.71c0 5.105 4.167 9.248 9.247 9.248 251.176 0 455.5 204.35 455.5 455.523 0 5.057 4.142 9.248 9.196 9.248h116.712c5.055 0 9.346-4.19 9.346-9.247l-.518-2.908z"/></g></svg>