<svg xmlns="http://www.w3.org/2000/svg" xmlns:xlink="http://www.w3.org/1999/xlink" width="600" height="600" viewBox="450 0 600 600" enable-background="new 450 0 600 600"><g transform="matrix(1.25 0 0 -1.25 0 47.5)"><defs><path id="a" d="M300-502h600V98H300z"/></defs><clipPath id="b"><use xlink:href="#a" overflow="visible"/></clipPath><g clip-path="url(#b)"><path fill="#FFCC4D" d="M814.737-202c0-118.598-96.14-214.737-214.737-214.737S385.263-320.597 385.263-202c0 118.598 96.14 214.737 214.737 214.737S814.737-83.403 814.737-202"/><path fill="#664500" d="M600-239.895c-45.764 0-76.13 5.33-113.684 12.63-8.577 1.656-25.263 0-25.263-25.262 0-50.526 58.042-113.684 138.948-113.684 80.894 0 138.95 63.158 138.95 113.683 0 25.263-16.688 26.93-25.264 25.263-37.556-7.3-67.922-12.63-113.686-12.63"/><path fill="#664500" d="M498.948-138.842s0 25.263 25.263 25.263c25.264 0 25.264-25.262 25.264-25.262v-25.263s0-25.263-25.263-25.263c-25.262 0-25.262 25.263-25.262 25.263v25.263z"/><path fill="#664500" d="M650.527-138.842s0 25.263 25.263 25.263 25.263-25.262 25.263-25.262v-25.263s0-25.263-25.263-25.263-25.263 25.263-25.263 25.263v25.263z"/><path fill="#fff" d="M486.316-252.527s37.895-12.63 113.684-12.63c75.79 0 113.684 12.63 113.684 12.63S688.42-303.052 600-303.052s-113.684 50.525-113.684 50.525"/></g></g></svg>