<svg xmlns="http://www.w3.org/2000/svg" width="17.25" height="17.25" viewBox="741.375 291.375 17.25 17.25" enable-background="new 741.375 291.375 17.25 17.25"><g><path fill="#FFCC4D" d="M758.625 300c0 4.764-3.86 8.625-8.625 8.625s-8.625-3.86-8.625-8.625c0-4.764 3.86-8.625 8.625-8.625s8.625 3.86 8.625 8.625"/><path fill="#664500" d="M750 301.52c-1.837 0-3.058-.212-4.566-.505-.345-.066-1.015 0-1.015 1.015 0 2.03 2.33 4.566 5.58 4.566s5.58-2.537 5.58-4.566c0-1.015-.67-1.083-1.014-1.015-1.51.292-2.73.506-4.566.506"/><path fill="#664500" d="M745.94 297.462s0-1.015 1.016-1.015c1.015 0 1.015 1.015 1.015 1.015v1.015s0 1.015-1.014 1.015c-1.015 0-1.015-1.015-1.015-1.015v-1.015z"/><path fill="#664500" d="M752.03 297.462s0-1.015 1.014-1.015c1.015 0 1.015 1.015 1.015 1.015v1.015s0 1.015-1.016 1.015c-1.015 0-1.015-1.015-1.015-1.015v-1.015z"/><path fill="#fff" d="M745.434 302.03s1.522.505 4.566.505 4.566-.506 4.566-.506-1.015 2.028-4.566 2.028-4.566-2.03-4.566-2.03"/></g></svg>