<svg xmlns="http://www.w3.org/2000/svg" width="17.25" height="17.25" viewBox="391.375 216.374 17.25 17.25" enable-background="new 391.375 216.374 17.25 17.25"><path d="M400.957 222.124v3.833c0 .53-.427.957-.957.957s-.957-.426-.957-.957v-3.833h1.914zM407.605 225c.53 4.198-2.447 8.035-6.648 8.562-4.198.53-8.035-2.447-8.562-6.65-.53-4.197 2.447-8.034 6.648-8.56v-1.98h1.914v1.98c1.144.08 2.88.796 3.744 1.548l1.4-1.398 1.354 1.355-1.398 1.398c.752.866 1.47 2.6 1.55 3.745zm-1.855.958c0-3.177-2.573-5.75-5.75-5.75s-5.75 2.573-5.75 5.75 2.573 5.75 5.75 5.75 5.75-2.574 5.75-5.75z"/></svg>