<svg xmlns="http://www.w3.org/2000/svg" width="340.206" height="600" viewBox="579.91 0 340.206 600" enable-background="new 579.91 0 340.206 600"><path d="M781.917 130.412V0h-84.16c-1.9 4.83-2.904 10.56-2.904 16.42-.897 2.825-1.9 4.857-1.9 7.735-8.66 48.284-33.792 82.102-76.347 100.5-12.566 5.756-24.13 6.68-36.695 5.756v105.254h61.828c1.03 147.915 1.03 224.208 1.03 228.09v8.764c7.76 64.65 41.525 103.326 101.45 117.82 24.13 6.783 50.186 9.66 76.347 9.66 33.765-.95 66.658-6.757 99.552-17.396v-123.68c-19.298 5.808-36.827 10.612-52.19 15.39-29.964 8.792-55.096 2.984-75.423-16.34-1.928-2.904-4.83-6.785-5.835-10.64-2.8-15.47-4.7-31.837-4.7-47.386V235.69H916.16V130.41h-134.24z"/></svg>