<svg xmlns="http://www.w3.org/2000/svg" width="599.999" height="487.372" viewBox="450.001 56.314 599.999 487.372" enable-background="new 450.001 56.314 599.999 487.372"><path d="M1050 113.98c-22.083 9.784-45.778 16.42-70.675 19.383 25.42-15.223 44.88-39.368 54.103-68.05-23.846 14.097-50.166 24.333-78.21 29.883-22.46-23.958-54.403-38.88-89.835-38.88-67.974 0-123.09 55.114-123.09 123.05 0 9.636 1.088 19.047 3.19 28.046-102.28-5.137-192.977-54.14-253.678-128.602-10.61 18.147-16.646 39.292-16.646 61.864 0 42.705 21.745 80.385 54.74 102.43-20.173-.674-39.145-6.223-55.753-15.446v1.538c0 59.613 42.44 109.366 98.718 120.69-10.31 2.774-21.183 4.312-32.43 4.312-7.95 0-15.636-.787-23.172-2.287 15.672 48.93 61.114 84.51 114.954 85.485-42.105 32.994-95.195 52.603-152.86 52.603-9.934 0-19.72-.6-29.355-1.688 54.478 34.98 119.153 55.378 188.665 55.378 226.42 0 350.184-187.54 350.184-350.185l-.41-15.934c24.18-17.25 45.1-38.92 61.56-63.59z"/></svg>