<svg xmlns="http://www.w3.org/2000/svg" xmlns:xlink="http://www.w3.org/1999/xlink" width="600" height="600" viewBox="450 0 600 600" enable-background="new 450 0 600 600"><g transform="matrix(1.25 0 0 -1.25 0 47.5)"><defs><path id="a" d="M300-502h600V98H300z"/></defs><clipPath id="b"><use xlink:href="#a" overflow="visible"/></clipPath><g clip-path="url(#b)"><path fill="#FFCC4D" d="M814.737-202c0-118.598-96.14-214.737-214.737-214.737-118.585 0-214.737 96.14-214.737 214.737 0 118.585 96.152 214.737 214.737 214.737 118.598 0 214.737-96.152 214.737-214.737"/><path fill="#664500" d="M567.878-187.032c-.758 1.705-18.935 41.646-56.3 41.646-37.35 0-55.54-39.94-56.298-41.646-1.162-2.615-.404-5.67 1.82-7.465 2.235-1.806 5.394-1.857 7.705-.177.165.114 15.94 11.394 46.775 11.394 30.645 0 46.41-11.13 46.762-11.38 1.11-.835 2.45-1.252 3.764-1.252 1.39 0 2.79.468 3.94 1.377 2.25 1.794 2.994 4.876 1.832 7.503"/><path fill="#F5F8FA" d="M764.21-158.018c0-45.348-36.758-82.105-82.104-82.105-45.348 0-82.105 36.758-82.105 82.105s36.76 82.105 82.106 82.105 82.105-36.758 82.105-82.105"/><path fill="#292F33" d="M713.684-158.018c0-17.445-14.135-31.58-31.58-31.58-17.444 0-31.578 14.135-31.578 31.58 0 17.444 14.134 31.58 31.58 31.58 17.443 0 31.578-14.136 31.578-31.58"/><path fill="#664500" d="M461.052-265.387c0-50.07 58.055-113.684 138.948-113.684s138.948 63.158 138.948 113.683c0 0-130.523-34.812-277.896 0"/><path fill="#E75A70" d="M524.21-289.145v-76.838c0-37.895 25.264-75.79 75.79-75.79s75.79 37.895 75.79 75.79v76.32c-79.478-16.32-151.58.518-151.58.518"/></g></g></svg>