<svg xmlns="http://www.w3.org/2000/svg" width="17.25" height="17.25" viewBox="741.375 8.625 17.25 17.25" enable-background="new 741.375 8.625 17.25 17.25"><g><path fill="#FFCC4D" d="M758.625 16.775c0 4.5-3.86 8.15-8.625 8.15-4.763 0-8.625-3.65-8.625-8.15s3.862-8.15 8.625-8.15c4.764 0 8.625 3.65 8.625 8.15"/><path fill="#664500" d="M748.71 16.208c-.03-.065-.762-1.58-2.262-1.58s-2.23 1.516-2.26 1.58c-.047.098-.017.215.073.283.09.07.217.072.31.008.006-.005.64-.433 1.878-.433 1.232 0 1.864.423 1.88.433.043.03.097.047.15.047.055 0 .112-.017.158-.052.09-.07.12-.186.074-.285"/><path fill="#F5F8FA" d="M756.596 15.105c0 1.722-1.476 3.117-3.297 3.117s-3.3-1.395-3.3-3.117c0-1.72 1.476-3.116 3.297-3.116s3.3 1.395 3.3 3.115"/><path fill="#292F33" d="M754.566 15.105c0 .663-.568 1.2-1.268 1.2-.702 0-1.27-.537-1.27-1.2 0-.66.568-1.198 1.27-1.198.7 0 1.268.537 1.268 1.198"/><path fill="#664500" d="M744.42 19.18c0 1.9 2.33 4.316 5.58 4.316s5.58-2.398 5.58-4.315c0 0-5.243 1.322-11.16 0"/><path fill="#E75A70" d="M746.956 20.083V23c0 1.438 1.015 2.875 3.044 2.875s3.044-1.437 3.044-2.876v-2.897c-3.193.62-6.088-.02-6.088-.02"/></g></svg>