<svg xmlns="http://www.w3.org/2000/svg" width="1022" height="1022" viewBox="0 0 1022 1022"><path d="M448.268 589.772L611.858 505 448.24 419.632zM511 0C228.782 0 0 228.782 0 511s228.782 511 511 511 511-228.782 511-511S793.218 0 511 0zm302.55 534.103c0 49-6.045 98.003-6.045 98.003s-5.916 41.73-24.075 60.104c-23.025 24.117-48.835 24.237-60.67 25.65-84.737 6.124-211.977 6.315-211.977 6.315s-157.437-1.437-205.88-6.082c-13.478-2.53-43.735-1.767-66.77-25.884-18.156-18.377-24.064-60.105-24.064-60.105s-6.056-49.002-6.056-98.003v-45.94c0-49 6.055-98.004 6.055-98.004s5.907-41.73 24.063-60.104c23.035-24.118 48.835-24.237 60.672-25.65 84.74-6.124 211.844-6.124 211.844-6.124h.262s127.11 0 211.845 6.125c11.836 1.412 37.646 1.53 60.67 25.65 18.16 18.374 24.076 60.103 24.076 60.103s6.046 49.003 6.046 98.004v45.94z"/></svg>