<svg xmlns="http://www.w3.org/2000/svg" style="display:none"><symbol id="icon-amazon" viewBox="9.084 9.084 17.25 17.25"><path d="M19.287 13.53c-.418.036-.899.072-1.382.144-.738.104-1.477.247-2.086.563-1.188.531-1.991 1.66-1.991 3.319 0 2.084 1.221 3.141 2.761 3.141.515 0 .932-.068 1.316-.175.611-.212 1.125-.6 1.735-1.305.354.529.449.776 1.061 1.342.16.07.32.07.448-.035a53.896 53.896 0 0 0 1.413-1.342c.16-.143.128-.352.032-.529-.354-.495-.706-.919-.706-1.87v-3.178c0-1.344.096-2.578-.802-3.495-.739-.744-1.896-1.024-2.793-1.024h-.386c-1.638.105-3.371.881-3.757 3.107-.063.28.13.388.258.424l1.798.248c.193-.038.289-.213.32-.39.162-.775.739-1.164 1.381-1.234h.129c.385 0 .801.177 1.028.527.254.425.224.991.224 1.484l-.001.278zm-.353 4.2c-.225.494-.61.813-1.028.919-.064 0-.159.036-.256.036-.706 0-1.125-.601-1.125-1.483 0-1.128.611-1.66 1.381-1.906.417-.105.9-.142 1.381-.142v.424c0 .813.029 1.447-.353 2.152zm7.4 4.903v.115c-.018.689-.349 2.015-1.134 2.743-.157.134-.314.057-.245-.136.229-.612.751-2.033.507-2.358-.174-.249-.89-.23-1.5-.173-.278.039-.523.056-.715.099-.174.018-.21-.154-.035-.287a2.73 2.73 0 0 1 .751-.404c.993-.324 2.146-.134 2.303.078a.65.65 0 0 1 .068.323zm-1.657 1.341c-.227.191-.47.365-.715.521-1.831 1.209-4.203 1.839-6.261 1.839-3.315 0-6.28-1.343-8.53-3.586-.193-.173-.036-.422.191-.289a15.96 15.96 0 0 0 8.53 2.495c1.955 0 4.063-.403 6.07-1.268.139-.056.296-.135.436-.189.314-.156.593.23.279.477z"/></symbol><symbol id="icon-comments" viewBox="0 0 60.801 60.801"><path fill-rule="evenodd" clip-rule="evenodd" d="M18.999 34.194h26.606v-7.588h-30.41v7.588h3.804zm26.606-19.001h-30.41v7.609h30.41v-7.609zm15.196-7.586V3.804A3.808 3.808 0 0 0 56.997 0H3.804A3.806 3.806 0 0 0 0 3.804v41.802c0 2.097 1.705 3.78 3.804 3.78h28.498l17.089 11.415V49.386h7.606c2.097 0 3.804-1.684 3.804-3.78V7.607zm-7.608 34.195H41.802v5.696l-9.5-5.696H7.609V7.607h45.584v34.195zm0 0"/></symbol><symbol id="icon-facebook" viewBox="0 0 60.734 60.733"><path d="M57.378.001H3.352A3.352 3.352 0 0 0 0 3.353v54.026a3.353 3.353 0 0 0 3.352 3.354h29.086V37.214h-7.914v-9.167h7.914v-6.76c0-7.843 4.789-12.116 11.787-12.116 3.355 0 6.232.251 7.071.36v8.198l-4.854.002c-3.805 0-4.539 1.809-4.539 4.462v5.851h9.078l-1.187 9.166h-7.892v23.52h15.475a3.355 3.355 0 0 0 3.355-3.351V3.351a3.352 3.352 0 0 0-3.354-3.35z"/></symbol><symbol id="icon-loading" viewBox="149.8 37.8 499.818 525"><path d="M557.8 187.8c13.8 0 24.601-10.8 24.601-24.6S571.6 138.6 557.8 138.6s-24.6 10.8-24.6 24.6c0 13.2 10.8 24.6 24.6 24.6zm61.2 90.6c-16.8 0-30.6 13.8-30.6 30.6s13.8 30.6 30.6 30.6 30.6-13.8 30.6-30.6c.6-16.8-13.2-30.6-30.6-30.6zm-61.2 145.2c-20.399 0-36.6 16.2-36.6 36.601 0 20.399 16.2 36.6 36.6 36.6 20.4 0 36.601-16.2 36.601-36.6C595 439.8 578.2 423.6 557.8 423.6zM409 476.4c-24 0-43.2 19.199-43.2 43.199s19.2 43.2 43.2 43.2 43.2-19.2 43.2-43.2S433 476.4 409 476.4zM260.8 411c-27 0-49.2 22.2-49.2 49.2s22.2 49.2 49.2 49.2 49.2-22.2 49.2-49.2-22.2-49.2-49.2-49.2zm-10.2-102c0-27.6-22.8-50.4-50.4-50.4-27.6 0-50.4 22.8-50.4 50.4 0 27.6 22.8 50.4 50.4 50.4 27.6 0 50.4-22.2 50.4-50.4zm10.2-199.8c-30 0-54 24-54 54s24 54 54 54 54-24 54-54-24.6-54-54-54zM409 37.8c-35.4 0-63.6 28.8-63.6 63.6S374.2 165 409 165s63.6-28.8 63.6-63.6-28.2-63.6-63.6-63.6z"/></symbol><symbol id="icon-paypal" viewBox="12.057 0 411.391 435.504"><path d="M403.497 101.917c-4.105-5.073-8.877-9.705-14.166-13.839.707 13.117-.508 27.092-3.668 41.884-8.627 40.413-29.256 74.754-59.656 99.304-30.375 24.533-68.305 37.502-109.687 37.502h-60.344l-19.533 91.512c-3.836 17.959-19.943 30.99-38.303 30.99H70.938l-4.898 22.484a19.583 19.583 0 0 0 19.137 23.75h66.498c9.24 0 17.225-6.459 19.152-15.494L193.667 313h76.188c36.854 0 70.526-11.465 97.384-33.152 26.869-21.697 45.129-52.186 52.807-88.162 7.777-36.377 2.206-66.58-16.549-89.769z"/><path d="M117.292 354.192l22.84-107.009h76.188c36.853 0 70.527-11.466 97.384-33.154 26.866-21.697 45.129-52.186 52.809-88.161 7.773-36.378 2.207-66.58-16.553-89.769C331.952 13.832 301.17 0 269.633 0H103.639a19.585 19.585 0 0 0-19.135 15.414L12.505 345.938a19.583 19.583 0 0 0 19.135 23.748h66.5c9.24.002 17.22-6.457 19.152-15.494zm60.943-278.901h52.229c12.287 0 23.275 5.149 30.146 14.129 7.298 9.539 9.431 22.729 5.853 36.188-.047.171-.088.342-.131.516-6.57 27.73-33.892 50.291-60.897 50.291h-50.05l22.85-101.124z"/></symbol><symbol id="icon-stopwatch" viewBox="391.375 216.374 17.25 17.25"><path d="M400.957 222.124v3.833c0 .53-.427.957-.957.957s-.957-.426-.957-.957v-3.833h1.914z"/><path d="M407.605 225a7.664 7.664 0 0 1-6.648 8.562 7.664 7.664 0 0 1-8.562-6.649 7.664 7.664 0 0 1 6.648-8.562v-1.978h1.914v1.978c1.144.08 2.88.797 3.744 1.549l1.398-1.398 1.355 1.355-1.398 1.398c.752.866 1.469 2.601 1.549 3.745zm-1.855.958a5.748 5.748 0 0 0-5.75-5.75 5.748 5.748 0 0 0-5.75 5.75 5.748 5.748 0 0 0 5.75 5.75 5.749 5.749 0 0 0 5.75-5.75z"/></symbol><symbol id="icon-twitter" viewBox="364.771 6.607 21.207 17.25"><path d="M385.979 8.642s-.828 1.34-2.168 2.247c.275 6.149-4.218 12.969-12.377 12.969-4.059 0-6.662-1.971-6.662-1.971s3.194.67 6.426-1.774c-3.271-.197-4.061-3.034-4.061-3.034s.906.236 1.971-.08c-3.666-.906-3.507-4.335-3.507-4.335s.906.552 1.97.552c-3.311-2.562-1.34-5.833-1.34-5.833s2.995 4.217 8.987 4.572c-.867-4.769 4.612-6.977 7.411-3.98 1.458-.237 2.798-1.065 2.798-1.065s-.473 1.617-1.931 2.405c1.181-.082 2.483-.673 2.483-.673z"/></symbol></svg>