<svg xmlns="http://www.w3.org/2000/svg" style="display:none"><symbol id="icon-amazon" viewBox="9.084 9.084 17.25 17.25"><path d="M19.287 13.53c-.418.036-.899.072-1.382.144-.738.104-1.477.247-2.086.563-1.188.531-1.991 1.66-1.991 3.319 0 2.084 1.221 3.141 2.761 3.141.515 0 .932-.068 1.316-.175.611-.212 1.125-.6 1.735-1.305.354.529.449.776 1.061 1.342.16.07.32.07.448-.035a53.896 53.896 0 0 0 1.413-1.342c.16-.143.128-.352.032-.529-.354-.495-.706-.919-.706-1.87v-3.178c0-1.344.096-2.578-.802-3.495-.739-.744-1.896-1.024-2.793-1.024h-.386c-1.638.105-3.371.881-3.757 3.107-.063.28.13.388.258.424l1.798.248c.193-.038.289-.213.32-.39.162-.775.739-1.164 1.381-1.234h.129c.385 0 .801.177 1.028.527.254.425.224.991.224 1.484l-.001.278zm-.353 4.2c-.225.494-.61.813-1.028.919-.064 0-.159.036-.256.036-.706 0-1.125-.601-1.125-1.483 0-1.128.611-1.66 1.381-1.906.417-.105.9-.142 1.381-.142v.424c0 .813.029 1.447-.353 2.152zm7.4 4.903v.115c-.018.689-.349 2.015-1.134 2.743-.157.134-.314.057-.245-.136.229-.612.751-2.033.507-2.358-.174-.249-.89-.23-1.5-.173-.278.039-.523.056-.715.099-.174.018-.21-.154-.035-.287a2.73 2.73 0 0 1 .751-.404c.993-.324 2.146-.134 2.303.078a.65.65 0 0 1 .068.323zm-1.657 1.341c-.227.191-.47.365-.715.521-1.831 1.209-4.203 1.839-6.261 1.839-3.315 0-6.28-1.343-8.53-3.586-.193-.173-.036-.422.191-.289a15.96 15.96 0 0 0 8.53 2.495c1.955 0 4.063-.403 6.07-1.268.139-.056.296-.135.436-.189.314-.156.593.23.279.477z"/></symbol><symbol id="icon-comments" viewBox="0 0 60.801 60.801"><path fill-rule="evenodd" clip-rule="evenodd" d="M18.999 34.194h26.606v-7.588h-30.41v7.588h3.804zm26.606-19.001h-30.41v7.609h30.41v-7.609zm15.196-7.586V3.804A3.808 3.808 0 0 0 56.997 0H3.804A3.806 3.806 0 0 0 0 3.804v41.802c0 2.097 1.705 3.78 3.804 3.78h28.498l17.089 11.415V49.386h7.606c2.097 0 3.804-1.684 3.804-3.78V7.607zm-7.608 34.195H41.802v5.696l-9.5-5.696H7.609V7.607h45.584v34.195zm0 0"/></symbol><symbol id="icon-facebook" viewBox="0 0 60.734 60.733"><path d="M57.378.001H3.352A3.352 3.352 0 0 0 0 3.353v54.026a3.353 3.353 0 0 0 3.352 3.354h29.086V37.214h-7.914v-9.167h7.914v-6.76c0-7.843 4.789-12.116 11.787-12.116 3.355 0 6.232.251 7.071.36v8.198l-4.854.002c-3.805 0-4.539 1.809-4.539 4.462v5.851h9.078l-1.187 9.166h-7.892v23.52h15.475a3.355 3.355 0 0 0 3.355-3.351V3.351a3.352 3.352 0 0 0-3.354-3.35z"/></symbol><symbol id="icon-folder" viewBox="227 -6.666 320 320"><path d="M520.28 293.334H253.72c-14.733 0-26.72-11.987-26.72-26.721V40.053c0-14.733 11.987-26.72 26.72-26.72h95.893a33.287 33.287 0 0 1 27.747 14.84l14.787 22.187a6.66 6.66 0 0 0 5.573 2.974h122.56c14.733 0 26.72 11.986 26.72 26.72v186.56c0 14.733-11.986 26.72-26.72 26.72zM253.72 40l-.054 226.613 266.64.053.026-186.613L397.72 80a33.323 33.323 0 0 1-27.76-14.854l-14.773-22.173A6.676 6.676 0 0 0 349.614 40H253.72zm279.947 93.333H240.333c-7.36 0-13.333-5.974-13.333-13.333s5.973-13.333 13.333-13.333h293.333C541.04 106.667 547 112.64 547 120s-5.96 13.333-13.333 13.333zM427 213.334h-80c-7.36 0-13.333-5.961-13.333-13.334 0-7.374 5.974-13.333 13.333-13.333h80c7.373 0 13.333 5.96 13.333 13.333s-5.96 13.334-13.333 13.334z"/></symbol><symbol id="icon-github" viewBox="0 0 32.579 32.58"><path fill-rule="evenodd" clip-rule="evenodd" d="M16.289.402C7.294.402 0 7.695 0 16.693c0 7.196 4.667 13.302 11.141 15.456.814.149 1.112-.354 1.112-.785 0-.387-.014-1.411-.022-2.771-4.531.984-5.487-2.184-5.487-2.184-.741-1.882-1.809-2.383-1.809-2.383-1.479-1.011.112-.99.112-.99 1.635.115 2.495 1.679 2.495 1.679 1.453 2.489 3.813 1.771 4.741 1.354.148-1.053.569-1.771 1.034-2.178-3.617-.411-7.42-1.809-7.42-8.051 0-1.778.635-3.232 1.677-4.371-.167-.412-.727-2.068.16-4.311 0 0 1.368-.438 4.479 1.67a15.602 15.602 0 0 1 4.078-.548c1.383.006 2.777.187 4.079.548 3.109-2.108 4.475-1.67 4.475-1.67.889 2.243.33 3.899.162 4.311 1.044 1.139 1.674 2.593 1.674 4.371 0 6.258-3.809 7.635-7.438 8.038.586.503 1.106 1.497 1.106 3.017 0 2.178-.021 3.935-.021 4.469 0 .436.294.942 1.121.783 6.467-2.158 11.13-8.26 11.13-15.454 0-8.998-7.294-16.291-16.29-16.291z"/></symbol><symbol id="icon-instagram" viewBox="0 0 503.841 503.841"><path d="M251.92 45.391c67.266 0 75.233.256 101.797 1.468 24.563 1.121 37.901 5.225 46.778 8.674 11.759 4.57 20.151 10.03 28.967 18.845 8.815 8.815 14.274 17.208 18.845 28.966 3.449 8.877 7.554 22.217 8.674 46.778 1.212 26.564 1.469 34.532 1.469 101.798s-.257 75.233-1.469 101.797c-1.12 24.563-5.225 37.901-8.674 46.778-4.57 11.759-10.029 20.151-18.845 28.967s-17.208 14.274-28.967 18.845c-8.877 3.449-22.216 7.554-46.778 8.674-26.56 1.212-34.526 1.469-101.797 1.469s-75.237-.257-101.797-1.469c-24.562-1.12-37.901-5.225-46.778-8.674-11.759-4.57-20.151-10.029-28.966-18.845-8.815-8.815-14.275-17.208-18.845-28.967-3.45-8.877-7.553-22.216-8.674-46.777-1.212-26.564-1.468-34.532-1.468-101.798s.256-75.233 1.468-101.797c1.121-24.562 5.225-37.901 8.674-46.778 4.57-11.759 10.03-20.151 18.845-28.966 8.815-8.815 17.208-14.275 28.966-18.845 8.877-3.45 22.217-7.553 46.778-8.674 26.564-1.213 34.532-1.469 101.797-1.469m0-45.391c-68.417 0-76.997.29-103.866 1.516-26.814 1.224-45.127 5.482-61.151 11.71-16.566 6.438-30.615 15.051-44.621 29.057s-22.619 28.054-29.056 44.62C6.998 102.927 2.74 121.24 1.516 148.054.29 174.924 0 183.502 0 251.92s.29 76.996 1.516 103.866c1.224 26.814 5.482 45.127 11.71 61.151 6.438 16.565 15.051 30.615 29.057 44.621 14.005 14.005 28.055 22.618 44.621 29.057 16.024 6.228 34.337 10.486 61.151 11.709 26.87 1.227 35.449 1.517 103.866 1.517 68.418 0 76.996-.29 103.866-1.517 26.814-1.223 45.127-5.481 61.151-11.709 16.566-6.438 30.615-15.052 44.621-29.057 14.005-14.006 22.618-28.055 29.057-44.621 6.228-16.024 10.486-34.337 11.709-61.151 1.227-26.87 1.517-35.448 1.517-103.866 0-68.417-.29-76.997-1.517-103.866-1.223-26.814-5.481-45.127-11.709-61.151-6.438-16.566-15.052-30.615-29.057-44.621-14.006-14.005-28.055-22.619-44.621-29.057-16.024-6.228-34.337-10.486-61.151-11.71C328.917.29 320.338 0 251.92 0z"/><path d="M251.92 122.556c-71.446 0-129.365 57.918-129.365 129.365s57.918 129.364 129.365 129.364 129.364-57.918 129.364-129.364-57.917-129.365-129.364-129.365zm0 213.338c-46.377 0-83.974-37.597-83.974-83.974s37.596-83.974 83.974-83.974c46.377 0 83.974 37.596 83.974 83.974 0 46.377-37.597 83.974-83.974 83.974z"/><circle cx="386.396" cy="117.445" r="30.23"/></symbol><symbol id="icon-loading" viewBox="149.8 37.8 499.818 525"><path d="M557.8 187.8c13.8 0 24.601-10.8 24.601-24.6S571.6 138.6 557.8 138.6s-24.6 10.8-24.6 24.6c0 13.2 10.8 24.6 24.6 24.6zm61.2 90.6c-16.8 0-30.6 13.8-30.6 30.6s13.8 30.6 30.6 30.6 30.6-13.8 30.6-30.6c.6-16.8-13.2-30.6-30.6-30.6zm-61.2 145.2c-20.399 0-36.6 16.2-36.6 36.601 0 20.399 16.2 36.6 36.6 36.6 20.4 0 36.601-16.2 36.601-36.6C595 439.8 578.2 423.6 557.8 423.6zM409 476.4c-24 0-43.2 19.199-43.2 43.199s19.2 43.2 43.2 43.2 43.2-19.2 43.2-43.2S433 476.4 409 476.4zM260.8 411c-27 0-49.2 22.2-49.2 49.2s22.2 49.2 49.2 49.2 49.2-22.2 49.2-49.2-22.2-49.2-49.2-49.2zm-10.2-102c0-27.6-22.8-50.4-50.4-50.4-27.6 0-50.4 22.8-50.4 50.4 0 27.6 22.8 50.4 50.4 50.4 27.6 0 50.4-22.2 50.4-50.4zm10.2-199.8c-30 0-54 24-54 54s24 54 54 54 54-24 54-54-24.6-54-54-54zM409 37.8c-35.4 0-63.6 28.8-63.6 63.6S374.2 165 409 165s63.6-28.8 63.6-63.6-28.2-63.6-63.6-63.6z"/></symbol><symbol id="icon-mistake" viewBox="0 0 376.07 405.104"><path d="M304.001 131.826a49.27 49.27 0 0 0-.002 1.275c.002-.35.002-.7.002-1.05v-.225zM351.207 279.76c.035-.082.062-.166.094-.248l-.22.52c.042-.094.085-.177.126-.272zM375.617 233.458c.057 8.27.015-.635.002-1.024.001.34-.002.683-.002 1.024z"/><path d="M375.62 232.434c.026-43.733 5.44-90.809-21.995-127.796-11.736 22.154-15.514 46.919-11.087 71.754l-36.661 8.623c-1.297-17.305-2.244-34.541-1.877-51.913-.6 11.431-8.659 58.995-4.595 63.204-1.315.357-36.112 80.668-45.952 93.964-6.001-38.613 9.381-53.76 13.154-94.664 0 0 25.885-4.868 29.919-.648 1.334-2.894-25.645-85.745-25.752-87.285-2.188-11.518-3.472-23.405-4.315-35.435 5.799-.358 11.28-.569 16.618-.589 5.886-.037 10.92.039 14.532.072l6.01.057c.29-.05.864-.402.985-.499 6.591-5.339 2.586-9.865-.103-11.638-.392-.303-.5-.304-.8-.31l-5.975-.053c-3.609-.032-8.678-.107-14.742-.066-5.463.02-11.329.244-17.259.612-.976-20.098-1.134-40.38-2.497-59.824-2.15 14.066-6.333 37.061-10.925 60.822-3.082.27-6.198.563-9.357.893-14.214 1.488-29.148 3.609-44.242 6.358a628.02 628.02 0 0 0-22.698 4.559c-7.602 1.644-15.222 3.623-22.616 5.756a567.95 567.95 0 0 0-8.225 2.448c.436-11.307 1.829-21.115 4.646-27.904 0 0-4.405-15.277-5.865-22.753-3.321 7.214-8.12 16.266-11.852 22.312 1.876 8.163 3.472 18.952 4.796 30.911-8.938 2.822-17.621 5.687-26.02 8.29-6.74 2.095-13.297 4.028-19.633 5.707-6.42 1.683-12.794 3.373-18.809 5.354-4.538 1.485-8.896 3.15-12.975 5.016-.024-6.176.025-12.36.125-18.555.203-12.69.598-25.418.94-38.188.077-3.243.172-6.233.335-9.428.152-3.167.321-6.399.404-9.701.165-6.587-.013-13.529-1.56-20.537l-12.149 2.701c2.439 10.811.773 23.201.549 36.094-.331 12.552-.724 25.141-.933 37.774-.146 8.875-.193 17.772-.075 26.688a80.97 80.97 0 0 0-5.202 3.765l-1.518 1.219-.894.739-1.607 1.364-2.509 2.205-2.082 1.889-3.8 3.996c-2.244 2.387-5.153 5.551-8.047 8.576-2.892 3.033-5.804 5.897-7.975 7.889-2.166 1.996-3.559 3.165-3.234 3.024-2.497 2.234-4.848 4.173-6.69 5.711-1.837 1.543-3.16 2.705-3.464 3.488-.31.77.432 1.195 2.655.896 2.207-.317 5.944-1.41 11.11-4.225 6.207-3.158 12.93-8.163 17.992-12.178l8.666-6.967c.008.026 2.607-2.518 6.98-6.188a475.34 475.34 0 0 0 .818 15.205c.219 3.181.482 6.361.776 9.54l.436 4.651c.126 1.51.241 3.021.328 4.542.364 6.077.437 12.232.399 18.446l-.139 10.837c-.103 6.272-.207 12.623-.133 18.599l.027 2.234.054 2.162c.048 1.417.038 2.946.05 4.431-.004.768.036 1.424.052 2.141l.032 1.054c.018.329.004.758.054.988l.221 1.622.112.804.158.605.317 1.21c.111.363.236.631.354.951.235.671.483 1.103.728 1.594.487.888.992 1.672 1.313 2.221l3.27 5.423.892 1.479.466.773c.164.195.291.814.53.082l2.419-4.842 2.229-4.46c.736-1.473 1.477-2.951 2.236-4.787 1.509-3.543 3.099-8.246 4.57-14.021 1.484-5.761 2.774-12.194 4.208-18.282l.762-3.112.573-2.183c.395-1.441.812-2.862 1.256-4.258l1.468-4.491 1.425-4.558c.931-3.019 1.839-5.999 2.784-8.928l1.068-3.236.557-1.619.271-.771c-.229-.214-.329-.78-.254-1.679.038-.448.119-.98.255-1.59l.112-.471c.018-.064.046-.2.058-.21l.034-.027a.226.226 0 0 1 .17-.024c.288.06.753.536 1.44 1.406l.556.729.312.418c.063.092.089.104.183.265l.288.492c.772 1.312 1.57 2.604 2.396 3.875 3.323 5.055 6.997 9.933 11.55 13.914-3.471-4.946-5.758-10.39-7.692-15.882a99.41 99.41 0 0 1-1.327-4.15l-.152-.521-.228-.703-.484-1.521a95.368 95.368 0 0 1-.954-3.271 72.607 72.607 0 0 1-.91-3.719c-.289-1.355-.568-2.851-.87-4.412l-1.918-10.29a5.643 5.643 0 0 1-1.082.514c-.074.023-.151.056-.214.064l-.1.026-.05.014-.087.123-.708.99-2.818 3.99c-.95 1.364-1.936 2.734-2.968 4.278-1.02 1.577-2.079 3.313-3.111 5.302a112.299 112.299 0 0 0-2.611 6.561l-.865 2.408-.602 1.756-1.27 3.868-1.45 4.623c-.948 3.065-1.868 6.098-2.824 9.06l-.725 2.204c-.255.779-.536 1.614-.778 2.417a116.938 116.938 0 0 0-1.383 4.846l-.718 2.82-.031.11c-.035.128-.041-.042-.033-.095l.078-5.631c.065-6.435.043-12.937-.277-19.494a193.163 193.163 0 0 0-.726-9.842c-.306-3.123-.57-6.253-.809-9.387a480.597 480.597 0 0 1-1.009-18.857c-.065-1.883-.102-3.769-.148-5.653 4.021-2.175 8.525-4.134 13.455-5.883 5.588-1.991 11.718-3.714 18.236-5.428 6.611-1.703 13.558-3.688 20.521-5.829 8.608-2.633 17.383-5.516 26.282-8.345 3.596 39.833 4.468 86.436 2.77 93.872-2.419 10.591-38.109 35.191-38.126 35.202l.002-.018a71.265 71.265 0 0 0-.562 1.203c-.393.835 38.819-1.504 44.677-3.879 13.558 65.158 41.211 121.726 65.671 182.698 22.031-37.725 4.467-86.898 22.456-126.203.715 4.519 17.744 45.393 20.594 48.646 11.631-32.345 39.775-63.001 42.988-97.655-3.377 73.808 77.686 103.954 76.996 3.565-.001-.838 0-1.102.003-1.022zM209.124 357.469a438.681 438.681 0 0 0-8.157-14.764c-20.401-38.021-30.924-81.836-39.562-123.708l58.835-13.839c-15.053 52.674-1.308 101.037-11.116 152.311zm23.672-209.111a692.206 692.206 0 0 0-4.296 5.475c4.736-11.825 9.282-54.769.356-58.012-1.886 20.844-3.143 41.801-4.011 62.746-3.756 4.889-6.86 8.964-9.72 12.384-13.491 10.13-32.418 14.753-24.791 14.012-.338.038-.415.048.469-.049 1.069-.122.742-.087.234-.03 3.691-.446 8.395-1.612 13.115-3.459-9.055 6.098-20.967 7.986-47.845 10.374-.204-1.166-10.538-55.31-11.261-97.939a624.849 624.849 0 0 1 9.887-2.992c7.344-2.149 14.73-4.113 22.195-5.762a617.981 617.981 0 0 1 22.607-4.593c15.029-2.762 29.879-4.893 43.979-6.379 2.054-.216 4.086-.414 6.106-.604-8.206 41.639-16.785 81.187-17.024 74.828zM351.207 279.76c-.244.559-.231.523-.125.271-17.618 39.681-42.164-58.148-42.796-67.268 11.716 12.868 50.834 47.225 43.016 66.748.341-.8.756-1.761-.095.249zm5.553-82.228l-.019-.643c-.004.006.021.229.069.644l-.05-.001z"/></symbol><symbol id="icon-paypal" viewBox="12.057 0 411.391 435.504"><path d="M403.497 101.917c-4.105-5.073-8.877-9.705-14.166-13.839.707 13.117-.508 27.092-3.668 41.884-8.627 40.413-29.256 74.754-59.656 99.304-30.375 24.533-68.305 37.502-109.687 37.502h-60.344l-19.533 91.512c-3.836 17.959-19.943 30.99-38.303 30.99H70.938l-4.898 22.484a19.583 19.583 0 0 0 19.137 23.75h66.498c9.24 0 17.225-6.459 19.152-15.494L193.667 313h76.188c36.854 0 70.526-11.465 97.384-33.152 26.869-21.697 45.129-52.186 52.807-88.162 7.777-36.377 2.206-66.58-16.549-89.769z"/><path d="M117.292 354.192l22.84-107.009h76.188c36.853 0 70.527-11.466 97.384-33.154 26.866-21.697 45.129-52.186 52.809-88.161 7.773-36.378 2.207-66.58-16.553-89.769C331.952 13.832 301.17 0 269.633 0H103.639a19.585 19.585 0 0 0-19.135 15.414L12.505 345.938a19.583 19.583 0 0 0 19.135 23.748h66.5c9.24.002 17.22-6.457 19.152-15.494zm60.943-278.901h52.229c12.287 0 23.275 5.149 30.146 14.129 7.298 9.539 9.431 22.729 5.853 36.188-.047.171-.088.342-.131.516-6.57 27.73-33.892 50.291-60.897 50.291h-50.05l22.85-101.124z"/></symbol><symbol id="icon-stopwatch" viewBox="391.375 216.374 17.25 17.25"><path d="M400.957 222.124v3.833c0 .53-.427.957-.957.957s-.957-.426-.957-.957v-3.833h1.914z"/><path d="M407.605 225a7.664 7.664 0 0 1-6.648 8.562 7.664 7.664 0 0 1-8.562-6.649 7.664 7.664 0 0 1 6.648-8.562v-1.978h1.914v1.978c1.144.08 2.88.797 3.744 1.549l1.398-1.398 1.355 1.355-1.398 1.398c.752.866 1.469 2.601 1.549 3.745zm-1.855.958a5.748 5.748 0 0 0-5.75-5.75 5.748 5.748 0 0 0-5.75 5.75 5.748 5.748 0 0 0 5.75 5.75 5.749 5.749 0 0 0 5.75-5.75z"/></symbol><symbol id="icon-twitter" viewBox="364.771 6.607 21.207 17.25"><path d="M385.979 8.642s-.828 1.34-2.168 2.247c.275 6.149-4.218 12.969-12.377 12.969-4.059 0-6.662-1.971-6.662-1.971s3.194.67 6.426-1.774c-3.271-.197-4.061-3.034-4.061-3.034s.906.236 1.971-.08c-3.666-.906-3.507-4.335-3.507-4.335s.906.552 1.97.552c-3.311-2.562-1.34-5.833-1.34-5.833s2.995 4.217 8.987 4.572c-.867-4.769 4.612-6.977 7.411-3.98 1.458-.237 2.798-1.065 2.798-1.065s-.473 1.617-1.931 2.405c1.181-.082 2.483-.673 2.483-.673z"/></symbol></svg>