<?xml version="1.0" encoding="utf-8"?>
<!-- Generator: Adobe Illustrator 19.2.1, SVG Export Plug-In . SVG Version: 6.00 Build 0)  -->
<svg version="1.1" id="Layer_1" xmlns="http://www.w3.org/2000/svg" xmlns:xlink="http://www.w3.org/1999/xlink" x="0px" y="0px"
	 viewBox="0 0 16 16" style="enable-background:new 0 0 16 16;" xml:space="preserve">
<style type="text/css">
	.st0{fill:none;}
</style>
<g>
	<rect x="3.7" y="6.8" width="1.7" height="1.4"/>
	<rect x="7.1" y="6.8" width="1.7" height="1.4"/>
	<rect x="10.4" y="6.8" width="1.7" height="1.4"/>
	<rect x="3.7" y="9.3" width="1.7" height="1.4"/>
	<rect x="7.1" y="9.3" width="1.7" height="1.4"/>
	<rect x="10.4" y="9.3" width="1.7" height="1.4"/>
	<rect x="3.7" y="11.8" width="1.7" height="1.4"/>
	<rect x="7.1" y="11.8" width="1.7" height="1.4"/>
	<rect x="10.4" y="11.8" width="1.7" height="1.4"/>
	<g>
		<rect x="7.1" y="11.8" class="st0" width="1.7" height="1.4"/>
		<rect x="3.7" y="6.8" class="st0" width="1.7" height="1.4"/>
		<rect x="7.1" y="9.3" class="st0" width="1.7" height="1.4"/>
		<rect x="3.7" y="9.3" class="st0" width="1.7" height="1.4"/>
		<polygon class="st0" points="14,2.3 11.5,2.3 11.5,3.1 10.2,3.1 10.2,2.3 5.5,2.3 5.5,3.1 4.2,3.1 4.2,2.3 1.7,2.3 1.7,4.6 
			14,4.6 		"/>
		<rect x="7.1" y="6.8" class="st0" width="1.7" height="1.4"/>
		<rect x="3.7" y="11.8" class="st0" width="1.7" height="1.4"/>
		<rect x="10.4" y="11.8" class="st0" width="1.7" height="1.4"/>
		<rect x="10.4" y="6.8" class="st0" width="1.7" height="1.4"/>
		<rect x="10.4" y="9.3" class="st0" width="1.7" height="1.4"/>
		<path class="st0" d="M5.4,13.2H3.7v-1.4h1.7V13.2z M5.4,10.7H3.7V9.3h1.7V10.7z M5.4,8.2H3.7V6.8h1.7V8.2z M8.8,13.2H7.1v-1.4h1.7
			V13.2z M8.8,10.7H7.1V9.3h1.7V10.7z M8.8,8.2H7.1V6.8h1.7V8.2z M12.2,13.2h-1.7v-1.4h1.7V13.2z M12.2,10.7h-1.7V9.3h1.7V10.7z
			 M12.2,8.2h-1.7V6.8h1.7V8.2z"/>
		<path d="M11.7,1.1V0h-1.3v1.1H5.7V0H4.4v1.1H0.6V16h14.9V1.1H11.7z M1.7,2.3h2.5v0.8h1.3V2.3h4.7v0.8h1.3V2.3h2.6v2.3H1.7V2.3z
			 M14.2,14.7H1.7V5.9h12.4V14.7z"/>
	</g>
</g>
</svg>
