<?xml version="1.0" encoding="utf-8"?>
<!-- Generator: Adobe Illustrator 15.1.0, SVG Export Plug-In . SVG Version: 6.00 Build 0)  -->
<!DOCTYPE svg PUBLIC "-//W3C//DTD SVG 1.1//EN" "http://www.w3.org/Graphics/SVG/1.1/DTD/svg11.dtd">
<svg version="1.1" id="Layer_1" xmlns="http://www.w3.org/2000/svg" xmlns:xlink="http://www.w3.org/1999/xlink" x="0px" y="0px"
	 width="320px" height="320px" viewBox="227 -6.666 320 320" enable-background="new 227 -6.666 320 320" xml:space="preserve">
<g>
	<path d="M520.28,293.334H253.72c-14.733,0-26.72-11.987-26.72-26.721V40.053c0-14.733,11.987-26.72,26.72-26.72h95.893
		c11.173,0,21.547,5.546,27.747,14.84l14.787,22.187c1.24,1.867,3.32,2.974,5.573,2.974H520.28c14.733,0,26.72,11.986,26.72,26.72
		v186.56C547,281.347,535.014,293.334,520.28,293.334L520.28,293.334z M253.72,40l-0.054,226.613l266.64,0.053l0.026-186.613
		L397.72,80c-11.173,0-21.56-5.56-27.76-14.854l-14.773-22.173c-1.24-1.867-3.333-2.973-5.573-2.973H253.72z M533.667,133.333
		H240.333c-7.36,0-13.333-5.974-13.333-13.333s5.973-13.333,13.333-13.333h293.333C541.04,106.667,547,112.64,547,120
		S541.04,133.333,533.667,133.333z M427,213.334h-80c-7.36,0-13.333-5.961-13.333-13.334c0-7.374,5.974-13.333,13.333-13.333h80
		c7.373,0,13.333,5.96,13.333,13.333C440.333,207.373,434.373,213.334,427,213.334z"/>
</g>
</svg>
