<?xml version="1.0" encoding="utf-8"?>
<!-- Generator: Adobe Illustrator 15.1.0, SVG Export Plug-In . SVG Version: 6.00 Build 0)  -->
<!DOCTYPE svg PUBLIC "-//W3C//DTD SVG 1.1//EN" "http://www.w3.org/Graphics/SVG/1.1/DTD/svg11.dtd">
<svg version="1.1" id="Layer_1" xmlns="http://www.w3.org/2000/svg" xmlns:xlink="http://www.w3.org/1999/xlink" x="0px" y="0px"
	 width="32.579px" height="32.58px" viewBox="0 0 32.579 32.58" enable-background="new 0 0 32.579 32.58" xml:space="preserve">
<path fill-rule="evenodd" clip-rule="evenodd" d="M16.289,0.402C7.294,0.402,0,7.695,0,16.693c0,7.196,4.667,13.302,11.141,15.456
	c0.814,0.149,1.112-0.354,1.112-0.785c0-0.387-0.014-1.411-0.022-2.771c-4.531,0.984-5.487-2.184-5.487-2.184
	c-0.741-1.882-1.809-2.383-1.809-2.383c-1.479-1.011,0.112-0.99,0.112-0.99c1.635,0.115,2.495,1.679,2.495,1.679
	c1.453,2.489,3.813,1.771,4.741,1.354c0.148-1.053,0.569-1.771,1.034-2.178c-3.617-0.411-7.42-1.809-7.42-8.051
	c0-1.778,0.635-3.232,1.677-4.371c-0.167-0.412-0.727-2.068,0.16-4.311c0,0,1.368-0.438,4.479,1.67
	c1.299-0.361,2.693-0.542,4.078-0.548c1.383,0.006,2.777,0.187,4.079,0.548c3.109-2.108,4.475-1.67,4.475-1.67
	c0.889,2.243,0.33,3.899,0.162,4.311c1.044,1.139,1.674,2.593,1.674,4.371c0,6.258-3.809,7.635-7.438,8.038
	c0.586,0.503,1.106,1.497,1.106,3.017c0,2.178-0.021,3.935-0.021,4.469c0,0.436,0.294,0.942,1.121,0.783
	c6.467-2.158,11.13-8.26,11.13-15.454C32.579,7.695,25.285,0.402,16.289,0.402z"/>
</svg>
