<?xml version="1.0" encoding="utf-8"?>
<!-- Generator: Adobe Illustrator 15.1.0, SVG Export Plug-In . SVG Version: 6.00 Build 0)  -->
<!DOCTYPE svg PUBLIC "-//W3C//DTD SVG 1.1//EN" "http://www.w3.org/Graphics/SVG/1.1/DTD/svg11.dtd">
<svg version="1.1" id="Logo" xmlns="http://www.w3.org/2000/svg" xmlns:xlink="http://www.w3.org/1999/xlink" x="0px" y="0px"
	 width="503.841px" height="503.841px" viewBox="0 0 503.841 503.841" enable-background="new 0 0 503.841 503.841"
	 xml:space="preserve">
<g>
	<path d="M251.92,45.391c67.266,0,75.233,0.256,101.797,1.468c24.563,1.121,37.901,5.225,46.778,8.674
		c11.759,4.57,20.151,10.03,28.967,18.845c8.815,8.815,14.274,17.208,18.845,28.966c3.449,8.877,7.554,22.217,8.674,46.778
		c1.212,26.564,1.469,34.532,1.469,101.798s-0.257,75.233-1.469,101.797c-1.12,24.563-5.225,37.901-8.674,46.778
		c-4.57,11.759-10.029,20.151-18.845,28.967s-17.208,14.274-28.967,18.845c-8.877,3.449-22.216,7.554-46.778,8.674
		c-26.56,1.212-34.526,1.469-101.797,1.469s-75.237-0.257-101.797-1.469c-24.562-1.12-37.901-5.225-46.778-8.674
		c-11.759-4.57-20.151-10.029-28.966-18.845c-8.815-8.815-14.275-17.208-18.845-28.967c-3.45-8.877-7.553-22.216-8.674-46.777
		c-1.212-26.564-1.468-34.532-1.468-101.798s0.256-75.233,1.468-101.797c1.121-24.562,5.225-37.901,8.674-46.778
		c4.57-11.759,10.03-20.151,18.845-28.966c8.815-8.815,17.208-14.275,28.966-18.845c8.877-3.45,22.217-7.553,46.778-8.674
		C176.687,45.647,184.655,45.391,251.92,45.391 M251.92,0c-68.417,0-76.997,0.29-103.866,1.516
		c-26.814,1.224-45.127,5.482-61.151,11.71c-16.566,6.438-30.615,15.051-44.621,29.057S19.663,70.337,13.226,86.903
		c-6.228,16.024-10.486,34.337-11.71,61.151C0.29,174.924,0,183.502,0,251.92s0.29,76.996,1.516,103.866
		c1.224,26.814,5.482,45.127,11.71,61.151c6.438,16.565,15.051,30.615,29.057,44.621c14.005,14.005,28.055,22.618,44.621,29.057
		c16.024,6.228,34.337,10.486,61.151,11.709c26.87,1.227,35.449,1.517,103.866,1.517c68.418,0,76.996-0.29,103.866-1.517
		c26.814-1.223,45.127-5.481,61.151-11.709c16.566-6.438,30.615-15.052,44.621-29.057c14.005-14.006,22.618-28.055,29.057-44.621
		c6.228-16.024,10.486-34.337,11.709-61.151c1.227-26.87,1.517-35.448,1.517-103.866c0-68.417-0.29-76.997-1.517-103.866
		c-1.223-26.814-5.481-45.127-11.709-61.151c-6.438-16.566-15.052-30.615-29.057-44.621c-14.006-14.005-28.055-22.619-44.621-29.057
		c-16.024-6.228-34.337-10.486-61.151-11.71C328.917,0.29,320.338,0,251.92,0L251.92,0z"/>
	<path d="M251.92,122.556c-71.446,0-129.365,57.918-129.365,129.365s57.918,129.364,129.365,129.364s129.364-57.918,129.364-129.364
		S323.367,122.556,251.92,122.556z M251.92,335.894c-46.377,0-83.974-37.597-83.974-83.974c0-46.377,37.596-83.974,83.974-83.974
		c46.377,0,83.974,37.596,83.974,83.974C335.894,298.297,298.297,335.894,251.92,335.894z"/>
	<circle cx="386.396" cy="117.445" r="30.23"/>
</g>
</svg>
