<?xml version="1.0" encoding="utf-8"?>
<!-- Generator: Adobe Illustrator 15.1.0, SVG Export Plug-In . SVG Version: 6.00 Build 0)  -->
<!DOCTYPE svg PUBLIC "-//W3C//DTD SVG 1.1//EN" "http://www.w3.org/Graphics/SVG/1.1/DTD/svg11.dtd">
<svg version="1.1" id="Layer_1" xmlns="http://www.w3.org/2000/svg" xmlns:xlink="http://www.w3.org/1999/xlink" x="0px" y="0px"
	 width="376.07px" height="405.104px" viewBox="0 0 376.07 405.104" enable-background="new 0 0 376.07 405.104"
	 xml:space="preserve">
<g>
	<path d="M304.001,131.826c-0.006,0.425-0.007,0.851-0.002,1.275c0.002-0.35,0.002-0.7,0.002-1.05V131.826z"/>
	<path d="M351.207,279.76c0.035-0.082,0.062-0.166,0.094-0.248c-0.086,0.203-0.165,0.388-0.22,0.52
		C351.123,279.938,351.166,279.855,351.207,279.76z"/>
	<path d="M375.617,233.458c0.057,8.27,0.015-0.635,0.002-1.024C375.62,232.774,375.617,233.117,375.617,233.458z"/>
	<path d="M375.62,232.434c0.026-43.733,5.44-90.809-21.995-127.796c-11.736,22.154-15.514,46.919-11.087,71.754l-36.661,8.623
		c-1.297-17.305-2.244-34.541-1.877-51.913c-0.6,11.431-8.659,58.995-4.595,63.204c-1.315,0.357-36.112,80.668-45.952,93.964
		c-6.001-38.613,9.381-53.76,13.154-94.664c0,0,25.885-4.868,29.919-0.648c1.334-2.894-25.645-85.745-25.752-87.285
		c-2.188-11.518-3.472-23.405-4.315-35.435c5.799-0.358,11.28-0.569,16.618-0.589c5.886-0.037,10.92,0.039,14.532,0.072l6.01,0.057
		c0.29-0.05,0.864-0.402,0.985-0.499c6.591-5.339,2.586-9.865-0.103-11.638c-0.392-0.303-0.5-0.304-0.8-0.31l-5.975-0.053
		c-3.609-0.032-8.678-0.107-14.742-0.066c-5.463,0.02-11.329,0.244-17.259,0.612c-0.976-20.098-1.134-40.38-2.497-59.824
		c-2.15,14.066-6.333,37.061-10.925,60.822c-3.082,0.27-6.198,0.563-9.357,0.893c-14.214,1.488-29.148,3.609-44.242,6.358
		c-7.548,1.371-15.136,2.895-22.698,4.559c-7.602,1.644-15.222,3.623-22.616,5.756c-2.766,0.797-5.503,1.619-8.225,2.448
		c0.436-11.307,1.829-21.115,4.646-27.904c0,0-4.405-15.277-5.865-22.753c-3.321,7.214-8.12,16.266-11.852,22.312
		c1.876,8.163,3.472,18.952,4.796,30.911c-8.938,2.822-17.621,5.687-26.02,8.29c-6.74,2.095-13.297,4.028-19.633,5.707
		c-6.42,1.683-12.794,3.373-18.809,5.354c-4.538,1.485-8.896,3.15-12.975,5.016c-0.024-6.176,0.025-12.36,0.125-18.555
		c0.203-12.69,0.598-25.418,0.94-38.188c0.077-3.243,0.172-6.233,0.335-9.428c0.152-3.167,0.321-6.399,0.404-9.701
		c0.165-6.587-0.013-13.529-1.56-20.537l-12.149,2.701c2.439,10.811,0.773,23.201,0.549,36.094
		c-0.331,12.552-0.724,25.141-0.933,37.774c-0.146,8.875-0.193,17.772-0.075,26.688c-1.844,1.229-3.584,2.49-5.202,3.765
		l-1.518,1.219l-0.894,0.739l-1.607,1.364l-2.509,2.205l-2.082,1.889l-3.8,3.996c-2.244,2.387-5.153,5.551-8.047,8.576
		c-2.892,3.033-5.804,5.897-7.975,7.889c-2.166,1.996-3.559,3.165-3.234,3.024c-2.497,2.234-4.848,4.173-6.69,5.711
		c-1.837,1.543-3.16,2.705-3.464,3.488c-0.31,0.77,0.432,1.195,2.655,0.896c2.207-0.317,5.944-1.41,11.11-4.225
		c6.207-3.158,12.93-8.163,17.992-12.178l8.666-6.967c0.008,0.026,2.607-2.518,6.98-6.188c0.197,5.066,0.458,10.136,0.818,15.205
		c0.219,3.181,0.482,6.361,0.776,9.54l0.436,4.651c0.126,1.51,0.241,3.021,0.328,4.542c0.364,6.077,0.437,12.232,0.399,18.446
		l-0.139,10.837c-0.103,6.272-0.207,12.623-0.133,18.599l0.027,2.234l0.054,2.162c0.048,1.417,0.038,2.946,0.05,4.431
		c-0.004,0.768,0.036,1.424,0.052,2.141l0.032,1.054c0.018,0.329,0.004,0.758,0.054,0.988l0.221,1.622l0.112,0.804l0.158,0.605
		l0.317,1.21c0.111,0.363,0.236,0.631,0.354,0.951c0.235,0.671,0.483,1.103,0.728,1.594c0.487,0.888,0.992,1.672,1.313,2.221
		l3.27,5.423l0.892,1.479l0.466,0.773c0.164,0.195,0.291,0.814,0.53,0.082l2.419-4.842l2.229-4.46
		c0.736-1.473,1.477-2.951,2.236-4.787c1.509-3.543,3.099-8.246,4.57-14.021c1.484-5.761,2.774-12.194,4.208-18.282l0.762-3.112
		l0.573-2.183c0.395-1.441,0.812-2.862,1.256-4.258l1.468-4.491l1.425-4.558c0.931-3.019,1.839-5.999,2.784-8.928l1.068-3.236
		l0.557-1.619l0.271-0.771c-0.229-0.214-0.329-0.78-0.254-1.679c0.038-0.448,0.119-0.98,0.255-1.59l0.112-0.471
		c0.018-0.064,0.046-0.2,0.058-0.21l0.034-0.027c0.048-0.029,0.104-0.038,0.17-0.024c0.288,0.06,0.753,0.536,1.44,1.406L86.782,160
		l0.312,0.418c0.063,0.092,0.089,0.104,0.183,0.265l0.288,0.492c0.772,1.312,1.57,2.604,2.396,3.875
		c3.323,5.055,6.997,9.933,11.55,13.914c-3.471-4.946-5.758-10.39-7.692-15.882c-0.474-1.377-0.916-2.761-1.327-4.15l-0.152-0.521
		l-0.228-0.703l-0.484-1.521c-0.322-1.037-0.641-2.12-0.954-3.271c-0.312-1.153-0.619-2.369-0.91-3.719
		c-0.289-1.355-0.568-2.851-0.87-4.412l-1.918-10.29c-0.432,0.258-0.783,0.412-1.082,0.514c-0.074,0.023-0.151,0.056-0.214,0.064
		l-0.1,0.026l-0.05,0.014l-0.087,0.123l-0.708,0.99l-2.818,3.99c-0.95,1.364-1.936,2.734-2.968,4.278
		c-1.02,1.577-2.079,3.313-3.111,5.302c-0.918,2.111-1.799,4.316-2.611,6.561l-0.865,2.408l-0.602,1.756l-1.27,3.868l-1.45,4.623
		c-0.948,3.065-1.868,6.098-2.824,9.06l-0.725,2.204c-0.255,0.779-0.536,1.614-0.778,2.417c-0.501,1.621-0.961,3.238-1.383,4.846
		l-0.718,2.82l-0.031,0.11c-0.035,0.128-0.041-0.042-0.033-0.095l0.078-5.631c0.065-6.435,0.043-12.937-0.277-19.494
		c-0.161-3.267-0.398-6.596-0.726-9.842c-0.306-3.123-0.57-6.253-0.809-9.387c-0.46-6.269-0.795-12.556-1.009-18.857
		c-0.065-1.883-0.102-3.769-0.148-5.653c4.021-2.175,8.525-4.134,13.455-5.883c5.588-1.991,11.718-3.714,18.236-5.428
		c6.611-1.703,13.558-3.688,20.521-5.829c8.608-2.633,17.383-5.516,26.282-8.345c3.596,39.833,4.468,86.436,2.77,93.872
		c-2.419,10.591-38.109,35.191-38.126,35.202l0.002-0.018c-0.193,0.396-0.563,1.204-0.562,1.203
		c-0.393,0.835,38.819-1.504,44.677-3.879c13.558,65.158,41.211,121.726,65.671,182.698c22.031-37.725,4.467-86.898,22.456-126.203
		c0.715,4.519,17.744,45.393,20.594,48.646c11.631-32.345,39.775-63.001,42.988-97.655c-3.377,73.808,77.686,103.954,76.996,3.565
		C375.616,232.618,375.617,232.354,375.62,232.434z M209.124,357.469c-2.625-4.974-5.343-9.895-8.157-14.764
		c-20.401-38.021-30.924-81.836-39.562-123.708l58.835-13.839C205.187,257.832,218.932,306.195,209.124,357.469z M232.796,148.358
		c-1.523,1.92-2.947,3.739-4.296,5.475c4.736-11.825,9.282-54.769,0.356-58.012c-1.886,20.844-3.143,41.801-4.011,62.746
		c-3.756,4.889-6.86,8.964-9.72,12.384c-13.491,10.13-32.418,14.753-24.791,14.012c-0.338,0.038-0.415,0.048,0.469-0.049
		c1.069-0.122,0.742-0.087,0.234-0.03c3.691-0.446,8.395-1.612,13.115-3.459c-9.055,6.098-20.967,7.986-47.845,10.374
		c-0.204-1.166-10.538-55.31-11.261-97.939c3.282-1.02,6.577-2.023,9.887-2.992c7.344-2.149,14.73-4.113,22.195-5.762
		c7.534-1.678,15.093-3.212,22.607-4.593c15.029-2.762,29.879-4.893,43.979-6.379c2.054-0.216,4.086-0.414,6.106-0.604
		C241.614,115.169,233.035,154.717,232.796,148.358z M351.207,279.76c-0.244,0.559-0.231,0.523-0.125,0.271
		c-17.618,39.681-42.164-58.148-42.796-67.268c11.716,12.868,50.834,47.225,43.016,66.748
		C351.643,278.711,352.058,277.75,351.207,279.76z M356.76,197.532l-0.019-0.643c-0.004,0.006,0.021,0.229,0.069,0.644
		L356.76,197.532z"/>
</g>
</svg>
