<?xml version="1.0" encoding="utf-8"?>
<!-- Generator: Adobe Illustrator 19.2.1, SVG Export Plug-In . SVG Version: 6.00 Build 0)  -->
<svg version="1.1" id="Layer_1" xmlns="http://www.w3.org/2000/svg" xmlns:xlink="http://www.w3.org/1999/xlink" x="0px" y="0px"
	 viewBox="0 0 16 16" style="enable-background:new 0 0 16 16;" xml:space="preserve">
<polygon points="3,11 3,11 4,11 4,7 2,7 2,5 3.2,5 3.3,5 5,5 5,7 7,7 7,11 8.5,11 9,11 9,11 10,11 10,7 8,7 8,5.1 8,5 9.6,5 11,5 
	11,7 13,7 13,11 14.9,11 16,11 16,11 16,11 16,7 15,7 15,5 16,5 16,0 11,0 11,2 10,2 10,0 5,0 5,2 3,2 3,0 0,0 0,5 0,7 0,7 0,11 
	0,11 0,11 2.1,11 "/>
<polygon points="0,13.7 0,16 3,16 3,14 2,14 2,12 0,12 "/>
<polygon points="11.6,12 11,12 11,14 13,14 13,16 16,16 16,14 14,14 14,12 "/>
<polygon points="5,12 5,14 6,14 6,16 10,16 10,14 8,14 8,12 5.3,12 "/>
</svg>
