<svg style="display: none;"><defs><path id="deal-with-it-a" d="M300-502h600V98H300z"/><path id="smile-a" d="M300-502h600V98H300z"/><path id="wink-a" d="M300-502h600V98H300z"/></defs><symbol viewBox="0 1.577 35.418 32.265" id="icon-amazon"><title>amazon</title><path d="M20.948 9.89c-.857.07-1.847.137-2.837.27-1.515.195-3.03.46-4.283 1.053-2.44.994-4.088 3.105-4.088 6.21 0 3.897 2.505 5.874 5.668 5.874 1.057 0 1.913-.13 2.703-.328 1.256-.397 2.31-1.124 3.563-2.442.728.99.923 1.453 2.177 2.51.33.133.658.133.922-.066.79-.658 2.174-1.848 2.9-2.508.33-.268.264-.66.067-.992-.73-.924-1.45-1.718-1.45-3.498V10.03c0-2.513.194-4.822-1.647-6.537-1.52-1.39-3.892-1.916-5.735-1.916h-.792c-3.362.197-6.92 1.647-7.714 5.81-.13.526.267.727.53.794l3.69.465c.397-.07.594-.398.66-.73.332-1.45 1.517-2.176 2.835-2.31h.265c.79 0 1.646.333 2.11.988.522.795.46 1.853.46 2.775l-.004.523zm-.725 7.86c-.46.924-1.252 1.518-2.11 1.717-.13 0-.327.068-.526.068-1.45 0-2.31-1.123-2.31-2.775 0-2.11 1.254-3.104 2.836-3.565.858-.197 1.847-.265 2.836-.265v.793c-.002 1.52.06 2.707-.727 4.026zm15.195 9.168v.215c-.035 1.29-.716 3.768-2.328 5.13-.322.25-.645.108-.503-.253.47-1.145 1.54-3.803 1.04-4.412-.355-.465-1.826-.43-3.08-.322-.57.072-1.074.105-1.468.184-.357.033-.432-.287-.072-.537.467-.322.97-.572 1.54-.756 2.04-.607 4.407-.25 4.73.146.07.1.14.316.14.605zm-3.402 2.51c-.466.357-.965.682-1.468.973-3.76 2.263-8.63 3.442-12.856 3.442-6.807 0-12.895-2.512-17.514-6.71-.396-.323-.073-.788.393-.538C5.55 29.5 11.71 31.26 18.085 31.26c4.014 0 8.342-.754 12.463-2.37.285-.105.607-.253.895-.356.645-.292 1.22.43.574.894z"/></symbol><symbol viewBox="0 0 60.801 60.801" id="icon-comments"><title>comments</title><path fill-rule="evenodd" clip-rule="evenodd" d="M19 34.194h26.605v-7.588h-30.41v7.588H19zm26.605-19h-30.41V22.8h30.41v-7.61zM60.8 7.606V3.804C60.8 1.704 59.095 0 56.998 0H3.804C1.704 0 0 1.705 0 3.804v41.802c0 2.097 1.705 3.78 3.804 3.78h28.498L49.392 60.8V49.387h7.605c2.097 0 3.804-1.684 3.804-3.78v-38zm-7.607 34.195h-11.39v5.696l-9.5-5.696H7.608V7.607h45.583v34.195zm0 0"/></symbol><symbol viewBox="450 0 600 600" id="icon-deal-with-it"><title>deal-with-it</title><g transform="matrix(1.25 0 0 -1.25 0 47.5)"><clipPath id="deal-with-it-b"><use xlink:href="#deal-with-it-a" overflow="visible"/></clipPath><g clip-path="url(#deal-with-it-b)"><path fill="#FFCC4D" d="M814.737-202c0-118.598-96.14-214.737-214.737-214.737S385.263-320.597 385.263-202c0 118.598 96.14 214.737 214.737 214.737S814.737-83.403 814.737-202"/><path fill="#292F33" d="M388.297-113.802c3.032-3.02 18.152-12.1 21.184-21.158 3.032-9.057 9.096-60.43 27.26-75.55 18.745-15.575 89.394-9.777 102.935-3.03 30.278 15.094 33.99 57.232 39.348 78.58 3.02 12.088 21.183 12.088 21.183 12.088s18.177 0 21.196-12.076c5.355-21.36 9.095-63.5 39.347-78.58 13.553-6.76 84.2-12.557 102.972 3.018 18.127 15.12 24.19 66.493 27.22 75.562 3.007 9.057 18.153 18.126 21.185 21.145 3.044 3.02 3.044 15.107 0 18.14-6.05 6.037-77.483 11.418-154.396 3.018-15.347-1.68-21.183-6.05-57.523-6.05-36.316 0-42.177 4.37-57.512 6.038-76.888 8.412-148.345 3.032-154.396-3.007-3.022-3.03-3.022-15.12-.003-18.138"/><path fill="#664500" d="M717.916-273.102c-2.248 2.034-5.608 2.16-8.02.366-.493-.366-49.542-36.63-109.896-36.63-60.202 0-109.415 36.265-109.895 36.63-2.413 1.794-5.773 1.642-8.02-.366-2.237-2.02-2.742-5.356-1.19-7.933 1.63-2.716 40.637-66.227 119.104-66.227S717.484-283.75 719.1-281.035c1.555 2.59 1.062 5.912-1.186 7.933"/></g></g></symbol><symbol viewBox="0 0 60.734 60.733" id="icon-facebook"><title>facebook</title><path d="M57.378 0H3.352C1.502 0 0 1.5 0 3.354V57.38c0 1.852 1.502 3.353 3.352 3.353h29.086v-23.52h-7.914v-9.166h7.914v-6.76c0-7.843 4.79-12.116 11.787-12.116 3.355 0 6.232.252 7.07.36v8.2h-4.853c-3.805 0-4.54 1.81-4.54 4.463v5.85h9.08l-1.188 9.167h-7.892v23.52h15.475c1.852 0 3.355-1.503 3.355-3.35V3.35C60.732 1.5 59.23 0 57.378 0z"/></symbol><symbol viewBox="12.057 0 411.391 435.504" id="icon-paypal"><title>paypal</title><path d="M403.497 101.917c-4.105-5.073-8.877-9.705-14.166-13.84.708 13.118-.507 27.093-3.667 41.885-8.627 40.413-29.256 74.754-59.656 99.304-30.375 24.533-68.305 37.502-109.687 37.502h-60.344l-19.533 91.512c-3.836 17.96-19.943 30.99-38.303 30.99H70.938l-4.898 22.484c-1.258 5.79.17 11.838 3.887 16.453 3.715 4.613 9.324 7.297 15.25 7.297h66.498c9.24 0 17.225-6.46 19.152-15.494L193.667 313h76.188c36.854 0 70.526-11.465 97.384-33.152 26.868-21.697 45.128-52.186 52.806-88.162 7.777-36.377 2.206-66.58-16.55-89.77zM117.292 354.192l22.84-107.01h76.188c36.853 0 70.527-11.465 97.384-33.153 26.866-21.698 45.13-52.187 52.81-88.162 7.772-36.378 2.206-66.58-16.554-89.77C331.952 13.833 301.17 0 269.633 0H103.64c-9.21 0-17.175 6.417-19.136 15.414l-72 330.524c-1.26 5.79.17 11.838 3.888 16.453 3.713 4.614 9.32 7.296 15.248 7.296h66.5c9.24.002 17.22-6.457 19.152-15.494zm60.943-278.9h52.23c12.286 0 23.274 5.148 30.145 14.128 7.298 9.54 9.43 22.73 5.853 36.188-.047.17-.088.342-.13.516-6.57 27.73-33.893 50.29-60.898 50.29h-50.05l22.85-101.123z"/></symbol><symbol viewBox="450 0 600 600" id="icon-smile"><title>smile</title><g transform="matrix(1.25 0 0 -1.25 0 47.5)"><clipPath id="smile-b"><use xlink:href="#smile-a" overflow="visible"/></clipPath><g clip-path="url(#smile-b)"><path fill="#FFCC4D" d="M814.737-202c0-118.598-96.14-214.737-214.737-214.737S385.263-320.597 385.263-202c0 118.598 96.14 214.737 214.737 214.737S814.737-83.403 814.737-202"/><path fill="#664500" d="M600-239.895c-45.764 0-76.13 5.33-113.684 12.63-8.577 1.656-25.263 0-25.263-25.262 0-50.526 58.042-113.684 138.948-113.684 80.894 0 138.95 63.158 138.95 113.683 0 25.263-16.688 26.93-25.264 25.263-37.556-7.3-67.922-12.63-113.686-12.63"/><path fill="#664500" d="M498.948-138.842s0 25.263 25.263 25.263c25.264 0 25.264-25.262 25.264-25.262v-25.263s0-25.263-25.263-25.263c-25.262 0-25.262 25.263-25.262 25.263v25.263z"/><path fill="#664500" d="M650.527-138.842s0 25.263 25.263 25.263 25.263-25.262 25.263-25.262v-25.263s0-25.263-25.263-25.263-25.263 25.263-25.263 25.263v25.263z"/><path fill="#fff" d="M486.316-252.527s37.895-12.63 113.684-12.63c75.79 0 113.684 12.63 113.684 12.63S688.42-303.052 600-303.052s-113.684 50.525-113.684 50.525"/></g></g></symbol><symbol viewBox="450.001 56.314 599.999 487.372" id="icon-twitter"><title>twitter</title><path d="M1050 113.98c-22.083 9.784-45.778 16.42-70.675 19.383 25.42-15.223 44.88-39.368 54.103-68.05-23.846 14.097-50.166 24.333-78.21 29.883-22.46-23.958-54.403-38.88-89.835-38.88-67.974 0-123.09 55.114-123.09 123.05 0 9.636 1.088 19.047 3.19 28.046-102.28-5.137-192.977-54.14-253.678-128.602-10.61 18.147-16.646 39.292-16.646 61.864 0 42.705 21.745 80.385 54.74 102.43-20.173-.674-39.145-6.223-55.753-15.446v1.538c0 59.613 42.44 109.366 98.718 120.69-10.31 2.774-21.183 4.312-32.43 4.312-7.95 0-15.636-.787-23.172-2.287 15.672 48.93 61.114 84.51 114.954 85.485-42.105 32.994-95.195 52.603-152.86 52.603-9.934 0-19.72-.6-29.355-1.688 54.478 34.98 119.153 55.378 188.665 55.378 226.42 0 350.184-187.54 350.184-350.185l-.41-15.934c24.18-17.25 45.1-38.92 61.56-63.59z"/></symbol><symbol viewBox="450 0 600 600" id="icon-wink"><title>wink</title><g transform="matrix(1.25 0 0 -1.25 0 47.5)"><clipPath id="wink-b"><use xlink:href="#wink-a" overflow="visible"/></clipPath><g clip-path="url(#wink-b)"><path fill="#FFCC4D" d="M814.737-202c0-118.598-96.14-214.737-214.737-214.737-118.585 0-214.737 96.14-214.737 214.737 0 118.585 96.152 214.737 214.737 214.737 118.598 0 214.737-96.152 214.737-214.737"/><path fill="#664500" d="M567.878-187.032c-.758 1.705-18.935 41.646-56.3 41.646-37.35 0-55.54-39.94-56.298-41.646-1.162-2.615-.404-5.67 1.82-7.465 2.235-1.806 5.394-1.857 7.705-.177.165.114 15.94 11.394 46.775 11.394 30.645 0 46.41-11.13 46.762-11.38 1.11-.835 2.45-1.252 3.764-1.252 1.39 0 2.79.468 3.94 1.377 2.25 1.794 2.994 4.876 1.832 7.503"/><path fill="#F5F8FA" d="M764.21-158.018c0-45.348-36.758-82.105-82.104-82.105-45.348 0-82.105 36.758-82.105 82.105s36.76 82.105 82.106 82.105 82.105-36.758 82.105-82.105"/><path fill="#292F33" d="M713.684-158.018c0-17.445-14.135-31.58-31.58-31.58-17.444 0-31.578 14.135-31.578 31.58 0 17.444 14.134 31.58 31.58 31.58 17.443 0 31.578-14.136 31.578-31.58"/><path fill="#664500" d="M461.052-265.387c0-50.07 58.055-113.684 138.948-113.684s138.948 63.158 138.948 113.683c0 0-130.523-34.812-277.896 0"/><path fill="#E75A70" d="M524.21-289.145v-76.838c0-37.895 25.264-75.79 75.79-75.79s75.79 37.895 75.79 75.79v76.32c-79.478-16.32-151.58.518-151.58.518"/></g></g></symbol></svg>