<svg style="display: none;"><symbol viewBox="9.084 9.084 17.25 17.25" id="icon-amazon"><title>amazon</title><path d="M19.287 13.53c-.418.036-.9.072-1.382.144-.738.104-1.477.247-2.086.563-1.19.53-1.992 1.66-1.992 3.32 0 2.083 1.22 3.14 2.76 3.14.516 0 .933-.068 1.317-.175.61-.212 1.125-.6 1.735-1.305.354.53.45.776 1.06 1.342.16.07.32.07.45-.036.385-.352 1.058-.988 1.412-1.342.16-.143.128-.352.032-.53-.354-.494-.706-.918-.706-1.87v-3.177c0-1.344.096-2.578-.802-3.495-.74-.744-1.896-1.024-2.793-1.024h-.386c-1.638.105-3.37.88-3.757 3.107-.063.28.13.388.258.424l1.798.248c.193-.038.29-.213.32-.39.162-.775.74-1.164 1.38-1.234h.13c.385 0 .8.178 1.028.528.254.425.224.99.224 1.484v.278zm-.353 4.2c-.225.494-.61.813-1.028.92-.064 0-.16.035-.256.035-.706 0-1.125-.6-1.125-1.483 0-1.128.61-1.66 1.38-1.906.418-.105.9-.142 1.382-.142v.424c0 .813.03 1.447-.353 2.152zm7.4 4.903v.115c-.018.69-.35 2.015-1.134 2.743-.157.135-.314.058-.245-.135.23-.612.75-2.033.507-2.358-.174-.25-.89-.23-1.5-.173-.278.04-.523.056-.715.1-.174.017-.21-.155-.035-.288.228-.172.472-.306.75-.404.994-.324 2.147-.134 2.304.078.034.053.068.168.068.323zm-1.657 1.34c-.227.192-.47.366-.715.522-1.83 1.21-4.203 1.84-6.26 1.84-3.316 0-6.28-1.344-8.53-3.587-.194-.173-.037-.422.19-.29 2.425 1.555 5.425 2.496 8.53 2.496 1.955 0 4.063-.403 6.07-1.268.14-.056.296-.135.436-.19.314-.155.593.23.28.478z"/></symbol><symbol viewBox="0 0 60.801 60.801" id="icon-comments"><title>comments</title><path fill-rule="evenodd" clip-rule="evenodd" d="M19 34.194h26.605v-7.588h-30.41v7.588H19zm26.605-19h-30.41V22.8h30.41v-7.61zM60.8 7.606V3.804C60.8 1.704 59.095 0 56.998 0H3.804C1.704 0 0 1.705 0 3.804v41.802c0 2.097 1.705 3.78 3.804 3.78h28.498L49.392 60.8V49.387h7.605c2.097 0 3.804-1.684 3.804-3.78v-38zm-7.607 34.195h-11.39v5.696l-9.5-5.696H7.608V7.607h45.583v34.195zm0 0"/></symbol><symbol viewBox="741.375 291.375 17.25 17.25" id="icon-deal-with-it"><title>deal-with-it</title><g><path fill="#FFCC4D" d="M758.625 300c0 4.764-3.86 8.625-8.625 8.625s-8.625-3.86-8.625-8.625c0-4.764 3.86-8.625 8.625-8.625s8.625 3.86 8.625 8.625"/><path fill="#292F33" d="M741.496 296.457c.123.12.73.486.85.85s.365 2.427 1.095 3.034c.754.626 3.592.393 4.136.123 1.216-.606 1.365-2.3 1.58-3.156.122-.486.85-.486.85-.486s.73 0 .852.486c.215.857.365 2.55 1.58 3.156.545.27 3.382.504 4.137-.12.727-.61.97-2.67 1.093-3.036.12-.364.73-.728.85-.85.123-.12.123-.606 0-.73-.243-.24-3.112-.458-6.202-.12-.616.067-.85.244-2.31.244-1.457 0-1.693-.177-2.31-.243-3.087-.338-5.957-.12-6.2.12-.12.124-.12.61 0 .73"/><path fill="#664500" d="M754.736 302.855c-.09-.083-.225-.088-.322-.015-.02.015-1.99 1.47-4.414 1.47-2.417 0-4.395-1.456-4.414-1.47-.096-.073-.23-.065-.322.015-.09.08-.11.215-.048.32.065.107 1.633 2.66 4.784 2.66 3.15 0 4.72-2.553 4.784-2.66.062-.105.042-.24-.048-.32"/></g></symbol><symbol viewBox="0 0 60.734 60.733" id="icon-facebook"><title>facebook</title><path d="M57.378 0H3.352C1.502 0 0 1.5 0 3.354V57.38c0 1.852 1.502 3.353 3.352 3.353h29.086v-23.52h-7.914v-9.166h7.914v-6.76c0-7.843 4.79-12.116 11.787-12.116 3.355 0 6.232.252 7.07.36v8.2h-4.853c-3.805 0-4.54 1.81-4.54 4.463v5.85h9.08l-1.188 9.167h-7.892v23.52h15.475c1.852 0 3.355-1.503 3.355-3.35V3.35C60.732 1.5 59.23 0 57.378 0z"/></symbol><symbol viewBox="12.057 0 411.391 435.504" id="icon-paypal"><title>paypal</title><path d="M403.497 101.917c-4.105-5.073-8.877-9.705-14.166-13.84.708 13.118-.507 27.093-3.667 41.885-8.627 40.413-29.256 74.754-59.656 99.304-30.375 24.533-68.305 37.502-109.687 37.502h-60.344l-19.533 91.512c-3.836 17.96-19.943 30.99-38.303 30.99H70.938l-4.898 22.484c-1.258 5.79.17 11.838 3.887 16.453 3.715 4.613 9.324 7.297 15.25 7.297h66.498c9.24 0 17.225-6.46 19.152-15.494L193.667 313h76.188c36.854 0 70.526-11.465 97.384-33.152 26.868-21.697 45.128-52.186 52.806-88.162 7.777-36.377 2.206-66.58-16.55-89.77zM117.292 354.192l22.84-107.01h76.188c36.853 0 70.527-11.465 97.384-33.153 26.866-21.698 45.13-52.187 52.81-88.162 7.772-36.378 2.206-66.58-16.554-89.77C331.952 13.833 301.17 0 269.633 0H103.64c-9.21 0-17.175 6.417-19.136 15.414l-72 330.524c-1.26 5.79.17 11.838 3.888 16.453 3.713 4.614 9.32 7.296 15.248 7.296h66.5c9.24.002 17.22-6.457 19.152-15.494zm60.943-278.9h52.23c12.286 0 23.274 5.148 30.145 14.128 7.298 9.54 9.43 22.73 5.853 36.188-.047.17-.088.342-.13.516-6.57 27.73-33.893 50.29-60.898 50.29h-50.05l22.85-101.123z"/></symbol><symbol viewBox="741.375 291.375 17.25 17.25" id="icon-smile"><title>smile</title><g><path fill="#FFCC4D" d="M758.625 300c0 4.764-3.86 8.625-8.625 8.625s-8.625-3.86-8.625-8.625c0-4.764 3.86-8.625 8.625-8.625s8.625 3.86 8.625 8.625"/><path fill="#664500" d="M750 301.52c-1.837 0-3.058-.212-4.566-.505-.345-.066-1.015 0-1.015 1.015 0 2.03 2.33 4.566 5.58 4.566s5.58-2.537 5.58-4.566c0-1.015-.67-1.083-1.014-1.015-1.51.292-2.73.506-4.566.506"/><path fill="#664500" d="M745.94 297.462s0-1.015 1.016-1.015c1.015 0 1.015 1.015 1.015 1.015v1.015s0 1.015-1.014 1.015c-1.015 0-1.015-1.015-1.015-1.015v-1.015z"/><path fill="#664500" d="M752.03 297.462s0-1.015 1.014-1.015c1.015 0 1.015 1.015 1.015 1.015v1.015s0 1.015-1.016 1.015c-1.015 0-1.015-1.015-1.015-1.015v-1.015z"/><path fill="#fff" d="M745.434 302.03s1.522.505 4.566.505 4.566-.506 4.566-.506-1.015 2.028-4.566 2.028-4.566-2.03-4.566-2.03"/></g></symbol><symbol viewBox="391.375 216.374 17.25 17.25" id="icon-stopwatch"><title>stopwatch</title><path d="M400.957 222.124v3.833c0 .53-.427.957-.957.957s-.957-.426-.957-.957v-3.833h1.914zM407.605 225c.53 4.198-2.447 8.035-6.648 8.562-4.198.53-8.035-2.447-8.562-6.65-.53-4.197 2.447-8.034 6.648-8.56v-1.98h1.914v1.98c1.144.08 2.88.796 3.744 1.548l1.4-1.398 1.354 1.355-1.398 1.398c.752.866 1.47 2.6 1.55 3.745zm-1.855.958c0-3.177-2.573-5.75-5.75-5.75s-5.75 2.573-5.75 5.75 2.573 5.75 5.75 5.75 5.75-2.574 5.75-5.75z"/></symbol><symbol viewBox="364.771 6.607 21.207 17.25" id="icon-twitter"><title>twitter</title><path d="M385.98 8.642s-.83 1.34-2.17 2.247c.276 6.148-4.217 12.968-12.376 12.968-4.06 0-6.662-1.97-6.662-1.97s3.194.67 6.426-1.775c-3.27-.197-4.06-3.034-4.06-3.034s.905.235 1.97-.08c-3.666-.907-3.507-4.336-3.507-4.336s.907.552 1.97.552c-3.31-2.562-1.34-5.833-1.34-5.833s2.996 4.217 8.988 4.572c-.867-4.77 4.612-6.977 7.41-3.98 1.46-.237 2.8-1.065 2.8-1.065s-.474 1.617-1.932 2.405c1.18-.082 2.483-.673 2.483-.673z"/></symbol><symbol viewBox="741.375 8.625 17.25 17.25" id="icon-wink"><title>wink</title><g><path fill="#FFCC4D" d="M758.625 16.775c0 4.5-3.86 8.15-8.625 8.15-4.763 0-8.625-3.65-8.625-8.15s3.862-8.15 8.625-8.15c4.764 0 8.625 3.65 8.625 8.15"/><path fill="#664500" d="M748.71 16.208c-.03-.065-.762-1.58-2.262-1.58s-2.23 1.516-2.26 1.58c-.047.098-.017.215.073.283.09.07.217.072.31.008.006-.005.64-.433 1.878-.433 1.232 0 1.864.423 1.88.433.043.03.097.047.15.047.055 0 .112-.017.158-.052.09-.07.12-.186.074-.285"/><path fill="#F5F8FA" d="M756.596 15.105c0 1.722-1.476 3.117-3.297 3.117s-3.3-1.395-3.3-3.117c0-1.72 1.476-3.116 3.297-3.116s3.3 1.395 3.3 3.115"/><path fill="#292F33" d="M754.566 15.105c0 .663-.568 1.2-1.268 1.2-.702 0-1.27-.537-1.27-1.2 0-.66.568-1.198 1.27-1.198.7 0 1.268.537 1.268 1.198"/><path fill="#664500" d="M744.42 19.18c0 1.9 2.33 4.316 5.58 4.316s5.58-2.398 5.58-4.315c0 0-5.243 1.322-11.16 0"/><path fill="#E75A70" d="M746.956 20.083V23c0 1.438 1.015 2.875 3.044 2.875s3.044-1.437 3.044-2.876v-2.897c-3.193.62-6.088-.02-6.088-.02"/></g></symbol></svg>