<svg style="display: none;"><defs><path id="blank-a" d="M300-502h600V98H300z"/><path id="deal-with-it-a" d="M300-502h600V98H300z"/><path id="meh-a" d="M300-502h600V98H300z"/><path id="smile-a" d="M300-502h600V98H300z"/><path id="wink-a" d="M300-502h600V98H300z"/></defs><symbol viewBox="0 1.577 35.418 32.265" id="icon-amazon"><title>amazon</title><path d="M20.948 9.89c-.857.07-1.847.137-2.837.27-1.515.195-3.03.46-4.283 1.053-2.44.994-4.088 3.105-4.088 6.21 0 3.897 2.505 5.874 5.668 5.874 1.057 0 1.913-.13 2.703-.328 1.256-.397 2.31-1.124 3.563-2.442.728.99.923 1.453 2.177 2.51.33.133.658.133.922-.066.79-.658 2.174-1.848 2.9-2.508.33-.268.264-.66.067-.992-.73-.924-1.45-1.718-1.45-3.498V10.03c0-2.513.194-4.822-1.647-6.537-1.52-1.39-3.892-1.916-5.735-1.916h-.792c-3.362.197-6.92 1.647-7.714 5.81-.13.526.267.727.53.794l3.69.465c.397-.07.594-.398.66-.73.332-1.45 1.517-2.176 2.835-2.31h.265c.79 0 1.646.333 2.11.988.522.795.46 1.853.46 2.775l-.004.523zm-.725 7.86c-.46.924-1.252 1.518-2.11 1.717-.13 0-.327.068-.526.068-1.45 0-2.31-1.123-2.31-2.775 0-2.11 1.254-3.104 2.836-3.565.858-.197 1.847-.265 2.836-.265v.793c-.002 1.52.06 2.707-.727 4.026zm15.195 9.168v.215c-.035 1.29-.716 3.768-2.328 5.13-.322.25-.645.108-.503-.253.47-1.145 1.54-3.803 1.04-4.412-.355-.465-1.826-.43-3.08-.322-.57.072-1.074.105-1.468.184-.357.033-.432-.287-.072-.537.467-.322.97-.572 1.54-.756 2.04-.607 4.407-.25 4.73.146.07.1.14.316.14.605zm-3.402 2.51c-.466.357-.965.682-1.468.973-3.76 2.263-8.63 3.442-12.856 3.442-6.807 0-12.895-2.512-17.514-6.71-.396-.323-.073-.788.393-.538C5.55 29.5 11.71 31.26 18.085 31.26c4.014 0 8.342-.754 12.463-2.37.285-.105.607-.253.895-.356.645-.292 1.22.43.574.894z"/></symbol><symbol viewBox="0 0 394.4 394.4" id="icon-bitcoin"><title>bitcoin</title><path d="M197.2 0C88.292 0 0 88.292 0 197.2c0 108.91 88.292 197.2 197.2 197.2 108.91 0 197.2-88.29 197.2-197.2C394.4 88.293 306.11 0 197.2 0zm0 362.005c-91.018 0-164.805-73.787-164.805-164.805 0-91.02 73.787-164.805 164.805-164.805 91.02 0 164.806 73.787 164.806 164.805S288.22 362.005 197.2 362.005zm74.433-169.932c6.316-8.915 10.084-20.074 10.084-32.198 0-29.172-21.76-52.822-48.592-52.822h-7.746V66.205c0-2.326-1.904-4.223-4.224-4.223H207.06c-2.326 0-4.224 1.904-4.224 4.223v40.848H180.3V66.205c0-2.326-1.903-4.223-4.223-4.223h-14.083c-2.326 0-4.223 1.904-4.223 4.223v40.848h-46.484c-2.333 0-4.223 1.89-4.223 4.223v14.226c0 2.176 1.625 4.06 3.794 4.257 15.872 1.454 24.378 12.103 24.378 25.186v87.333c0 11.77-6.073 21.112-19.346 22.392-1.886.184-3.45 1.522-3.803 3.387l-2.692 14.36c-.483 2.563 1.488 4.938 4.1 4.938h44.262v40.848c0 2.326 1.904 4.223 4.224 4.223h14.084c2.325 0 4.223-1.903 4.223-4.224v-40.848h22.536v40.848c0 2.326 1.904 4.223 4.223 4.223h14.082c2.326 0 4.224-1.903 4.224-4.224v-40.848h19.014c26.84 0 48.592-23.33 48.592-52.115.026-17.97-8.438-33.8-21.325-43.17zm-91.338-51.218h34.51c12.84 0 23.24 10.404 23.24 23.243 0 12.838-10.4 23.242-23.24 23.242h-34.51v-46.485zm45.777 114.098h-45.777V208.47h45.777c12.84 0 23.242 10.403 23.242 23.24s-10.402 23.243-23.242 23.243z"/></symbol><symbol viewBox="450 0 600 600" id="icon-blank"><title>blank</title><g transform="matrix(1.25 0 0 -1.25 0 47.5)"><clipPath id="blank-b"><use xlink:href="#blank-a" overflow="visible"/></clipPath><g clip-path="url(#blank-b)"><path fill="#FFCC4D" d="M814.737-202c0-118.598-96.14-214.737-214.737-214.737-118.585 0-214.737 96.14-214.737 214.737 0 118.585 96.152 214.737 214.737 214.737 118.598 0 214.737-96.152 214.737-214.737"/><path fill="#664500" d="M549.473-183.053c0-24.43-14.134-44.21-31.58-44.21-17.443 0-31.578 19.78-31.578 44.21 0 24.417 14.135 44.21 31.58 44.21 17.444 0 31.578-19.793 31.578-44.21"/><path fill="#664500" d="M713.684-183.053c0-24.43-14.135-44.21-31.58-44.21-17.444 0-31.578 19.78-31.578 44.21 0 24.417 14.134 44.21 31.58 44.21 17.443 0 31.578-19.793 31.578-44.21"/><path fill="#664500" d="M688.42-303.052H511.58c-6.974 0-12.632 5.646-12.632 12.63 0 6.986 5.66 12.632 12.63 12.632h176.843c6.986 0 12.632-5.646 12.632-12.63 0-6.986-5.646-12.632-12.63-12.632"/></g></g></symbol><symbol viewBox="0 0 60.801 60.801" id="icon-comments"><title>comments</title><path fill-rule="evenodd" clip-rule="evenodd" d="M19 34.194h26.605v-7.588h-30.41v7.588H19zm26.605-19h-30.41V22.8h30.41v-7.61zM60.8 7.606V3.804C60.8 1.704 59.095 0 56.998 0H3.804C1.704 0 0 1.705 0 3.804v41.802c0 2.097 1.705 3.78 3.804 3.78h28.498L49.392 60.8V49.387h7.605c2.097 0 3.804-1.684 3.804-3.78v-38zm-7.607 34.195h-11.39v5.696l-9.5-5.696H7.608V7.607h45.583v34.195zm0 0"/></symbol><symbol viewBox="450 0 600 600" id="icon-deal-with-it"><title>deal-with-it</title><g transform="matrix(1.25 0 0 -1.25 0 47.5)"><clipPath id="deal-with-it-b"><use xlink:href="#deal-with-it-a" overflow="visible"/></clipPath><g clip-path="url(#deal-with-it-b)"><path fill="#FFCC4D" d="M814.737-202c0-118.598-96.14-214.737-214.737-214.737S385.263-320.597 385.263-202c0 118.598 96.14 214.737 214.737 214.737S814.737-83.403 814.737-202"/><path fill="#292F33" d="M388.297-113.802c3.032-3.02 18.152-12.1 21.184-21.158 3.032-9.057 9.096-60.43 27.26-75.55 18.745-15.575 89.394-9.777 102.935-3.03 30.278 15.094 33.99 57.232 39.348 78.58 3.02 12.088 21.183 12.088 21.183 12.088s18.177 0 21.196-12.076c5.355-21.36 9.095-63.5 39.347-78.58 13.553-6.76 84.2-12.557 102.972 3.018 18.127 15.12 24.19 66.493 27.22 75.562 3.007 9.057 18.153 18.126 21.185 21.145 3.044 3.02 3.044 15.107 0 18.14-6.05 6.037-77.483 11.418-154.396 3.018-15.347-1.68-21.183-6.05-57.523-6.05-36.316 0-42.177 4.37-57.512 6.038-76.888 8.412-148.345 3.032-154.396-3.007-3.022-3.03-3.022-15.12-.003-18.138"/><path fill="#664500" d="M717.916-273.102c-2.248 2.034-5.608 2.16-8.02.366-.493-.366-49.542-36.63-109.896-36.63-60.202 0-109.415 36.265-109.895 36.63-2.413 1.794-5.773 1.642-8.02-.366-2.237-2.02-2.742-5.356-1.19-7.933 1.63-2.716 40.637-66.227 119.104-66.227S717.484-283.75 719.1-281.035c1.555 2.59 1.062 5.912-1.186 7.933"/></g></g></symbol><symbol viewBox="450 0.026 600 599.948" id="icon-dollar-sign"><title>dollar-sign</title><path d="M750 .026c-165.377 0-300 134.57-300 299.998 0 165.376 134.623 299.95 300 299.95 165.427 0 300-134.57 300-299.95C1050 134.597 915.427.026 750 .026zm12.994 439.78v47.486h-28.79V441.66c-26.444-.505-53.45-8.756-69.397-20.16l10.95-30.532c15.945 10.498 39.74 19.584 65.337 19.584 32.387 0 51.444-18.686 51.385-44.787.06-25.093-14.85-40.636-48.686-54.347-46.55-18.293-75.34-39.74-75.34-79.49 0-37.898 26.886-66.637 68.49-73.538v-45.692h28.778v44.394c26.945.856 45.653 8.2 59.353 15.947l-11.403 30.148c-9.6-5.45-28.296-15.996-57.54-15.996-35.196 0-45.492 21.043-45.492 39.74 0 23.3 13.952 35.147 53.732 52.04 47.042 19.25 70.786 42.55 70.786 83.196.025 36.477-25.11 70.323-72.164 77.638z"/></symbol><symbol viewBox="0 0 60.734 60.733" id="icon-facebook"><title>facebook</title><path d="M57.378 0H3.352C1.502 0 0 1.5 0 3.354V57.38c0 1.852 1.502 3.353 3.352 3.353h29.086v-23.52h-7.914v-9.166h7.914v-6.76c0-7.843 4.79-12.116 11.787-12.116 3.355 0 6.232.252 7.07.36v8.2h-4.853c-3.805 0-4.54 1.81-4.54 4.463v5.85h9.08l-1.188 9.167h-7.892v23.52h15.475c1.852 0 3.355-1.503 3.355-3.35V3.35C60.732 1.5 59.23 0 57.378 0z"/></symbol><symbol viewBox="0 0.437 35.318 34.443" id="icon-github"><title>github</title><path d="M23.71 34.69c-.172.06-.345.136-.52.167-.68.12-1.113-.23-1.117-.922-.01-1.287-.01-2.572.012-3.86.022-1.478-.012-2.94-1.14-4.16.67-.12 1.267-.205 1.85-.34 3.862-.886 5.868-3.322 6.124-7.365.13-2.058-.236-3.945-1.605-5.566-.1-.114-.104-.373-.058-.54.364-1.34.26-2.648-.166-3.958-.103-.327-.277-.43-.6-.407-1.135.062-2.174.46-3.09 1.072-.883.593-1.705.722-2.754.48-2.31-.52-4.636-.368-6.94.166-.26.063-.612-.02-.85-.16-1.083-.635-2.165-1.25-3.413-1.497-.965-.187-1.05-.14-1.305.794-.322 1.176-.354 2.353-.025 3.536.047.172-.002.448-.117.575-2.557 2.854-1.63 8.244.092 10.31 1.34 1.604 3.12 2.325 5.097 2.7.345.064.688.113 1.032.174-.296.77-.562 1.495-.862 2.21-.06.14-.246.255-.4.313-1.937.752-3.603.2-4.712-1.56-.593-.938-1.354-1.64-2.488-1.843-.036-.007-.072-.025-.105-.02-.306.08-.607.163-.91.245.17.238.29.558.52.7.96.608 1.586 1.476 2 2.5.648 1.603 1.908 2.317 3.546 2.458.8.064 1.605.01 2.48.01 0 .996.036 2.133-.015 3.265-.025.61-.64.854-1.372.604-1.947-.666-3.752-1.62-5.312-2.963-5.63-4.85-7.8-10.98-5.93-18.155C2.523 6.503 7.384 2.115 14.652.74 24.71-1.164 34.236 6.16 35.234 16.37c.788 8.048-3.95 15.58-11.523 18.32zm-9.48-8.84l-.018.038.056.01c.014 0 .026.025-.04-.048zm-4.55 3.18c.155.098.306.22.476.274.062.02.177-.12.38-.27-.282-.108-.448-.202-.623-.226-.068-.008-.156.145-.234.223zm1.432.247c.022.104.23.236.354.233.12-.002.235-.16.354-.25-.108-.1-.216-.194-.548-.493-.07.208-.19.376-.16.51zm1.758-.423c-.147.035-.272.172-.408.266.08.1.158.193.285.35l.414-.38c-.1-.086-.216-.254-.29-.236zm-4.358-.594c.08.155.21.29.38.51.115-.19.24-.333.22-.362-.11-.143-.258-.26-.404-.367-.01-.007-.213.187-.196.22z"/></symbol><symbol viewBox="585.65 195.638 328.976 209.203" id="icon-google-plus"><title>google-plus</title><path d="M733.424 248.546c-18.326-11.137-40.396-19.625-61.82-12.086-34.554 9.838-55.477 50.635-42.693 84.44 10.587 35.304 53.53 54.68 87.185 39.848 17.427-6.24 28.912-22.318 33.955-39.6h-59.92v-35.605h100.017c2.047 29.11-2.247 60.27-21.172 83.64-25.916 33.357-73.805 43.145-112.753 30.062-41.346-13.584-71.408-55.23-70.506-98.873-2.05-53.93 45.19-103.763 99.168-104.413 27.515-2.347 54.28 8.34 75.1 25.768l-26.56 26.818zM855.005 254.887h29.76v29.86h29.86v29.76h-29.86v29.862h-29.76v-29.862h-29.86v-29.76h29.86v-29.86z"/></symbol><symbol viewBox="0 0 97.395 97.395" id="icon-instagram"><title>instagram</title><path d="M12.5 0h72.394c6.875 0 12.5 5.09 12.5 12.5v72.395c0 7.41-5.625 12.5-12.5 12.5H12.5c-6.876 0-12.5-5.09-12.5-12.5V12.5C0 5.09 5.624 0 12.5 0zM70.95 10.82c-2.412 0-4.383 1.973-4.383 4.386V25.7c0 2.413 1.97 4.386 4.383 4.386h11.008c2.412 0 4.385-1.973 4.385-4.385V15.207c0-2.413-1.972-4.385-4.384-4.385H70.948zm15.44 30.368h-8.573c.81 2.648 1.25 5.453 1.25 8.355 0 16.2-13.556 29.332-30.275 29.332-16.718 0-30.272-13.132-30.272-29.332 0-2.904.438-5.708 1.25-8.355h-8.945v41.14c0 2.13 1.742 3.873 3.872 3.873h67.822c2.13 0 3.872-1.74 3.872-3.87V41.187h-.003zm-37.6-11.655c-10.8 0-19.56 8.485-19.56 18.953S37.99 67.44 48.79 67.44c10.804 0 19.563-8.486 19.563-18.954s-8.757-18.953-19.56-18.953z"/></symbol><symbol viewBox="450 0 600 600" id="icon-meh"><title>meh</title><g transform="matrix(1.25 0 0 -1.25 0 47.5)"><clipPath id="meh-b"><use xlink:href="#meh-a" overflow="visible"/></clipPath><g clip-path="url(#meh-b)"><path fill="#FFCC4D" d="M814.737-202c0-118.598-96.14-214.737-214.737-214.737-118.585 0-214.737 96.14-214.737 214.737 0 118.585 96.152 214.737 214.737 214.737 118.598 0 214.737-96.152 214.737-214.737"/><path fill="#664500" d="M549.473-183.053c0-24.43-14.134-44.21-31.58-44.21-17.443 0-31.578 19.78-31.578 44.21 0 24.417 14.135 44.21 31.58 44.21 17.444 0 31.578-19.793 31.578-44.21"/><path fill="#664500" d="M713.684-183.053c0-24.43-14.135-44.21-31.58-44.21-17.444 0-31.578 19.78-31.578 44.21 0 24.417 14.134 44.21 31.58 44.21 17.443 0 31.578-19.793 31.578-44.21"/><path fill="#664500" d="M524.21-328.316c25.264 63.158 164.21 63.158 164.21 37.895 0-12.632-101.05 12.63-164.21-37.896"/></g></g></symbol><symbol viewBox="12.057 0 411.391 435.504" id="icon-paypal"><title>paypal</title><path d="M403.497 101.917c-4.105-5.073-8.877-9.705-14.166-13.84.708 13.118-.507 27.093-3.667 41.885-8.627 40.413-29.256 74.754-59.656 99.304-30.375 24.533-68.305 37.502-109.687 37.502h-60.344l-19.533 91.512c-3.836 17.96-19.943 30.99-38.303 30.99H70.938l-4.898 22.484c-1.258 5.79.17 11.838 3.887 16.453 3.715 4.613 9.324 7.297 15.25 7.297h66.498c9.24 0 17.225-6.46 19.152-15.494L193.667 313h76.188c36.854 0 70.526-11.465 97.384-33.152 26.868-21.697 45.128-52.186 52.806-88.162 7.777-36.377 2.206-66.58-16.55-89.77zM117.292 354.192l22.84-107.01h76.188c36.853 0 70.527-11.465 97.384-33.153 26.866-21.698 45.13-52.187 52.81-88.162 7.772-36.378 2.206-66.58-16.554-89.77C331.952 13.833 301.17 0 269.633 0H103.64c-9.21 0-17.175 6.417-19.136 15.414l-72 330.524c-1.26 5.79.17 11.838 3.888 16.453 3.713 4.614 9.32 7.296 15.248 7.296h66.5c9.24.002 17.22-6.457 19.152-15.494zm60.943-278.9h52.23c12.286 0 23.274 5.148 30.145 14.128 7.298 9.54 9.43 22.73 5.853 36.188-.047.17-.088.342-.13.516-6.57 27.73-33.893 50.29-60.898 50.29h-50.05l22.85-101.123z"/></symbol><symbol viewBox="450 0.247 600 599.482" id="icon-rss"><title>rss</title><g><path d="M538.944 421.913c-49.046 0-88.944 39.85-88.944 88.945 0 48.923 39.898 88.87 88.944 88.87 49.047 0 88.945-39.923 88.945-88.87 0-49.095-39.9-88.945-88.946-88.945zM459.247 196.063c-5.08 0-9.247 4.167-9.247 9.296v112.888c0 5.08 4.167 9.222 9.247 9.222 144.97 0 262.987 117.97 262.987 262.987 0 5.055 4.093 9.247 9.247 9.247H844.84c5.154 0 9.297-4.192 9.297-9.247l-.444-2.885c-1.627-216.11-178.012-391.51-394.443-391.51zM1049.482 587.572C1047.88 263.382 783.66.247 459.247.247c-5.08 0-9.247 4.167-9.247 9.296V125.71c0 5.105 4.167 9.248 9.247 9.248 251.176 0 455.5 204.35 455.5 455.523 0 5.057 4.142 9.248 9.196 9.248h116.712c5.055 0 9.346-4.19 9.346-9.247l-.518-2.908z"/></g></symbol><symbol viewBox="450 0 600 600" id="icon-smile"><title>smile</title><g transform="matrix(1.25 0 0 -1.25 0 47.5)"><clipPath id="smile-b"><use xlink:href="#smile-a" overflow="visible"/></clipPath><g clip-path="url(#smile-b)"><path fill="#FFCC4D" d="M814.737-202c0-118.598-96.14-214.737-214.737-214.737S385.263-320.597 385.263-202c0 118.598 96.14 214.737 214.737 214.737S814.737-83.403 814.737-202"/><path fill="#664500" d="M600-239.895c-45.764 0-76.13 5.33-113.684 12.63-8.577 1.656-25.263 0-25.263-25.262 0-50.526 58.042-113.684 138.948-113.684 80.894 0 138.95 63.158 138.95 113.683 0 25.263-16.688 26.93-25.264 25.263-37.556-7.3-67.922-12.63-113.686-12.63"/><path fill="#664500" d="M498.948-138.842s0 25.263 25.263 25.263c25.264 0 25.264-25.262 25.264-25.262v-25.263s0-25.263-25.263-25.263c-25.262 0-25.262 25.263-25.262 25.263v25.263z"/><path fill="#664500" d="M650.527-138.842s0 25.263 25.263 25.263 25.263-25.262 25.263-25.262v-25.263s0-25.263-25.263-25.263-25.263 25.263-25.263 25.263v25.263z"/><path fill="#fff" d="M486.316-252.527s37.895-12.63 113.684-12.63c75.79 0 113.684 12.63 113.684 12.63S688.42-303.052 600-303.052s-113.684 50.525-113.684 50.525"/></g></g></symbol><symbol viewBox="579.91 0 340.206 600" id="icon-tumblr"><title>tumblr</title><path d="M781.917 130.412V0h-84.16c-1.9 4.83-2.904 10.56-2.904 16.42-.897 2.825-1.9 4.857-1.9 7.735-8.66 48.284-33.792 82.102-76.347 100.5-12.566 5.756-24.13 6.68-36.695 5.756v105.254h61.828c1.03 147.915 1.03 224.208 1.03 228.09v8.764c7.76 64.65 41.525 103.326 101.45 117.82 24.13 6.783 50.186 9.66 76.347 9.66 33.765-.95 66.658-6.757 99.552-17.396v-123.68c-19.298 5.808-36.827 10.612-52.19 15.39-29.964 8.792-55.096 2.984-75.423-16.34-1.928-2.904-4.83-6.785-5.835-10.64-2.8-15.47-4.7-31.837-4.7-47.386V235.69H916.16V130.41h-134.24z"/></symbol><symbol viewBox="450.001 56.314 599.999 487.372" id="icon-twitter"><title>twitter</title><path d="M1050 113.98c-22.083 9.784-45.778 16.42-70.675 19.383 25.42-15.223 44.88-39.368 54.103-68.05-23.846 14.097-50.166 24.333-78.21 29.883-22.46-23.958-54.403-38.88-89.835-38.88-67.974 0-123.09 55.114-123.09 123.05 0 9.636 1.088 19.047 3.19 28.046-102.28-5.137-192.977-54.14-253.678-128.602-10.61 18.147-16.646 39.292-16.646 61.864 0 42.705 21.745 80.385 54.74 102.43-20.173-.674-39.145-6.223-55.753-15.446v1.538c0 59.613 42.44 109.366 98.718 120.69-10.31 2.774-21.183 4.312-32.43 4.312-7.95 0-15.636-.787-23.172-2.287 15.672 48.93 61.114 84.51 114.954 85.485-42.105 32.994-95.195 52.603-152.86 52.603-9.934 0-19.72-.6-29.355-1.688 54.478 34.98 119.153 55.378 188.665 55.378 226.42 0 350.184-187.54 350.184-350.185l-.41-15.934c24.18-17.25 45.1-38.92 61.56-63.59z"/></symbol><symbol viewBox="450 0 600 600" id="icon-wink"><title>wink</title><g transform="matrix(1.25 0 0 -1.25 0 47.5)"><clipPath id="wink-b"><use xlink:href="#wink-a" overflow="visible"/></clipPath><g clip-path="url(#wink-b)"><path fill="#FFCC4D" d="M814.737-202c0-118.598-96.14-214.737-214.737-214.737-118.585 0-214.737 96.14-214.737 214.737 0 118.585 96.152 214.737 214.737 214.737 118.598 0 214.737-96.152 214.737-214.737"/><path fill="#664500" d="M567.878-187.032c-.758 1.705-18.935 41.646-56.3 41.646-37.35 0-55.54-39.94-56.298-41.646-1.162-2.615-.404-5.67 1.82-7.465 2.235-1.806 5.394-1.857 7.705-.177.165.114 15.94 11.394 46.775 11.394 30.645 0 46.41-11.13 46.762-11.38 1.11-.835 2.45-1.252 3.764-1.252 1.39 0 2.79.468 3.94 1.377 2.25 1.794 2.994 4.876 1.832 7.503"/><path fill="#F5F8FA" d="M764.21-158.018c0-45.348-36.758-82.105-82.104-82.105-45.348 0-82.105 36.758-82.105 82.105s36.76 82.105 82.106 82.105 82.105-36.758 82.105-82.105"/><path fill="#292F33" d="M713.684-158.018c0-17.445-14.135-31.58-31.58-31.58-17.444 0-31.578 14.135-31.578 31.58 0 17.444 14.134 31.58 31.58 31.58 17.443 0 31.578-14.136 31.578-31.58"/><path fill="#664500" d="M461.052-265.387c0-50.07 58.055-113.684 138.948-113.684s138.948 63.158 138.948 113.683c0 0-130.523-34.812-277.896 0"/><path fill="#E75A70" d="M524.21-289.145v-76.838c0-37.895 25.264-75.79 75.79-75.79s75.79 37.895 75.79 75.79v76.32c-79.478-16.32-151.58.518-151.58.518"/></g></g></symbol><symbol viewBox="0 13.5 90 63" id="icon-youtube"><title>youtube</title><path d="M90 26.958C90 19.525 83.98 13.5 76.55 13.5h-63.1C6.02 13.5 0 19.525 0 26.958v36.084C0 70.475 6.02 76.5 13.45 76.5h63.1C83.98 76.5 90 70.475 90 63.042V26.958zM36 60.225V26.33l25.702 16.947L36 60.225z"/></symbol></svg>