<svg style="display: none;"><defs><path id="blank-a" d="M300-502h600V98H300z"/><path id="deal-with-it-a" d="M300-502h600V98H300z"/><path id="meh-a" d="M300-502h600V98H300z"/><path id="smile-a" d="M300-502h600V98H300z"/><path id="wink-a" d="M300-502h600V98H300z"/></defs><symbol viewBox="450 0 600 600" id="icon-blank"><title>blank</title><g transform="matrix(1.25 0 0 -1.25 0 47.5)"><clipPath id="blank-b"><use xlink:href="#blank-a" overflow="visible"/></clipPath><g clip-path="url(#blank-b)"><path fill="#FFCC4D" d="M814.737-202c0-118.598-96.14-214.737-214.737-214.737-118.585 0-214.737 96.14-214.737 214.737 0 118.585 96.152 214.737 214.737 214.737 118.598 0 214.737-96.152 214.737-214.737"/><path fill="#664500" d="M549.473-183.053c0-24.43-14.134-44.21-31.58-44.21-17.443 0-31.578 19.78-31.578 44.21 0 24.417 14.135 44.21 31.58 44.21 17.444 0 31.578-19.793 31.578-44.21"/><path fill="#664500" d="M713.684-183.053c0-24.43-14.135-44.21-31.58-44.21-17.444 0-31.578 19.78-31.578 44.21 0 24.417 14.134 44.21 31.58 44.21 17.443 0 31.578-19.793 31.578-44.21"/><path fill="#664500" d="M688.42-303.052H511.58c-6.974 0-12.632 5.646-12.632 12.63 0 6.986 5.66 12.632 12.63 12.632h176.843c6.986 0 12.632-5.646 12.632-12.63 0-6.986-5.646-12.632-12.63-12.632"/></g></g></symbol><symbol viewBox="0 0 60.801 60.801" id="icon-comments"><title>comments</title><path fill-rule="evenodd" clip-rule="evenodd" d="M19 34.194h26.605v-7.588h-30.41v7.588H19zm26.605-19h-30.41V22.8h30.41v-7.61zM60.8 7.606V3.804C60.8 1.704 59.095 0 56.998 0H3.804C1.704 0 0 1.705 0 3.804v41.802c0 2.097 1.705 3.78 3.804 3.78h28.498L49.392 60.8V49.387h7.605c2.097 0 3.804-1.684 3.804-3.78v-38zm-7.607 34.195h-11.39v5.696l-9.5-5.696H7.608V7.607h45.583v34.195zm0 0"/></symbol><symbol viewBox="450 0 600 600" id="icon-deal-with-it"><title>deal-with-it</title><g transform="matrix(1.25 0 0 -1.25 0 47.5)"><clipPath id="deal-with-it-b"><use xlink:href="#deal-with-it-a" overflow="visible"/></clipPath><g clip-path="url(#deal-with-it-b)"><path fill="#FFCC4D" d="M814.737-202c0-118.598-96.14-214.737-214.737-214.737S385.263-320.597 385.263-202c0 118.598 96.14 214.737 214.737 214.737S814.737-83.403 814.737-202"/><path fill="#292F33" d="M388.297-113.802c3.032-3.02 18.152-12.1 21.184-21.158 3.032-9.057 9.096-60.43 27.26-75.55 18.745-15.575 89.394-9.777 102.935-3.03 30.278 15.094 33.99 57.232 39.348 78.58 3.02 12.088 21.183 12.088 21.183 12.088s18.177 0 21.196-12.076c5.355-21.36 9.095-63.5 39.347-78.58 13.553-6.76 84.2-12.557 102.972 3.018 18.127 15.12 24.19 66.493 27.22 75.562 3.007 9.057 18.153 18.126 21.185 21.145 3.044 3.02 3.044 15.107 0 18.14-6.05 6.037-77.483 11.418-154.396 3.018-15.347-1.68-21.183-6.05-57.523-6.05-36.316 0-42.177 4.37-57.512 6.038-76.888 8.412-148.345 3.032-154.396-3.007-3.022-3.03-3.022-15.12-.003-18.138"/><path fill="#664500" d="M717.916-273.102c-2.248 2.034-5.608 2.16-8.02.366-.493-.366-49.542-36.63-109.896-36.63-60.202 0-109.415 36.265-109.895 36.63-2.413 1.794-5.773 1.642-8.02-.366-2.237-2.02-2.742-5.356-1.19-7.933 1.63-2.716 40.637-66.227 119.104-66.227S717.484-283.75 719.1-281.035c1.555 2.59 1.062 5.912-1.186 7.933"/></g></g></symbol><symbol viewBox="0 0 430.113 430.114" id="icon-facebook"><title>facebook</title><path d="M158.08 83.3v59.218h-43.384v72.412h43.385v215.183h89.123V214.936h59.805s5.6-34.72 8.316-72.685H247.54V92.74c0-7.4 9.717-17.354 19.32-17.354h48.558V0h-66.02c-93.52-.004-91.317 72.48-91.317 83.3z"/></symbol><symbol viewBox="0 0.437 35.318 34.443" id="icon-github"><title>github</title><path d="M23.71 34.69c-.172.06-.345.136-.52.167-.68.12-1.113-.23-1.117-.922-.01-1.287-.01-2.572.012-3.86.022-1.478-.012-2.94-1.14-4.16.67-.12 1.267-.205 1.85-.34 3.862-.886 5.868-3.322 6.124-7.365.13-2.058-.236-3.945-1.605-5.566-.1-.114-.104-.373-.058-.54.364-1.34.26-2.648-.166-3.958-.103-.327-.277-.43-.6-.407-1.135.062-2.174.46-3.09 1.072-.883.593-1.705.722-2.754.48-2.31-.52-4.636-.368-6.94.166-.26.063-.612-.02-.85-.16-1.083-.635-2.165-1.25-3.413-1.497-.965-.187-1.05-.14-1.305.794-.322 1.176-.354 2.353-.025 3.536.047.172-.002.448-.117.575-2.557 2.854-1.63 8.244.092 10.31 1.34 1.604 3.12 2.325 5.097 2.7.345.064.688.113 1.032.174-.296.77-.562 1.495-.862 2.21-.06.14-.246.255-.4.313-1.937.752-3.603.2-4.712-1.56-.593-.938-1.354-1.64-2.488-1.843-.036-.007-.072-.025-.105-.02-.306.08-.607.163-.91.245.17.238.29.558.52.7.96.608 1.586 1.476 2 2.5.648 1.603 1.908 2.317 3.546 2.458.8.064 1.605.01 2.48.01 0 .996.036 2.133-.015 3.265-.025.61-.64.854-1.372.604-1.947-.666-3.752-1.62-5.312-2.963-5.63-4.85-7.8-10.98-5.93-18.155C2.523 6.503 7.384 2.115 14.652.74 24.71-1.164 34.236 6.16 35.234 16.37c.788 8.048-3.95 15.58-11.523 18.32zm-9.48-8.84l-.018.038.056.01c.014 0 .026.025-.04-.048zm-4.55 3.18c.155.098.306.22.476.274.062.02.177-.12.38-.27-.282-.108-.448-.202-.623-.226-.068-.008-.156.145-.234.223zm1.432.247c.022.104.23.236.354.233.12-.002.235-.16.354-.25-.108-.1-.216-.194-.548-.493-.07.208-.19.376-.16.51zm1.758-.423c-.147.035-.272.172-.408.266.08.1.158.193.285.35l.414-.38c-.1-.086-.216-.254-.29-.236zm-4.358-.594c.08.155.21.29.38.51.115-.19.24-.333.22-.362-.11-.143-.258-.26-.404-.367-.01-.007-.213.187-.196.22z"/></symbol><symbol viewBox="0 0 96.828 96.828" id="icon-google-plus"><title>google-plus</title><path d="M62.617 0H39.525C29.235 0 22.112 2.256 15.7 7.552c-5.04 4.35-8.05 10.672-8.05 16.912 0 9.614 7.33 19.83 20.913 19.83 1.306 0 2.752-.133 4.028-.252l-.187.457c-.546 1.307-1.063 2.54-1.063 4.466 0 3.75 1.81 6.064 3.558 8.3l.22.282-.39.027c-5.61.383-16.05 1.1-23.676 5.786-9.007 5.355-9.707 13.147-9.707 15.405 0 8.987 8.376 18.06 27.09 18.06 21.76 0 33.146-12.005 33.146-23.863.003-8.77-5.14-13.1-10.6-17.697l-4.604-3.582c-1.423-1.18-3.195-2.646-3.195-5.364 0-2.673 1.773-4.437 3.337-5.993l.163-.165c4.972-3.917 10.61-8.358 10.61-17.964 0-9.658-6.036-14.65-8.938-17.048h7.664c.094 0 .188-.026.266-.077l6.6-4.15c.19-.12.277-.348.215-.562-.06-.213-.258-.36-.48-.36zM34.614 91.535c-13.264 0-22.176-6.195-22.176-15.416 0-6.022 3.645-10.397 10.824-12.997 5.75-1.936 13.17-2.03 13.244-2.03 1.257 0 1.89 0 2.893.124 9.28 6.605 13.743 10.074 13.743 16.68-.002 8.412-7.102 13.638-18.53 13.638zm-.125-50.78c-11.133 0-15.753-14.632-15.753-22.467 0-3.984.906-7.042 2.77-9.35 2.023-2.532 5.487-4.167 8.825-4.167 10.22 0 15.873 13.74 15.873 23.234 0 1.498 0 6.055-3.148 9.22-2.117 2.113-5.56 3.532-8.568 3.532zM94.982 45.223H82.814V33.098c0-.276-.226-.5-.5-.5H77.08c-.275 0-.5.224-.5.5v12.125H64.473c-.275 0-.5.224-.5.5v5.304c0 .275.225.5.5.5H76.58V63.73c0 .275.225.5.5.5h5.234c.274 0 .5-.225.5-.5V51.525h12.168c.275 0 .5-.223.5-.5v-5.302c0-.277-.223-.5-.5-.5z"/></symbol><symbol viewBox="0 0 97.395 97.395" id="icon-instagram"><title>instagram</title><path d="M12.5 0h72.394c6.875 0 12.5 5.09 12.5 12.5v72.395c0 7.41-5.625 12.5-12.5 12.5H12.5c-6.876 0-12.5-5.09-12.5-12.5V12.5C0 5.09 5.624 0 12.5 0zM70.95 10.82c-2.412 0-4.383 1.973-4.383 4.386V25.7c0 2.413 1.97 4.386 4.383 4.386h11.008c2.412 0 4.385-1.973 4.385-4.385V15.207c0-2.413-1.972-4.385-4.384-4.385H70.948zm15.44 30.368h-8.573c.81 2.648 1.25 5.453 1.25 8.355 0 16.2-13.556 29.332-30.275 29.332-16.718 0-30.272-13.132-30.272-29.332 0-2.904.438-5.708 1.25-8.355h-8.945v41.14c0 2.13 1.742 3.873 3.872 3.873h67.822c2.13 0 3.872-1.74 3.872-3.87V41.187h-.003zm-37.6-11.655c-10.8 0-19.56 8.485-19.56 18.953S37.99 67.44 48.79 67.44c10.804 0 19.563-8.486 19.563-18.954s-8.757-18.953-19.56-18.953z"/></symbol><symbol viewBox="450 0 600 600" id="icon-meh"><title>meh</title><g transform="matrix(1.25 0 0 -1.25 0 47.5)"><clipPath id="meh-b"><use xlink:href="#meh-a" overflow="visible"/></clipPath><g clip-path="url(#meh-b)"><path fill="#FFCC4D" d="M814.737-202c0-118.598-96.14-214.737-214.737-214.737-118.585 0-214.737 96.14-214.737 214.737 0 118.585 96.152 214.737 214.737 214.737 118.598 0 214.737-96.152 214.737-214.737"/><path fill="#664500" d="M549.473-183.053c0-24.43-14.134-44.21-31.58-44.21-17.443 0-31.578 19.78-31.578 44.21 0 24.417 14.135 44.21 31.58 44.21 17.444 0 31.578-19.793 31.578-44.21"/><path fill="#664500" d="M713.684-183.053c0-24.43-14.135-44.21-31.58-44.21-17.444 0-31.578 19.78-31.578 44.21 0 24.417 14.134 44.21 31.58 44.21 17.443 0 31.578-19.793 31.578-44.21"/><path fill="#664500" d="M524.21-328.316c25.264 63.158 164.21 63.158 164.21 37.895 0-12.632-101.05 12.63-164.21-37.896"/></g></g></symbol><symbol viewBox="450 0.247 600 599.482" id="icon-rss"><title>rss</title><g><path d="M538.944 421.913c-49.046 0-88.944 39.85-88.944 88.945 0 48.923 39.898 88.87 88.944 88.87 49.047 0 88.945-39.923 88.945-88.87 0-49.095-39.9-88.945-88.946-88.945zM459.247 196.063c-5.08 0-9.247 4.167-9.247 9.296v112.888c0 5.08 4.167 9.222 9.247 9.222 144.97 0 262.987 117.97 262.987 262.987 0 5.055 4.093 9.247 9.247 9.247H844.84c5.154 0 9.297-4.192 9.297-9.247l-.444-2.885c-1.627-216.11-178.012-391.51-394.443-391.51zM1049.482 587.572C1047.88 263.382 783.66.247 459.247.247c-5.08 0-9.247 4.167-9.247 9.296V125.71c0 5.105 4.167 9.248 9.247 9.248 251.176 0 455.5 204.35 455.5 455.523 0 5.057 4.142 9.248 9.196 9.248h116.712c5.055 0 9.346-4.19 9.346-9.247l-.518-2.908z"/></g></symbol><symbol viewBox="450 0 600 600" id="icon-smile"><title>smile</title><g transform="matrix(1.25 0 0 -1.25 0 47.5)"><clipPath id="smile-b"><use xlink:href="#smile-a" overflow="visible"/></clipPath><g clip-path="url(#smile-b)"><path fill="#FFCC4D" d="M814.737-202c0-118.598-96.14-214.737-214.737-214.737S385.263-320.597 385.263-202c0 118.598 96.14 214.737 214.737 214.737S814.737-83.403 814.737-202"/><path fill="#664500" d="M600-239.895c-45.764 0-76.13 5.33-113.684 12.63-8.577 1.656-25.263 0-25.263-25.262 0-50.526 58.042-113.684 138.948-113.684 80.894 0 138.95 63.158 138.95 113.683 0 25.263-16.688 26.93-25.264 25.263-37.556-7.3-67.922-12.63-113.686-12.63"/><path fill="#664500" d="M498.948-138.842s0 25.263 25.263 25.263c25.264 0 25.264-25.262 25.264-25.262v-25.263s0-25.263-25.263-25.263c-25.262 0-25.262 25.263-25.262 25.263v25.263z"/><path fill="#664500" d="M650.527-138.842s0 25.263 25.263 25.263 25.263-25.262 25.263-25.262v-25.263s0-25.263-25.263-25.263-25.263 25.263-25.263 25.263v25.263z"/><path fill="#fff" d="M486.316-252.527s37.895-12.63 113.684-12.63c75.79 0 113.684 12.63 113.684 12.63S688.42-303.052 600-303.052s-113.684 50.525-113.684 50.525"/></g></g></symbol><symbol viewBox="579.91 0 340.206 600" id="icon-tumblr"><title>tumblr</title><path d="M781.917 130.412V0h-84.16c-1.9 4.83-2.904 10.56-2.904 16.42-.897 2.825-1.9 4.857-1.9 7.735-8.66 48.284-33.792 82.102-76.347 100.5-12.566 5.756-24.13 6.68-36.695 5.756v105.254h61.828c1.03 147.915 1.03 224.208 1.03 228.09v8.764c7.76 64.65 41.525 103.326 101.45 117.82 24.13 6.783 50.186 9.66 76.347 9.66 33.765-.95 66.658-6.757 99.552-17.396v-123.68c-19.298 5.808-36.827 10.612-52.19 15.39-29.964 8.792-55.096 2.984-75.423-16.34-1.928-2.904-4.83-6.785-5.835-10.64-2.8-15.47-4.7-31.837-4.7-47.386V235.69H916.16V130.41h-134.24z"/></symbol><symbol viewBox="450.001 56.314 599.999 487.372" id="icon-twitter"><title>twitter</title><path d="M1050 113.98c-22.083 9.784-45.778 16.42-70.675 19.383 25.42-15.223 44.88-39.368 54.103-68.05-23.846 14.097-50.166 24.333-78.21 29.883-22.46-23.958-54.403-38.88-89.835-38.88-67.974 0-123.09 55.114-123.09 123.05 0 9.636 1.088 19.047 3.19 28.046-102.28-5.137-192.977-54.14-253.678-128.602-10.61 18.147-16.646 39.292-16.646 61.864 0 42.705 21.745 80.385 54.74 102.43-20.173-.674-39.145-6.223-55.753-15.446v1.538c0 59.613 42.44 109.366 98.718 120.69-10.31 2.774-21.183 4.312-32.43 4.312-7.95 0-15.636-.787-23.172-2.287 15.672 48.93 61.114 84.51 114.954 85.485-42.105 32.994-95.195 52.603-152.86 52.603-9.934 0-19.72-.6-29.355-1.688 54.478 34.98 119.153 55.378 188.665 55.378 226.42 0 350.184-187.54 350.184-350.185l-.41-15.934c24.18-17.25 45.1-38.92 61.56-63.59z"/></symbol><symbol viewBox="450 0 600 600" id="icon-wink"><title>wink</title><g transform="matrix(1.25 0 0 -1.25 0 47.5)"><clipPath id="wink-b"><use xlink:href="#wink-a" overflow="visible"/></clipPath><g clip-path="url(#wink-b)"><path fill="#FFCC4D" d="M814.737-202c0-118.598-96.14-214.737-214.737-214.737-118.585 0-214.737 96.14-214.737 214.737 0 118.585 96.152 214.737 214.737 214.737 118.598 0 214.737-96.152 214.737-214.737"/><path fill="#664500" d="M567.878-187.032c-.758 1.705-18.935 41.646-56.3 41.646-37.35 0-55.54-39.94-56.298-41.646-1.162-2.615-.404-5.67 1.82-7.465 2.235-1.806 5.394-1.857 7.705-.177.165.114 15.94 11.394 46.775 11.394 30.645 0 46.41-11.13 46.762-11.38 1.11-.835 2.45-1.252 3.764-1.252 1.39 0 2.79.468 3.94 1.377 2.25 1.794 2.994 4.876 1.832 7.503"/><path fill="#F5F8FA" d="M764.21-158.018c0-45.348-36.758-82.105-82.104-82.105-45.348 0-82.105 36.758-82.105 82.105s36.76 82.105 82.106 82.105 82.105-36.758 82.105-82.105"/><path fill="#292F33" d="M713.684-158.018c0-17.445-14.135-31.58-31.58-31.58-17.444 0-31.578 14.135-31.578 31.58 0 17.444 14.134 31.58 31.58 31.58 17.443 0 31.578-14.136 31.578-31.58"/><path fill="#664500" d="M461.052-265.387c0-50.07 58.055-113.684 138.948-113.684s138.948 63.158 138.948 113.683c0 0-130.523-34.812-277.896 0"/><path fill="#E75A70" d="M524.21-289.145v-76.838c0-37.895 25.264-75.79 75.79-75.79s75.79 37.895 75.79 75.79v76.32c-79.478-16.32-151.58.518-151.58.518"/></g></g></symbol><symbol viewBox="0 13.5 90 63" id="icon-youtube"><title>youtube</title><path d="M90 26.958C90 19.525 83.98 13.5 76.55 13.5h-63.1C6.02 13.5 0 19.525 0 26.958v36.084C0 70.475 6.02 76.5 13.45 76.5h63.1C83.98 76.5 90 70.475 90 63.042V26.958zM36 60.225V26.33l25.702 16.947L36 60.225z"/></symbol></svg>