<?xml version="1.0" encoding="utf-8"?>
<!-- Generator: Adobe Illustrator 15.1.0, SVG Export Plug-In . SVG Version: 6.00 Build 0)  -->
<!DOCTYPE svg PUBLIC "-//W3C//DTD SVG 1.1//EN" "http://www.w3.org/Graphics/SVG/1.1/DTD/svg11.dtd">
<svg version="1.1"
	 id="svg2" xmlns:dc="http://purl.org/dc/elements/1.1/" xmlns:rdf="http://www.w3.org/1999/02/22-rdf-syntax-ns#" xmlns:cc="http://creativecommons.org/ns#" xmlns:svg="http://www.w3.org/2000/svg"
	 xmlns="http://www.w3.org/2000/svg" xmlns:xlink="http://www.w3.org/1999/xlink" x="0px" y="0px" width="600px" height="600px"
	 viewBox="450 0 600 600" enable-background="new 450 0 600 600" xml:space="preserve">
<g id="g10" transform="matrix(1.25,0,0,-1.25,0,47.5)">
	<g id="g12">
		<g>
			<defs>
				<rect id="SVGID_1_" x="300" y="-502" width="600" height="600"/>
			</defs>
			<clipPath id="SVGID_2_">
				<use xlink:href="#SVGID_1_"  overflow="visible"/>
			</clipPath>
			<g id="g14" clip-path="url(#SVGID_2_)">
				<g id="g20" transform="translate(36,19)">
					<path id="path22" fill="#FFCC4D" d="M778.737-221c0-118.598-96.139-214.737-214.737-214.737S349.263-339.598,349.263-221
						C349.263-102.402,445.402-6.263,564-6.263S778.737-102.402,778.737-221"/>
				</g>
				<g id="g24" transform="translate(2.2402,25.9824)">
					<path id="path26" fill="#292F33" d="M386.057-139.784c3.032-3.019,18.152-12.101,21.184-21.158
						c3.031-9.057,9.095-60.43,27.259-75.55c18.745-15.575,89.394-9.777,102.935-3.031c30.278,15.095,33.991,57.233,39.348,78.581
						c3.019,12.088,21.183,12.088,21.183,12.088s18.177,0,21.196-12.076c5.355-21.36,9.095-63.499,39.347-78.581
						c13.554-6.758,84.202-12.556,102.973,3.019c18.127,15.12,24.19,66.493,27.221,75.562c3.006,9.057,18.152,18.126,21.184,21.145
						c3.044,3.019,3.044,15.107,0,18.139c-6.051,6.038-77.483,11.419-154.396,3.019c-15.348-1.68-21.184-6.05-57.524-6.05
						c-36.316,0-42.177,4.37-57.512,6.038c-76.888,8.412-148.345,3.032-154.396-3.007
						C383.038-124.676,383.038-136.765,386.057-139.784"/>
				</g>
				<g id="g28" transform="translate(28.335,13.3711)">
					<path id="path30" fill="#664500" d="M689.581-286.473c-2.248,2.034-5.608,2.159-8.021,0.366
						c-0.492-0.366-49.541-36.631-109.895-36.631c-60.202,0-109.415,36.266-109.895,36.631c-2.413,1.794-5.773,1.642-8.021-0.366
						c-2.236-2.021-2.741-5.356-1.188-7.933c1.63-2.716,40.636-66.227,119.103-66.227s117.486,63.512,119.103,66.227
						C692.322-291.816,691.829-288.494,689.581-286.473"/>
				</g>
			</g>
		</g>
	</g>
</g>
</svg>
