<?xml version="1.0" encoding="utf-8"?>
<!-- Generator: Adobe Illustrator 15.1.0, SVG Export Plug-In . SVG Version: 6.00 Build 0)  -->
<!DOCTYPE svg PUBLIC "-//W3C//DTD SVG 1.1//EN" "http://www.w3.org/Graphics/SVG/1.1/DTD/svg11.dtd">
<svg version="1.1"
	 id="svg2" xmlns:dc="http://purl.org/dc/elements/1.1/" xmlns:rdf="http://www.w3.org/1999/02/22-rdf-syntax-ns#" xmlns:cc="http://creativecommons.org/ns#" xmlns:svg="http://www.w3.org/2000/svg"
	 xmlns="http://www.w3.org/2000/svg" xmlns:xlink="http://www.w3.org/1999/xlink" x="0px" y="0px" width="17.25px" height="17.25px"
	 viewBox="741.375 291.375 17.25 17.25" enable-background="new 741.375 291.375 17.25 17.25" xml:space="preserve">
<g id="g10" transform="matrix(1.25,0,0,-1.25,0,47.5)">
	<g id="g12">
		<g>
			<g>
				<g id="g14">
					<g id="g20" transform="translate(36,19)">
						<path id="path22" fill="#FFCC4D" d="M570.9-221c0-3.811-3.089-6.9-6.9-6.9s-6.9,3.089-6.9,6.9c0,3.811,3.089,6.9,6.9,6.9
							S570.9-217.189,570.9-221"/>
					</g>
					<g id="g24" transform="translate(2.2402,25.9824)">
						<path id="path26" fill="#292F33" d="M590.957-225.148c0.098-0.097,0.583-0.389,0.68-0.68s0.292-1.942,0.876-2.427
							c0.602-0.5,2.873-0.314,3.308-0.098c0.973,0.485,1.092,1.839,1.264,2.525c0.097,0.389,0.68,0.389,0.68,0.389
							s0.584,0,0.681-0.388c0.172-0.686,0.292-2.04,1.265-2.525c0.435-0.217,2.705-0.403,3.309,0.097
							c0.582,0.486,0.777,2.136,0.874,2.428c0.097,0.291,0.584,0.582,0.681,0.68c0.098,0.097,0.098,0.485,0,0.583
							c-0.195,0.194-2.49,0.367-4.962,0.097c-0.493-0.054-0.68-0.195-1.848-0.195c-1.166,0-1.355,0.141-1.848,0.194
							c-2.47,0.27-4.766,0.097-4.961-0.096C590.861-224.663,590.861-225.051,590.957-225.148"/>
					</g>
					<g id="g28" transform="translate(28.335,13.3711)">
						<path id="path30" fill="#664500" d="M575.454-217.655c-0.073,0.066-0.18,0.07-0.258,0.012
							c-0.016-0.012-1.592-1.177-3.531-1.177c-1.934,0-3.516,1.166-3.531,1.177c-0.077,0.058-0.185,0.052-0.258-0.012
							c-0.072-0.065-0.088-0.172-0.038-0.255c0.052-0.087,1.306-2.128,3.827-2.128c2.521,0,3.775,2.041,3.827,2.128
							C575.542-217.827,575.526-217.72,575.454-217.655"/>
					</g>
				</g>
			</g>
		</g>
	</g>
</g>
</svg>
