<?xml version="1.0" encoding="utf-8"?>
<!-- Generator: Adobe Illustrator 15.1.0, SVG Export Plug-In . SVG Version: 6.00 Build 0)  -->
<!DOCTYPE svg PUBLIC "-//W3C//DTD SVG 1.1//EN" "http://www.w3.org/Graphics/SVG/1.1/DTD/svg11.dtd">
<svg version="1.1" id="Capa_1" xmlns="http://www.w3.org/2000/svg" xmlns:xlink="http://www.w3.org/1999/xlink" x="0px" y="0px"
	 width="600px" height="599.948px" viewBox="450 0.026 600 599.948" enable-background="new 450 0.026 600 599.948"
	 xml:space="preserve">
<g>
	<path d="M750,0.026c-165.377,0-300,134.571-300,299.998c0,165.376,134.623,299.95,300,299.95c165.427,0,300-134.571,300-299.95
	C1050,134.597,915.427,0.026,750,0.026z M762.994,439.806v47.486h-28.79v-45.633c-26.444-0.504-53.451-8.755-69.397-20.158
l10.949-30.533c15.946,10.498,39.74,19.584,65.338,19.584c32.387,0,51.444-18.686,51.385-44.787
	c0.062-25.093-14.848-40.636-48.685-54.347c-46.55-18.293-75.341-39.74-75.341-79.491c0-37.897,26.887-66.636,68.49-73.537
	v-45.692h28.779v44.394c26.945,0.856,45.653,8.199,59.353,15.947l-11.403,30.149c-9.599-5.451-28.296-15.996-57.54-15.996
	c-35.196,0-45.492,21.043-45.492,39.74c0,23.301,13.952,35.147,53.732,52.04c47.042,19.25,70.786,42.551,70.786,83.196
	C835.183,398.645,810.048,432.491,762.994,439.806z"/>
</g>
</svg>
