<?xml version="1.0" encoding="utf-8"?>
<!-- Generator: Adobe Illustrator 15.1.0, SVG Export Plug-In . SVG Version: 6.00 Build 0)  -->
<!DOCTYPE svg PUBLIC "-//W3C//DTD SVG 1.1//EN" "http://www.w3.org/Graphics/SVG/1.1/DTD/svg11.dtd">
<svg version="1.1" id="Layer_1" xmlns="http://www.w3.org/2000/svg" xmlns:xlink="http://www.w3.org/1999/xlink" x="0px" y="0px"
	 width="328.976px" height="209.203px" viewBox="585.65 195.638 328.976 209.203"
	 enable-background="new 585.65 195.638 328.976 209.203" xml:space="preserve">
<path d="M733.424,248.546c-18.326-11.137-40.396-19.625-61.819-12.086c-34.555,9.838-55.478,50.635-42.694,84.44
	c10.586,35.304,53.529,54.681,87.184,39.848c17.427-6.24,28.912-22.318,33.955-39.599h-59.92v-35.606h100.017
	c2.047,29.11-2.247,60.27-21.172,83.639c-25.916,33.358-73.805,43.146-112.753,30.063c-41.346-13.584-71.408-55.229-70.506-98.873
	c-2.049-53.929,45.191-103.763,99.168-104.413c27.515-2.346,54.28,8.341,75.101,25.769L733.424,248.546z"/>
<path d="M855.005,254.887h29.76v29.861h29.861v29.76h-29.861v29.861h-29.76v-29.861h-29.861v-29.76h29.861V254.887z"/>
</svg>
