<?xml version="1.0" encoding="utf-8"?>
<!-- Generator: Adobe Illustrator 14.0.0, SVG Export Plug-In . SVG Version: 6.00 Build 43363)  -->
<!DOCTYPE svg PUBLIC "-//W3C//DTD SVG 1.1//EN" "http://www.w3.org/Graphics/SVG/1.1/DTD/svg11.dtd">
<svg version="1.1" id="Layer_1" xmlns="http://www.w3.org/2000/svg" xmlns:xlink="http://www.w3.org/1999/xlink" x="0px" y="0px"
	 width="166.251px" height="166.298px" viewBox="0 0 166.251 166.298" enable-background="new 0 0 166.251 166.298"
	 xml:space="preserve">
<g>
	<path d="M4.828,0.793c1.992-0.788,4.178-0.678,6.268-0.761c48.481,0.056,96.963,0,145.444,0.028
		c5.382-0.664,10.253,4.234,9.616,9.602c0.111,48.938,0.042,97.89,0.042,146.842c0.622,5.424-4.234,10.28-9.658,9.755
		c-48.938,0.014-97.89,0.014-146.828,0c-5.424,0.525-10.28-4.331-9.658-9.769c0-48.938-0.083-97.89,0.042-146.828
		C-0.208,6.065,1.715,2.579,4.828,0.793 M37.592,83.077c-0.249,12.093,8.08,23.632,19.536,27.396
		c10.792,3.625,24.061,0.913,31.242-8.33c5.244-6.475,6.435-15.109,5.866-23.175c-9.242-0.083-18.485-0.055-27.713-0.042
		c-0.014,3.293,0,6.573,0.014,9.866c5.534,0.152,11.068,0.083,16.603,0.193c-1.398,4.788-4.58,9.243-9.409,10.972
		c-9.325,4.11-21.224-1.259-24.157-11.041c-3.542-9.367,2.255-20.671,11.829-23.397c5.936-2.089,12.052,0.263,17.129,3.349
		c2.574-2.408,4.981-4.981,7.347-7.582c-5.769-4.829-13.185-7.79-20.809-7.14C50.113,54.326,37.024,68.133,37.592,83.077z
		 M112.223,70.625c-0.027,2.753-0.056,5.52-0.069,8.274c-2.767,0.027-5.521,0.041-8.274,0.055c0,2.754,0,5.493,0,8.246
		c2.753,0.014,5.521,0.028,8.274,0.056c0.028,2.753,0.028,5.507,0.055,8.274c2.74,0,5.493-0.014,8.247,0
		c0.015-2.767,0.027-5.521,0.056-8.288c2.753-0.014,5.521-0.028,8.273-0.042c0-2.753,0-5.492,0-8.246
		c-2.753-0.014-5.521-0.028-8.273-0.055c-0.015-2.754-0.041-5.521-0.056-8.274C117.702,70.625,114.962,70.625,112.223,70.625z"/>
</g>
</svg>
