<?xml version="1.0" encoding="iso-8859-1"?>
<!-- Generator: Adobe Illustrator 16.0.0, SVG Export Plug-In . SVG Version: 6.00 Build 0)  -->
<!DOCTYPE svg PUBLIC "-//W3C//DTD SVG 1.1//EN" "http://www.w3.org/Graphics/SVG/1.1/DTD/svg11.dtd">
<svg version="1.1" id="Capa_1" xmlns="http://www.w3.org/2000/svg" xmlns:xlink="http://www.w3.org/1999/xlink" x="0px" y="0px"
	 width="97.395px" height="97.395px" viewBox="0 0 97.395 97.395" style="enable-background:new 0 0 97.395 97.395;"
	 xml:space="preserve">
<g>
	<path d="M12.501,0h72.393c6.875,0,12.5,5.09,12.5,12.5v72.395c0,7.41-5.625,12.5-12.5,12.5H12.501C5.624,97.395,0,92.305,0,84.895
		V12.5C0,5.09,5.624,0,12.501,0L12.501,0z M70.948,10.821c-2.412,0-4.383,1.972-4.383,4.385v10.495c0,2.412,1.971,4.385,4.383,4.385
		h11.008c2.412,0,4.385-1.973,4.385-4.385V15.206c0-2.413-1.973-4.385-4.385-4.385H70.948L70.948,10.821z M86.387,41.188h-8.572
		c0.811,2.648,1.25,5.453,1.25,8.355c0,16.2-13.556,29.332-30.275,29.332c-16.718,0-30.272-13.132-30.272-29.332
		c0-2.904,0.438-5.708,1.25-8.355h-8.945v41.141c0,2.129,1.742,3.872,3.872,3.872h67.822c2.13,0,3.872-1.742,3.872-3.872V41.188
		H86.387z M48.789,29.533c-10.802,0-19.56,8.485-19.56,18.953c0,10.468,8.758,18.953,19.56,18.953
		c10.803,0,19.562-8.485,19.562-18.953C68.351,38.018,59.593,29.533,48.789,29.533z"/>
</g>
</svg>
