<?xml version="1.0" encoding="utf-8"?>
<!-- Generator: Adobe Illustrator 15.1.0, SVG Export Plug-In . SVG Version: 6.00 Build 0)  -->
<!DOCTYPE svg PUBLIC "-//W3C//DTD SVG 1.1//EN" "http://www.w3.org/Graphics/SVG/1.1/DTD/svg11.dtd">
<svg version="1.1"
	 id="svg2" xmlns:dc="http://purl.org/dc/elements/1.1/" xmlns:rdf="http://www.w3.org/1999/02/22-rdf-syntax-ns#" xmlns:cc="http://creativecommons.org/ns#" xmlns:svg="http://www.w3.org/2000/svg"
	 xmlns="http://www.w3.org/2000/svg" xmlns:xlink="http://www.w3.org/1999/xlink" x="0px" y="0px" width="600px" height="600px"
	 viewBox="450 0 600 600" enable-background="new 450 0 600 600" xml:space="preserve">
<g id="g10" transform="matrix(1.25,0,0,-1.25,0,47.5)">
	<g id="g12">
		<g>
			<defs>
				<rect id="SVGID_1_" x="300" y="-502" width="600" height="600"/>
			</defs>
			<clipPath id="SVGID_2_">
				<use xlink:href="#SVGID_1_"  overflow="visible"/>
			</clipPath>
			<g id="g14" clip-path="url(#SVGID_2_)">
				<g id="g20" transform="translate(36,19)">
					<path id="path22" fill="#FFCC4D" d="M778.737-221c0-118.598-96.139-214.737-214.737-214.737
						c-118.585,0-214.737,96.139-214.737,214.737C349.263-102.415,445.415-6.263,564-6.263
						C682.598-6.263,778.737-102.415,778.737-221"/>
				</g>
				<g id="g24" transform="translate(15,20.5)">
					<path id="path26" fill="#664500" d="M534.473-203.553c0-24.429-14.134-44.211-31.579-44.211
						c-17.444,0-31.579,19.781-31.579,44.211c0,24.417,14.135,44.211,31.579,44.211
						C520.339-159.342,534.473-179.136,534.473-203.553"/>
				</g>
				<g id="g28" transform="translate(28,20.5)">
					<path id="path30" fill="#664500" d="M685.684-203.553c0-24.429-14.135-44.211-31.579-44.211
						c-17.445,0-31.579,19.781-31.579,44.211c0,24.417,14.134,44.211,31.579,44.211
						C671.549-159.342,685.684-179.136,685.684-203.553"/>
				</g>
				<g id="g32" transform="translate(13,9)">
					<path id="path34" fill="#664500" d="M511.211-337.316c25.263,63.158,164.21,63.158,164.21,37.895
						C675.421-312.052,574.369-286.79,511.211-337.316"/>
				</g>
			</g>
		</g>
	</g>
</g>
</svg>
