<?xml version="1.0" encoding="utf-8"?>
<!-- Generator: Adobe Illustrator 15.1.0, SVG Export Plug-In . SVG Version: 6.00 Build 0)  -->
<!DOCTYPE svg PUBLIC "-//W3C//DTD SVG 1.1//EN" "http://www.w3.org/Graphics/SVG/1.1/DTD/svg11.dtd">
<svg version="1.1" id="Capa_1" xmlns="http://www.w3.org/2000/svg" xmlns:xlink="http://www.w3.org/1999/xlink" x="0px" y="0px"
	 width="600px" height="599.482px" viewBox="450 0.247 600 599.482" enable-background="new 450 0.247 600 599.482"
	 xml:space="preserve">

	<g id="c40_rss">
		<path d="M538.944,421.913c-49.046,0-88.944,39.85-88.944,88.945c0,48.923,39.898,88.87,88.944,88.87
			c49.047,0,88.945-39.923,88.945-88.87C627.89,461.763,587.991,421.913,538.944,421.913z"/>
		<path d="M459.247,196.063c-5.08,0-9.247,4.167-9.247,9.296v112.889c0,5.079,4.167,9.222,9.247,9.222
			c144.97,0,262.987,117.969,262.987,262.987c0,5.055,4.093,9.247,9.247,9.247h112.962h0.395c5.154,0,9.297-4.192,9.297-9.247
			l-0.444-2.885C852.063,371.461,675.678,196.063,459.247,196.063z"/>
		<path d="M1049.482,587.572C1047.879,263.381,783.659,0.247,459.247,0.247c-5.08,0-9.247,4.167-9.247,9.296v116.168
			c0,5.104,4.167,9.247,9.247,9.247c251.176,0,455.499,204.349,455.499,455.523c0,5.056,4.143,9.247,9.197,9.247h116.218h0.493
			c5.055,0,9.346-4.191,9.346-9.247L1049.482,587.572z"/>
	</g>
</svg>
