<?xml version="1.0" encoding="utf-8"?>
<!-- Generator: Adobe Illustrator 15.1.0, SVG Export Plug-In . SVG Version: 6.00 Build 0)  -->
<!DOCTYPE svg PUBLIC "-//W3C//DTD SVG 1.1//EN" "http://www.w3.org/Graphics/SVG/1.1/DTD/svg11.dtd">
<svg version="1.1"
	 id="svg2" xmlns:dc="http://purl.org/dc/elements/1.1/" xmlns:rdf="http://www.w3.org/1999/02/22-rdf-syntax-ns#" xmlns:cc="http://creativecommons.org/ns#" xmlns:svg="http://www.w3.org/2000/svg"
	 xmlns="http://www.w3.org/2000/svg" xmlns:xlink="http://www.w3.org/1999/xlink" x="0px" y="0px" width="600px" height="600px"
	 viewBox="450 0 600 600" enable-background="new 450 0 600 600" xml:space="preserve">
<g id="g10" transform="matrix(1.25,0,0,-1.25,0,47.5)">
	<g id="g12">
		<g>
			<defs>
				<rect id="SVGID_1_" x="300" y="-502" width="600" height="600"/>
			</defs>
			<clipPath id="SVGID_2_">
				<use xlink:href="#SVGID_1_"  overflow="visible"/>
			</clipPath>
			<g id="g14" clip-path="url(#SVGID_2_)">
				<g id="g20" transform="translate(36,19)">
					<path id="path22" fill="#FFCC4D" d="M778.737-221c0-118.598-96.139-214.737-214.737-214.737S349.263-339.598,349.263-221
						C349.263-102.402,445.402-6.263,564-6.263S778.737-102.402,778.737-221"/>
				</g>
				<g id="g24" transform="translate(19,16)">
					<path id="path26" fill="#664500" d="M581-255.895c-45.764,0-76.13,5.33-113.684,12.631c-8.577,1.655-25.263,0-25.263-25.263
						c0-50.526,58.042-113.684,138.948-113.684c80.893,0,138.948,63.159,138.948,113.684c0,25.263-16.687,26.93-25.263,25.263
						C657.13-250.564,626.764-255.895,581-255.895"/>
				</g>
				<g id="g28" transform="translate(11,24)">
					<path id="path30" fill="#664500" d="M487.948-162.842c0,0,0,25.263,25.263,25.263c25.263,0,25.263-25.263,25.263-25.263
						v-25.263c0,0,0-25.263-25.263-25.263c-25.263,0-25.263,25.263-25.263,25.263V-162.842z"/>
				</g>
				<g id="g32" transform="translate(23,24)">
					<path id="path34" fill="#664500" d="M627.527-162.842c0,0,0,25.263,25.263,25.263s25.263-25.263,25.263-25.263v-25.263
						c0,0,0-25.263-25.263-25.263s-25.263,25.263-25.263,25.263V-162.842z"/>
				</g>
				<g id="g36" transform="translate(10,15)">
					<path id="path38" fill="#FFFFFF" d="M476.316-267.527c0,0,37.895-12.631,113.684-12.631c75.79,0,113.684,12.631,113.684,12.631
						S678.421-318.052,590-318.052S476.316-267.527,476.316-267.527"/>
				</g>
			</g>
		</g>
	</g>
</g>
</svg>
