<?xml version="1.0" encoding="utf-8"?>
<!-- Generator: Adobe Illustrator 15.1.0, SVG Export Plug-In . SVG Version: 6.00 Build 0)  -->
<!DOCTYPE svg PUBLIC "-//W3C//DTD SVG 1.1//EN" "http://www.w3.org/Graphics/SVG/1.1/DTD/svg11.dtd">
<svg version="1.1"
	 id="svg2" xmlns:dc="http://purl.org/dc/elements/1.1/" xmlns:rdf="http://www.w3.org/1999/02/22-rdf-syntax-ns#" xmlns:cc="http://creativecommons.org/ns#" xmlns:svg="http://www.w3.org/2000/svg"
	 xmlns="http://www.w3.org/2000/svg" xmlns:xlink="http://www.w3.org/1999/xlink" x="0px" y="0px" width="17.25px" height="17.25px"
	 viewBox="741.375 291.375 17.25 17.25" enable-background="new 741.375 291.375 17.25 17.25" xml:space="preserve">
<g id="g10" transform="matrix(1.25,0,0,-1.25,0,47.5)">
	<g id="g12">
		<g>
			<g>
				<g id="g14">
					<g id="g20" transform="translate(36,19)">
						<path id="path22" fill="#FFCC4D" d="M570.9-221c0-3.811-3.089-6.9-6.9-6.9s-6.9,3.089-6.9,6.9c0,3.811,3.089,6.9,6.9,6.9
							S570.9-217.189,570.9-221"/>
					</g>
					<g id="g24" transform="translate(19,16)">
						<path id="path26" fill="#664500" d="M581-219.217c-1.47,0-2.446,0.171-3.653,0.405c-0.276,0.053-0.812,0-0.812-0.812
							c0-1.623,1.865-3.653,4.465-3.653c2.599,0,4.465,2.03,4.465,3.653c0,0.812-0.537,0.866-0.812,0.812
							C583.446-219.046,582.47-219.217,581-219.217"/>
					</g>
					<g id="g28" transform="translate(11,24)">
						<path id="path30" fill="#664500" d="M585.753-223.97c0,0,0,0.812,0.812,0.812c0.812,0,0.812-0.812,0.812-0.812v-0.812
							c0,0,0-0.812-0.812-0.812c-0.812,0-0.812,0.812-0.812,0.812V-223.97z"/>
					</g>
					<g id="g32" transform="translate(23,24)">
						<path id="path34" fill="#664500" d="M578.623-223.97c0,0,0,0.812,0.812,0.812c0.812,0,0.812-0.812,0.812-0.812v-0.812
							c0,0,0-0.812-0.812-0.812c-0.812,0-0.812,0.812-0.812,0.812V-223.97z"/>
					</g>
					<g id="g36" transform="translate(10,15)">
						<path id="path38" fill="#FFFFFF" d="M586.347-218.623c0,0,1.218-0.405,3.653-0.405s3.653,0.405,3.653,0.405
							s-0.812-1.623-3.653-1.623S586.347-218.623,586.347-218.623"/>
					</g>
				</g>
			</g>
		</g>
	</g>
</g>
</svg>
