<?xml version="1.0" encoding="utf-8"?>
<!-- Generator: Adobe Illustrator 14.0.0, SVG Export Plug-In . SVG Version: 6.00 Build 43363)  -->
<!DOCTYPE svg PUBLIC "-//W3C//DTD SVG 1.1//EN" "http://www.w3.org/Graphics/SVG/1.1/DTD/svg11.dtd">
<svg version="1.1" id="Layer_1" xmlns="http://www.w3.org/2000/svg" xmlns:xlink="http://www.w3.org/1999/xlink" x="0px" y="0px"
	 width="612px" height="612px" viewBox="0 0 612 612" enable-background="new 0 0 612 612" xml:space="preserve">
<path d="M1.147,0H0v612h1.147H612V0H1.147z M354.654,484.991C271.499,486.426,240,425.761,240,383.055V258.34h-38.632v-49.304
	c57.91-20.884,71.833-73.115,75.104-102.873c0.229-2.046,1.836-2.85,2.754-2.85c0.899,0,55.902,0,55.902,0v97.231h76.386v57.795
	h-76.653v118.824c0.249,16.16,6.178,38.441,36.739,37.619c10.117-0.249,23.696-3.194,30.791-6.579l18.36,54.43
	C413.865,472.77,382.71,484.513,354.654,484.991z"/>
</svg>
