<?xml version="1.0" encoding="utf-8"?>
<!-- Generator: Adobe Illustrator 15.1.0, SVG Export Plug-In . SVG Version: 6.00 Build 0)  -->
<!DOCTYPE svg PUBLIC "-//W3C//DTD SVG 1.1//EN" "http://www.w3.org/Graphics/SVG/1.1/DTD/svg11.dtd">
<svg version="1.1" id="Capa_1" xmlns="http://www.w3.org/2000/svg" xmlns:xlink="http://www.w3.org/1999/xlink" x="0px" y="0px"
	 width="340.206px" height="600px" viewBox="579.91 0 340.206 600" enable-background="new 579.91 0 340.206 600"
	 xml:space="preserve">
<g>
	<path d="M781.917,130.412V0h-84.161c-1.9,4.831-2.903,10.56-2.903,16.42c-0.897,2.825-1.901,4.857-1.901,7.735
		c-8.658,48.284-33.791,82.102-76.346,100.501c-12.566,5.755-24.129,6.679-36.695,5.755v105.253h61.827
		c1.029,147.915,1.029,224.208,1.029,228.089c0,2.904,0,5.808,0,8.765c7.762,64.651,41.526,103.326,101.452,117.819
		c24.129,6.784,50.185,9.662,76.346,9.662c33.765-0.95,66.658-6.758,99.552-17.397v-123.68
		c-19.298,5.808-36.827,10.612-52.191,15.391c-29.963,8.791-55.095,2.983-75.422-16.341c-1.928-2.904-4.831-6.785-5.835-10.639
		c-2.798-15.47-4.698-31.838-4.698-47.387V235.691h134.187v-105.28H781.917z"/>
</g>
</svg>
