<?xml version="1.0" encoding="utf-8"?>
<!-- Generator: Adobe Illustrator 15.1.0, SVG Export Plug-In . SVG Version: 6.00 Build 0)  -->
<!DOCTYPE svg PUBLIC "-//W3C//DTD SVG 1.1//EN" "http://www.w3.org/Graphics/SVG/1.1/DTD/svg11.dtd">
<svg version="1.1" id="Layer_1" xmlns="http://www.w3.org/2000/svg" xmlns:xlink="http://www.w3.org/1999/xlink" x="0px" y="0px"
	 width="21.207px" height="17.25px" viewBox="364.771 6.607 21.207 17.25" enable-background="new 364.771 6.607 21.207 17.25"
	 xml:space="preserve">
<path d="M385.979,8.642c0,0-0.828,1.34-2.168,2.247c0.275,6.149-4.218,12.969-12.377,12.969c-4.059,0-6.662-1.971-6.662-1.971
	s3.194,0.67,6.426-1.774c-3.271-0.197-4.061-3.034-4.061-3.034s0.906,0.236,1.971-0.08c-3.666-0.906-3.507-4.335-3.507-4.335
	s0.906,0.552,1.97,0.552c-3.311-2.562-1.34-5.833-1.34-5.833s2.995,4.217,8.987,4.572c-0.867-4.769,4.612-6.977,7.411-3.98
	c1.458-0.237,2.798-1.065,2.798-1.065s-0.473,1.617-1.931,2.405C384.677,9.233,385.979,8.642,385.979,8.642z"/>
</svg>
