<?xml version="1.0" encoding="utf-8"?>
<!-- Generator: Adobe Illustrator 15.1.0, SVG Export Plug-In . SVG Version: 6.00 Build 0)  -->
<!DOCTYPE svg PUBLIC "-//W3C//DTD SVG 1.1//EN" "http://www.w3.org/Graphics/SVG/1.1/DTD/svg11.dtd">
<svg version="1.1" id="Capa_1" xmlns="http://www.w3.org/2000/svg" xmlns:xlink="http://www.w3.org/1999/xlink" x="0px" y="0px"
	 width="599.999px" height="487.372px" viewBox="450.001 56.314 599.999 487.372"
	 enable-background="new 450.001 56.314 599.999 487.372" xml:space="preserve">
  <g>
		<path d="M1050,113.979c-22.083,9.785-45.778,16.421-70.675,19.384c25.421-15.223,44.88-39.368,54.103-68.05
			c-23.846,14.097-50.166,24.333-78.211,29.883c-22.458-23.958-54.402-38.881-89.834-38.881
			c-67.974,0-123.089,55.115-123.089,123.052c0,9.635,1.087,19.046,3.188,28.045c-102.28-5.137-192.976-54.14-253.677-128.602
			c-10.61,18.147-16.646,39.292-16.646,61.864c0,42.705,21.746,80.385,54.74,102.431c-20.172-0.675-39.144-6.224-55.752-15.447
			v1.538c0,59.613,42.441,109.366,98.718,120.69c-10.311,2.774-21.183,4.312-32.431,4.312c-7.948,0-15.635-0.787-23.171-2.287
			c15.672,48.928,61.114,84.509,114.954,85.484c-42.105,32.994-95.195,52.603-152.859,52.603c-9.935,0-19.721-0.6-29.356-1.688
			c54.478,34.981,119.153,55.378,188.665,55.378c226.419,0,350.184-187.54,350.184-350.185l-0.412-15.934
			C1012.619,160.32,1033.54,138.649,1050,113.979z"/>
  </g>
</svg>
