<?xml version="1.0" encoding="utf-8"?>
<!-- Generator: Adobe Illustrator 15.1.0, SVG Export Plug-In . SVG Version: 6.00 Build 0)  -->
<!DOCTYPE svg PUBLIC "-//W3C//DTD SVG 1.1//EN" "http://www.w3.org/Graphics/SVG/1.1/DTD/svg11.dtd">
<svg version="1.1"
	 id="svg2" xmlns:dc="http://purl.org/dc/elements/1.1/" xmlns:rdf="http://www.w3.org/1999/02/22-rdf-syntax-ns#" xmlns:cc="http://creativecommons.org/ns#" xmlns:svg="http://www.w3.org/2000/svg"
	 xmlns="http://www.w3.org/2000/svg" xmlns:xlink="http://www.w3.org/1999/xlink" x="0px" y="0px" width="600px" height="600px"
	 viewBox="450 0 600 600" enable-background="new 450 0 600 600" xml:space="preserve">
<g id="g10" transform="matrix(1.25,0,0,-1.25,0,47.5)">
	<g id="g12">
		<g>
			<defs>
				<rect id="SVGID_1_" x="300" y="-502" width="600" height="600"/>
			</defs>
			<clipPath id="SVGID_2_">
				<use xlink:href="#SVGID_1_"  overflow="visible"/>
			</clipPath>
			<g id="g14" clip-path="url(#SVGID_2_)">
				<g id="g20" transform="translate(36,19)">
					<path id="path22" fill="#FFCC4D" d="M778.737-221c0-118.598-96.139-214.737-214.737-214.737
						c-118.585,0-214.737,96.139-214.737,214.737C349.263-102.415,445.415-6.263,564-6.263
						C682.598-6.263,778.737-102.415,778.737-221"/>
				</g>
				<g id="g24" transform="translate(16.457,20.185)">
					<path id="path26" fill="#664500" d="M551.421-207.217c-0.758,1.705-18.935,41.646-56.299,41.646
						c-37.352,0-55.541-39.941-56.299-41.646c-1.162-2.615-0.404-5.671,1.82-7.465c2.235-1.806,5.394-1.857,7.705-0.177
						c0.165,0.114,15.941,11.394,46.775,11.394c30.645,0,46.409-11.129,46.762-11.381c1.111-0.834,2.45-1.251,3.764-1.251
						c1.389,0,2.791,0.468,3.941,1.377C551.838-212.926,552.583-209.844,551.421-207.217"/>
				</g>
				<g id="g28" transform="translate(32,22.4819)">
					<path id="path30" fill="#F5F8FA" d="M732.211-180.5c0-45.348-36.759-82.105-82.105-82.105
						c-45.348,0-82.105,36.758-82.105,82.105c0,45.347,36.758,82.105,82.105,82.105C695.452-98.395,732.211-135.153,732.211-180.5"
						/>
				</g>
				<g id="g32" transform="translate(28,22.4819)">
					<path id="path34" fill="#292F33" d="M685.684-180.5c0-17.445-14.135-31.579-31.579-31.579
						c-17.445,0-31.579,14.134-31.579,31.579c0,17.444,14.134,31.579,31.579,31.579C671.549-148.921,685.684-163.056,685.684-180.5"
						/>
				</g>
				<g id="g36" transform="translate(8,13.9819)">
					<path id="path38" fill="#664500" d="M453.052-279.369c0-50.071,58.055-113.684,138.948-113.684s138.948,63.159,138.948,113.684
						C730.948-279.369,600.425-314.181,453.052-279.369"/>
				</g>
				<g id="g40" transform="translate(13,12.101)">
					<path id="path42" fill="#E75A70" d="M511.211-301.246v-76.838c0-37.895,25.263-75.79,75.789-75.79s75.789,37.895,75.789,75.79
						v76.32C583.312-318.084,511.211-301.246,511.211-301.246"/>
				</g>
			</g>
		</g>
	</g>
</g>
</svg>
