<?xml version="1.0" encoding="utf-8"?>
<!-- Generator: Adobe Illustrator 15.1.0, SVG Export Plug-In . SVG Version: 6.00 Build 0)  -->
<!DOCTYPE svg PUBLIC "-//W3C//DTD SVG 1.1//EN" "http://www.w3.org/Graphics/SVG/1.1/DTD/svg11.dtd">
<svg version="1.1"
	 id="svg2" xmlns:dc="http://purl.org/dc/elements/1.1/" xmlns:rdf="http://www.w3.org/1999/02/22-rdf-syntax-ns#" xmlns:cc="http://creativecommons.org/ns#" xmlns:svg="http://www.w3.org/2000/svg"
	 xmlns="http://www.w3.org/2000/svg" xmlns:xlink="http://www.w3.org/1999/xlink" x="0px" y="0px" width="17.25px" height="17.25px"
	 viewBox="741.375 8.625 17.25 17.25" enable-background="new 741.375 8.625 17.25 17.25" xml:space="preserve">
<g id="g10" transform="matrix(1.25,0,0,-1.25,0,47.5)">
	<g id="g12">
		<g>
			<g>
				<g id="g14">
					<g id="g20" transform="translate(36,19)">
						<path id="path22" fill="#FFCC4D" d="M570.9,5.58c0-3.601-3.089-6.52-6.9-6.52c-3.81,0-6.9,2.919-6.9,6.52
							c0,3.6,3.09,6.52,6.9,6.52C567.811,12.1,570.9,9.18,570.9,5.58"/>
					</g>
					<g id="g24" transform="translate(16.457,20.185)">
						<path id="path26" fill="#664500" d="M582.511,4.849c-0.024,0.052-0.609,1.264-1.809,1.264c-1.2,0-1.784-1.213-1.809-1.264
							c-0.037-0.079-0.013-0.172,0.059-0.227c0.071-0.055,0.173-0.056,0.247-0.005c0.005,0.004,0.513,0.346,1.503,0.346
							c0.985,0,1.491-0.338,1.503-0.346c0.035-0.025,0.078-0.038,0.12-0.038c0.045,0,0.09,0.014,0.127,0.042
							C582.524,4.676,582.548,4.77,582.511,4.849"/>
					</g>
					<g id="g28" transform="translate(32,22.4819)">
						<path id="path30" fill="#F5F8FA" d="M573.277,3.434c0-1.377-1.181-2.493-2.638-2.493S568,2.057,568,3.434
							c0,1.377,1.181,2.493,2.638,2.493S573.277,4.81,573.277,3.434"/>
					</g>
					<g id="g32" transform="translate(28,22.4819)">
						<path id="path34" fill="#292F33" d="M575.653,3.434c0-0.53-0.455-0.959-1.015-0.959c-0.561,0-1.015,0.429-1.015,0.959
							c0,0.529,0.454,0.959,1.015,0.959C575.198,4.392,575.653,3.963,575.653,3.434"/>
					</g>
					<g id="g36" transform="translate(8,13.9819)">
						<path id="path38" fill="#664500" d="M587.535,8.674c0-1.52,1.866-3.452,4.465-3.452s4.465,1.918,4.465,3.452
							C596.465,8.674,592.27,7.617,587.535,8.674"/>
					</g>
					<g id="g40" transform="translate(13,12.101)">
						<path id="path42" fill="#E75A70" d="M584.565,9.833V7.5c0-1.151,0.812-2.301,2.435-2.301s2.435,1.15,2.435,2.301v2.317
							C586.881,9.322,584.565,9.833,584.565,9.833"/>
					</g>
				</g>
			</g>
		</g>
	</g>
</g>
</svg>
