<?xml version="1.0" encoding="utf-8"?>
<!-- Generator: Adobe Illustrator 14.0.0, SVG Export Plug-In . SVG Version: 6.00 Build 43363)  -->
<!DOCTYPE svg PUBLIC "-//W3C//DTD SVG 1.1//EN" "http://www.w3.org/Graphics/SVG/1.1/DTD/svg11.dtd">
<svg version="1.1" id="Layer_1" xmlns="http://www.w3.org/2000/svg" xmlns:xlink="http://www.w3.org/1999/xlink" x="0px" y="0px"
	 width="1022px" height="1022px" viewBox="0 0 1022 1022" enable-background="new 0 0 1022 1022" xml:space="preserve">
<g>
	<polygon points="448.268,589.772 611.858,504.999 448.24,419.633 	"/>
	<path d="M511,0C228.782,0,0,228.782,0,511s228.782,511,511,511s511-228.782,511-511S793.218,0,511,0z M813.551,534.103
		c0,49.001-6.046,98.003-6.046,98.003s-5.916,41.729-24.075,60.104c-23.025,24.117-48.835,24.237-60.671,25.65
		c-84.736,6.124-211.976,6.315-211.976,6.315s-157.437-1.437-205.881-6.082c-13.477-2.529-43.734-1.767-66.769-25.884
		c-18.156-18.376-24.064-60.104-24.064-60.104s-6.055-49.002-6.055-98.003v-45.94c0-49.001,6.055-98.004,6.055-98.004
		s5.908-41.729,24.064-60.104c23.035-24.118,48.835-24.237,60.672-25.649c84.739-6.125,211.844-6.125,211.844-6.125h0.263
		c0,0,127.109,0,211.845,6.125c11.836,1.412,37.646,1.531,60.671,25.649c18.159,18.375,24.075,60.104,24.075,60.104
		s6.046,49.003,6.046,98.004V534.103z"/>
</g>
</svg>
