<svg xmlns="http://www.w3.org/2000/svg" width="17.25" height="17.25" viewBox="9.084 9.084 17.25 17.25" enable-background="new 9.084 9.084 17.25 17.25"><path d="M19.287 13.53c-.418.036-.9.072-1.382.144-.738.104-1.477.247-2.086.563-1.19.53-1.992 1.66-1.992 3.32 0 2.083 1.22 3.14 2.76 3.14.516 0 .933-.068 1.317-.175.61-.212 1.125-.6 1.735-1.305.354.53.45.776 1.06 1.342.16.07.32.07.45-.036.385-.352 1.058-.988 1.412-1.342.16-.143.128-.352.032-.53-.354-.494-.706-.918-.706-1.87v-3.177c0-1.344.096-2.578-.802-3.495-.74-.744-1.896-1.024-2.793-1.024h-.386c-1.638.105-3.37.88-3.757 3.107-.063.28.13.388.258.424l1.798.248c.193-.038.29-.213.32-.39.162-.775.74-1.164 1.38-1.234h.13c.385 0 .8.178 1.028.528.254.425.224.99.224 1.484v.278zm-.353 4.2c-.225.494-.61.813-1.028.92-.064 0-.16.035-.256.035-.706 0-1.125-.6-1.125-1.483 0-1.128.61-1.66 1.38-1.906.418-.105.9-.142 1.382-.142v.424c0 .813.03 1.447-.353 2.152zm7.4 4.903v.115c-.018.69-.35 2.015-1.134 2.743-.157.135-.314.058-.245-.135.23-.612.75-2.033.507-2.358-.174-.25-.89-.23-1.5-.173-.278.04-.523.056-.715.1-.174.017-.21-.155-.035-.288.228-.172.472-.306.75-.404.994-.324 2.147-.134 2.304.078.034.053.068.168.068.323zm-1.657 1.34c-.227.192-.47.366-.715.522-1.83 1.21-4.203 1.84-6.26 1.84-3.316 0-6.28-1.344-8.53-3.587-.194-.173-.037-.422.19-.29 2.425 1.555 5.425 2.496 8.53 2.496 1.955 0 4.063-.403 6.07-1.268.14-.056.296-.135.436-.19.314-.155.593.23.28.478z"/></svg>