<?xml version="1.0" encoding="utf-8"?>
<!-- Generator: Adobe Illustrator 15.1.0, SVG Export Plug-In . SVG Version: 6.00 Build 0)  -->
<!DOCTYPE svg PUBLIC "-//W3C//DTD SVG 1.1//EN" "http://www.w3.org/Graphics/SVG/1.1/DTD/svg11.dtd">
<svg version="1.1" id="Capa_1" xmlns="http://www.w3.org/2000/svg" xmlns:xlink="http://www.w3.org/1999/xlink" x="0px" y="0px"
	 width="17.25px" height="17.25px" viewBox="9.084 9.084 17.25 17.25" enable-background="new 9.084 9.084 17.25 17.25"
	 xml:space="preserve">
<g>
	<path d="M19.287,13.53c-0.418,0.036-0.899,0.072-1.382,0.144c-0.738,0.104-1.477,0.247-2.086,0.563
		c-1.188,0.531-1.991,1.66-1.991,3.319c0,2.084,1.221,3.141,2.761,3.141c0.515,0,0.932-0.068,1.316-0.175
		c0.611-0.212,1.125-0.6,1.735-1.305c0.354,0.529,0.449,0.776,1.061,1.342c0.16,0.07,0.32,0.07,0.448-0.035
		c0.386-0.352,1.059-0.988,1.413-1.342c0.16-0.143,0.128-0.352,0.032-0.529c-0.354-0.495-0.706-0.919-0.706-1.87v-3.178
		c0-1.344,0.096-2.578-0.802-3.495c-0.739-0.744-1.896-1.024-2.793-1.024c-0.129,0-0.257,0-0.386,0
		c-1.638,0.105-3.371,0.881-3.757,3.107c-0.063,0.28,0.13,0.388,0.258,0.424l1.798,0.248c0.193-0.038,0.289-0.213,0.32-0.39
		c0.162-0.775,0.739-1.164,1.381-1.234c0.033,0,0.065,0,0.129,0c0.385,0,0.801,0.177,1.028,0.527
		c0.254,0.425,0.224,0.991,0.224,1.484L19.287,13.53L19.287,13.53z M18.934,17.73c-0.225,0.494-0.61,0.813-1.028,0.919
		c-0.064,0-0.159,0.036-0.256,0.036c-0.706,0-1.125-0.601-1.125-1.483c0-1.128,0.611-1.66,1.381-1.906
		c0.417-0.105,0.9-0.142,1.381-0.142v0.424C19.287,16.391,19.316,17.025,18.934,17.73z M26.334,22.633v0.115
		c-0.018,0.689-0.349,2.015-1.134,2.743c-0.157,0.134-0.314,0.057-0.245-0.136c0.229-0.612,0.751-2.033,0.507-2.358
		c-0.174-0.249-0.89-0.23-1.5-0.173c-0.278,0.039-0.523,0.056-0.715,0.099c-0.174,0.018-0.21-0.154-0.035-0.287
		c0.228-0.172,0.472-0.306,0.751-0.404c0.993-0.324,2.146-0.134,2.303,0.078C26.3,22.363,26.334,22.478,26.334,22.633z
		 M24.677,23.974c-0.227,0.191-0.47,0.365-0.715,0.521c-1.831,1.209-4.203,1.839-6.261,1.839c-3.315,0-6.28-1.343-8.53-3.586
		c-0.193-0.173-0.036-0.422,0.191-0.289c2.425,1.554,5.425,2.495,8.53,2.495c1.955,0,4.063-0.403,6.07-1.268
		c0.139-0.056,0.296-0.135,0.436-0.189C24.712,23.341,24.991,23.727,24.677,23.974z"/>
</g>
</svg>
