<svg xmlns="http://www.w3.org/2000/svg" width="499.818" height="525" viewBox="149.8 37.8 499.818 525" enable-background="new 149.8 37.8 499.818 525"><path d="M557.8 187.8c13.8 0 24.6-10.8 24.6-24.6s-10.8-24.6-24.6-24.6-24.6 10.8-24.6 24.6c0 13.2 10.8 24.6 24.6 24.6zm61.2 90.6c-16.8 0-30.6 13.8-30.6 30.6s13.8 30.6 30.6 30.6 30.6-13.8 30.6-30.6c.6-16.8-13.2-30.6-30.6-30.6zm-61.2 145.2c-20.4 0-36.6 16.2-36.6 36.6 0 20.4 16.2 36.6 36.6 36.6 20.4 0 36.6-16.2 36.6-36.6.6-20.4-16.2-36.6-36.6-36.6zM409 476.4c-24 0-43.2 19.2-43.2 43.2s19.2 43.2 43.2 43.2 43.2-19.2 43.2-43.2-19.2-43.2-43.2-43.2zM260.8 411c-27 0-49.2 22.2-49.2 49.2s22.2 49.2 49.2 49.2 49.2-22.2 49.2-49.2-22.2-49.2-49.2-49.2zm-10.2-102c0-27.6-22.8-50.4-50.4-50.4-27.6 0-50.4 22.8-50.4 50.4 0 27.6 22.8 50.4 50.4 50.4 27.6 0 50.4-22.2 50.4-50.4zm10.2-199.8c-30 0-54 24-54 54s24 54 54 54 54-24 54-54-24.6-54-54-54zM409 37.8c-35.4 0-63.6 28.8-63.6 63.6S374.2 165 409 165s63.6-28.8 63.6-63.6-28.2-63.6-63.6-63.6z"/></svg>