<?xml version="1.0" encoding="utf-8"?>
<!-- Generator: Adobe Illustrator 14.0.0, SVG Export Plug-In . SVG Version: 6.00 Build 43363)  -->
<!DOCTYPE svg PUBLIC "-//W3C//DTD SVG 1.1//EN" "http://www.w3.org/Graphics/SVG/1.1/DTD/svg11.dtd">
<svg version="1.1" id="Layer_1" xmlns="http://www.w3.org/2000/svg" xmlns:xlink="http://www.w3.org/1999/xlink" x="0px" y="0px"
	 width="17.25px" height="17.25px" viewBox="391.375 216.374 17.25 17.25" enable-background="new 391.375 216.374 17.25 17.25"
	 xml:space="preserve">

		<g>
			<path d="M400.957,222.124v3.833c0,0.53-0.427,0.957-0.957,0.957s-0.957-0.426-0.957-0.957v-3.833H400.957z"/>
			<path d="M407.605,225c0.53,4.198-2.447,8.035-6.648,8.562c-4.198,0.53-8.035-2.447-8.562-6.649
				c-0.53-4.198,2.447-8.035,6.648-8.562v-1.978h1.914v1.978c1.144,0.08,2.88,0.797,3.744,1.549l1.398-1.398l1.355,1.355
				l-1.398,1.398C406.808,222.121,407.525,223.856,407.605,225z M405.75,225.958c0-3.177-2.573-5.75-5.75-5.75
				c-3.177,0-5.75,2.573-5.75,5.75c0,3.177,2.573,5.75,5.75,5.75C403.177,231.708,405.75,229.134,405.75,225.958z"/>
		</g>
</svg>
