<?xml version="1.0" standalone="no"?>
<!DOCTYPE svg PUBLIC "-//W3C//DTD SVG 20010904//EN"
 "http://www.w3.org/TR/2001/REC-SVG-20010904/DTD/svg10.dtd">
<svg version="1.0" xmlns="http://www.w3.org/2000/svg"
 width="810.000000pt" height="810.000000pt" viewBox="0 0 810.000000 810.000000"
 preserveAspectRatio="xMidYMid meet">
<metadata>
Created by potrace 1.11, written by Peter Selinger 2001-2013
</metadata>
<g transform="translate(0.000000,810.000000) scale(0.100000,-0.100000)"
fill="#000000" stroke="none">
<path d="M5549 8068 c-3 -11 -10 -50 -15 -83 -3 -22 -8 -51 -10 -65 -3 -14 -7
-38 -10 -55 -3 -16 -12 -67 -20 -112 -8 -46 -12 -87 -9 -93 3 -5 1 -10 -6 -10
-7 0 -10 -2 -7 -5 3 -3 1 -27 -4 -53 -5 -26 -11 -58 -14 -72 -2 -14 -7 -36
-10 -50 -6 -24 -8 -36 -18 -105 -2 -16 -11 -64 -19 -105 -9 -41 -20 -100 -26
-130 -6 -30 -12 -64 -14 -75 -3 -11 -10 -53 -17 -93 -8 -40 -16 -74 -19 -76
-3 -2 -42 -7 -86 -10 -44 -4 -91 -9 -105 -11 -26 -4 -89 -12 -180 -20 -30 -3
-68 -8 -85 -11 -16 -3 -46 -7 -65 -9 -38 -4 -83 -10 -175 -25 -33 -5 -118 -19
-190 -30 -176 -29 -173 -28 -193 -34 -9 -3 -33 -7 -52 -10 -28 -4 -166 -31
-265 -52 -11 -2 -33 -7 -49 -10 -16 -2 -32 -6 -35 -8 -3 -2 -22 -7 -41 -10
-30 -4 -140 -30 -230 -53 -14 -3 -29 -7 -35 -9 -5 -1 -44 -12 -85 -24 -81 -23
-102 -28 -139 -36 -13 -3 -31 -9 -40 -13 -9 -5 -32 -12 -52 -15 l-36 -5 3 52
c6 106 20 226 34 292 6 28 13 63 16 78 3 15 13 51 23 80 13 38 16 59 9 77 -5
14 -11 32 -13 40 -2 8 -10 42 -20 75 -9 33 -18 69 -20 80 -2 11 -12 54 -23 95
-11 41 -23 88 -27 105 -6 27 -14 15 -94 -140 -101 -196 -124 -238 -132 -245
-13 -12 -17 -41 -9 -72 5 -18 11 -46 13 -63 3 -16 12 -70 21 -120 8 -49 18
-112 21 -140 3 -27 7 -61 10 -75 2 -14 6 -52 10 -85 3 -33 8 -67 10 -75 6 -18
7 -18 -210 -85 -82 -26 -157 -49 -165 -52 -8 -3 -19 -7 -25 -9 -29 -7 -222
-67 -235 -71 -8 -4 -17 -7 -20 -8 -3 0 -31 -9 -63 -19 -33 -9 -91 -26 -130
-36 -62 -16 -155 -42 -379 -105 -25 -8 -57 -19 -70 -26 -13 -7 -25 -12 -28
-11 -8 3 -71 -19 -125 -43 -82 -36 -95 -39 -95 -18 -4 117 13 892 26 1258 12
316 9 457 -12 598 -4 26 -10 47 -14 47 -4 0 -58 -11 -120 -25 -62 -14 -115
-25 -117 -25 -2 0 -1 -13 2 -30 24 -134 25 -210 10 -615 -7 -191 -16 -499 -15
-522 0 -7 0 -19 0 -25 1 -7 -1 -96 -4 -198 -3 -102 -5 -284 -6 -405 l0 -220
-73 -52 c-91 -65 -137 -106 -245 -218 -224 -231 -416 -420 -514 -504 -60 -51
-108 -96 -108 -101 0 -16 38 -21 86 -10 65 15 219 89 324 157 77 50 308 224
370 279 14 12 50 44 80 70 30 26 61 54 69 61 7 8 15 12 17 10 2 -2 6 -53 9
-113 5 -109 11 -196 21 -309 24 -264 26 -343 28 -930 1 -319 6 -593 11 -610 8
-30 143 -265 151 -265 3 0 23 37 45 83 22 45 44 89 49 97 5 8 19 38 31 65 12
28 27 64 34 80 16 37 83 255 90 293 2 15 16 77 30 137 14 61 32 142 40 180 16
70 66 236 152 500 25 77 47 156 48 175 4 58 5 60 14 60 5 0 44 -53 86 -117 73
-111 149 -209 203 -260 31 -31 37 -29 14 5 -25 35 -96 181 -100 207 -2 11 -7
25 -12 30 -19 25 -93 295 -119 435 -30 165 -32 169 -47 163 -18 -7 -140 -179
-187 -264 -30 -54 -122 -291 -132 -339 -2 -8 -4 -15 -5 -15 -1 0 -3 -7 -5 -15
-2 -8 -17 -58 -33 -110 -17 -52 -48 -153 -70 -225 l-40 -130 0 175 c1 96 -2
236 -6 310 -8 134 -9 154 -20 280 -13 134 -25 351 -30 517 l-3 81 39 22 c21
12 38 18 38 13 0 -4 4 -3 8 4 10 16 307 129 368 139 6 1 38 10 70 19 33 9 59
16 59 15 0 -1 12 3 28 9 15 6 38 13 50 15 12 3 47 12 77 21 30 9 64 18 75 20
33 8 227 65 270 80 22 7 121 39 220 70 217 68 198 62 210 65 6 1 17 6 26 11
19 9 36 -6 36 -31 0 -15 10 -150 18 -240 34 -409 63 -1340 42 -1367 -6 -8 -6
-13 0 -13 5 0 8 -12 7 -27 -12 -162 -17 -199 -31 -226 -63 -123 -301 -343
-636 -587 -64 -47 -116 -90 -117 -97 0 -9 28 -11 107 -8 60 2 108 4 108 5 0 0
43 3 95 5 52 3 115 7 140 10 24 3 72 8 106 10 34 3 77 7 95 9 138 15 165 19
172 23 5 3 21 7 36 9 30 5 29 6 47 -75 1 -7 8 -34 14 -60 6 -25 12 -55 14 -66
2 -11 16 -67 31 -125 15 -58 28 -113 30 -123 2 -9 18 -67 35 -127 17 -60 33
-119 35 -129 2 -11 9 -30 16 -43 7 -13 12 -24 11 -25 -1 -2 -2 -4 -1 -5 0 -2
2 -10 4 -19 4 -22 55 -189 65 -214 5 -11 18 -51 30 -90 13 -38 26 -79 30 -90
5 -11 13 -33 18 -50 71 -207 167 -464 277 -740 45 -115 86 -219 90 -230 5 -11
7 -23 7 -27 -1 -5 2 -8 6 -8 5 0 14 -17 20 -39 7 -21 22 -61 34 -87 12 -27 22
-51 23 -54 0 -8 154 -372 194 -462 12 -26 21 -49 21 -53 0 -3 9 -24 19 -48 10
-23 42 -98 71 -167 28 -69 66 -161 84 -205 19 -44 51 -124 72 -177 22 -54 42
-98 45 -98 16 0 118 228 139 310 5 19 16 60 24 90 9 30 18 69 21 85 3 17 10
55 17 85 6 30 12 64 13 75 1 11 5 49 9 85 16 146 23 258 31 500 12 354 16 438
19 485 9 104 16 181 21 210 2 17 7 50 10 75 3 25 8 56 11 70 4 14 8 38 11 53
2 16 16 70 29 120 30 112 28 105 43 142 6 17 17 44 23 60 6 17 18 39 25 50 13
19 13 19 14 -3 2 -24 3 -29 12 -52 3 -8 13 -37 23 -65 10 -27 22 -56 27 -62 5
-7 6 -13 3 -13 -4 0 -1 -10 6 -23 7 -12 13 -24 13 -27 1 -3 8 -18 15 -35 7
-16 14 -34 16 -40 1 -5 27 -69 58 -142 31 -73 56 -136 56 -141 0 -4 5 -13 12
-20 6 -6 13 -17 14 -24 4 -31 134 -298 144 -298 4 0 15 21 25 48 10 26 24 61
31 77 7 17 13 33 14 37 5 18 192 380 200 388 3 3 11 16 17 30 7 14 23 43 35
65 13 22 43 76 68 120 25 44 49 88 55 97 5 9 30 54 54 100 24 46 48 85 52 86
5 2 9 11 9 21 0 9 4 21 9 26 15 16 107 204 144 295 68 167 119 340 134 450 8
67 13 62 14 -16 2 -114 10 -206 23 -266 3 -13 8 -39 10 -58 11 -73 69 -249
117 -347 27 -57 49 -107 49 -112 0 -5 3 -11 8 -13 4 -1 30 -34 57 -73 203
-286 493 -418 750 -341 106 32 218 124 302 249 47 69 123 230 123 260 0 7 3
17 7 21 4 3 8 12 9 19 1 7 7 32 14 57 12 44 15 58 25 110 3 14 7 34 9 46 2 12
7 45 11 75 3 30 8 66 11 80 4 29 17 236 15 259 -1 8 -1 24 0 35 0 11 1 288 1
615 1 543 -1 653 -16 790 -18 157 -18 160 -30 230 -15 86 -15 89 -42 210 -23
106 -83 286 -132 395 -44 98 -113 228 -124 233 -5 2 -8 8 -8 14 0 18 -82 128
-92 122 -33 -21 -180 -410 -194 -513 -2 -18 -7 -37 -10 -42 -6 -10 -11 -35
-19 -94 -4 -22 -8 -51 -10 -65 -23 -146 -24 -484 -1 -610 18 -101 20 -96 -32
-109 -26 -6 -58 -14 -72 -16 -14 -3 -43 -10 -65 -15 -53 -13 -465 -110 -488
-115 -10 -2 -27 -7 -38 -10 -12 -4 -19 -1 -20 7 -1 7 -2 24 -4 38 -15 123 -32
487 -34 724 -1 88 -4 156 -8 153 -3 -4 -8 -19 -9 -34 -4 -37 -13 -115 -19
-156 -2 -17 -7 -57 -10 -87 -4 -30 -9 -73 -12 -95 -3 -22 -6 -51 -8 -65 -2
-14 -4 -25 -5 -25 0 0 -3 -19 -5 -42 -2 -23 -6 -70 -10 -105 -4 -35 -9 -76
-11 -93 -17 -155 -23 -359 -11 -410 9 -37 5 -49 -42 -147 -48 -100 -78 -167
-131 -283 -12 -27 -44 -97 -71 -153 -27 -57 -49 -105 -49 -108 0 -2 -22 -50
-49 -106 -118 -249 -151 -321 -157 -344 -3 -13 -12 -28 -20 -35 -8 -6 -14 -16
-14 -22 0 -17 -257 -531 -311 -623 -49 -82 -68 -102 -67 -66 0 9 -3 46 -8 82
-11 87 -11 347 0 440 5 41 10 89 12 105 1 17 3 30 5 30 1 0 3 9 5 20 7 45 44
198 82 335 40 147 53 197 57 215 2 6 7 28 13 50 6 22 13 52 16 67 2 15 7 31 9
35 3 5 8 25 11 45 3 21 10 58 16 83 6 26 8 51 5 56 -4 5 -2 9 2 9 5 0 10 16
11 37 2 20 5 40 7 44 3 4 8 35 11 69 3 33 7 69 9 78 2 9 4 27 4 39 1 25 28 33
181 48 19 2 53 7 75 10 75 13 282 10 309 -5 14 -7 28 -11 31 -8 3 3 1 27 -6
54 -6 27 -12 56 -14 64 -2 8 -4 16 -5 18 -2 1 -3 10 -5 20 -1 9 -4 24 -8 32
-3 8 -9 29 -13 45 -4 17 -8 32 -9 35 -24 77 -38 125 -39 134 -2 6 -10 34 -18
61 -20 62 -119 386 -122 400 -1 6 -22 71 -45 145 -24 74 -49 155 -57 180 -12
41 -46 150 -105 335 -12 39 -22 72 -22 75 0 3 -8 30 -19 60 -18 52 -43 176
-54 265 -3 22 -7 51 -9 65 -3 14 -7 52 -11 85 -3 33 -8 71 -10 85 -6 30 -17
177 -18 240 -1 41 1 45 24 48 14 1 178 4 365 6 187 1 349 6 360 10 30 10 75
79 75 116 0 51 -34 101 -80 118 -20 7 -633 8 -725 1 -37 -3 -45 1 -44 24 1 27
-7 280 -26 757 -4 85 -9 191 -12 235 -3 44 -5 95 -6 113 -1 27 -5 40 -8 30z
m-267 -1452 c4 -5 4 -15 0 -21 -3 -5 -7 -14 -8 -20 -1 -5 -7 -35 -13 -65 -6
-30 -13 -66 -16 -80 -3 -14 -9 -48 -15 -76 -6 -28 -13 -61 -15 -75 -3 -13 -7
-35 -11 -49 -3 -14 -7 -38 -10 -55 -3 -16 -7 -39 -10 -50 -21 -97 -61 -285
-70 -330 -2 -11 -15 -74 -29 -140 -15 -66 -29 -131 -31 -144 -3 -14 -7 -28 -9
-31 -2 -4 -7 -22 -10 -41 -3 -19 -15 -70 -26 -114 -11 -44 -21 -87 -24 -96
-11 -51 -29 -99 -36 -99 -5 0 -24 -21 -44 -46 -35 -47 -43 -47 -26 -1 5 13 12
39 15 59 3 19 8 41 10 49 7 19 16 66 22 114 2 22 6 49 9 60 4 20 17 131 19
170 1 11 4 25 7 30 8 15 4 374 -5 425 -13 82 -28 125 -53 158 -36 48 -38 44
-49 -98 -3 -47 -7 -101 -9 -120 -2 -19 -6 -75 -9 -125 -4 -49 -9 -112 -11
-140 -2 -27 -7 -108 -11 -180 -3 -71 -7 -159 -9 -195 -6 -95 -17 -323 -17
-340 -1 -16 -73 -117 -156 -217 -36 -43 -79 -79 -142 -117 -49 -31 -94 -56
-100 -56 -5 0 -10 -5 -10 -10 0 -6 -3 -9 -7 -8 -5 1 -48 -18 -98 -41 -49 -24
-118 -54 -152 -68 -35 -14 -63 -27 -63 -29 0 -9 116 9 184 27 39 11 80 22 91
25 11 3 -11 -11 -50 -30 -38 -19 -73 -32 -77 -30 -4 3 -8 0 -8 -5 0 -6 -10
-11 -23 -11 -13 0 -27 -3 -31 -7 -3 -4 -13 -8 -21 -10 -8 -2 -21 -5 -27 -6 -7
-2 -35 -8 -63 -12 -58 -10 -64 -12 -67 -15 -2 -1 -14 -3 -28 -5 -14 -1 -44 -5
-67 -9 -63 -10 -101 -15 -171 -21 -35 -4 -73 -8 -85 -10 -11 -3 -63 -7 -114
-11 -93 -6 -93 -6 -94 17 0 13 -2 33 -5 44 -4 21 -12 65 -18 100 -2 11 -6 34
-9 50 -8 36 -19 110 -23 145 -1 14 -3 25 -4 25 -1 0 -3 9 -4 20 -7 54 -19 132
-22 150 -3 11 -7 36 -9 55 -3 19 -8 49 -10 65 -3 17 -7 53 -10 80 -5 48 -9 77
-20 148 -5 30 -8 64 -20 175 -3 26 -7 67 -11 92 -6 53 -9 83 -29 310 -10 115
-15 212 -18 344 l-2 129 55 19 c30 10 64 20 75 22 11 3 49 14 85 25 36 11 76
22 90 25 14 2 38 9 53 15 15 6 40 13 55 16 44 8 106 22 110 25 2 3 2 3 57 15
22 4 45 10 50 11 6 2 23 6 40 9 32 7 158 34 190 41 11 2 36 7 55 10 19 3 43 7
52 10 19 5 40 10 89 18 19 3 44 8 55 10 12 2 37 7 55 10 175 28 298 48 319 52
14 2 42 6 63 9 75 10 113 15 147 20 19 3 55 7 80 10 25 2 66 7 91 10 25 4 65
8 88 10 23 2 44 5 46 7 9 8 81 4 87 -6z m-589 -2638 c-6 -7 -13 -24 -16 -38
-3 -14 -8 -34 -11 -45 -10 -37 -56 -260 -61 -300 -3 -22 -8 -51 -11 -65 -2
-14 -6 -41 -8 -60 -2 -19 -7 -57 -10 -85 -8 -67 -17 -167 -23 -240 -2 -33 -6
-415 -7 -850 -2 -434 -6 -808 -9 -830 -3 -22 -8 -71 -12 -110 -11 -120 -15
-159 -21 -195 -3 -19 -7 -48 -9 -65 -4 -34 -16 -102 -25 -135 0 -3 -9 9 -18
27 -63 118 -87 161 -104 185 -11 16 -16 28 -13 28 3 0 -2 12 -13 27 -29 42
-125 239 -201 412 -58 133 -158 384 -166 416 -1 6 -5 17 -8 25 -20 49 -159
493 -161 515 -1 6 -10 37 -20 70 -15 50 -76 281 -92 350 -2 11 -6 29 -9 40 -5
20 -21 91 -31 134 -3 13 -11 50 -19 83 -7 32 -11 58 -8 58 3 0 1 6 -5 13 -5 6
-13 30 -16 52 -4 22 -8 47 -11 55 -2 8 -6 26 -9 40 -5 27 -22 110 -31 150 -17
81 -18 78 22 89 36 9 102 26 148 36 11 3 34 8 50 12 17 4 32 7 35 8 20 4 121
28 150 35 57 14 123 30 148 35 46 10 64 14 84 21 11 3 30 7 41 9 12 2 51 10
87 19 84 22 90 23 120 30 14 3 57 12 95 22 39 9 81 18 95 21 13 2 27 6 29 9 2
2 18 4 34 4 22 0 27 -3 20 -12z m1922 -298 c68 -69 137 -141 155 -160 18 -19
55 -60 84 -90 104 -112 235 -270 291 -354 48 -70 55 -82 62 -96 3 -8 9 -17 13
-20 11 -8 68 -135 90 -199 37 -111 30 -209 -23 -306 -129 -235 -284 -171 -456
190 -64 134 -89 192 -111 255 -7 19 -16 44 -21 55 -9 22 -78 227 -85 254 -2 9
-15 54 -30 101 -14 47 -27 93 -30 103 -8 33 -13 52 -28 109 -8 31 -18 67 -20
80 -3 12 -17 72 -30 131 -29 128 -44 134 139 -53z"/>
</g>
</svg>
